<svg fill="none" height="17" viewBox="0 0 26 17" width="26" xmlns="http://www.w3.org/2000/svg" xmlns:xlink="http://www.w3.org/1999/xlink"><clipPath id="a"><path d="m0 0h26v17h-26z"/></clipPath><g clip-path="url(#a)" clip-rule="evenodd" fill="#fff" fill-rule="evenodd"><path d="m16.5649 13.7621h-6.4375c-.52808 0-.81246-.2428-.81246-.8095s.28438-.8095.81246-.8095h6.4375c.5282 0 .8125.2428.8125.8095s-.2843.8095-.8125.8095zm-8.87496 0h-4.4375c-.52812 0-.8125-.2428-.8125-.8095s.28438-.8095.8125-.8095h4.4375c.52813 0 .8125.2428.8125.8095s-.28437.8095-.8125.8095z" fill-opacity=".3"/><path d="m20.3125 11.3333c-1.5084 0-2.9551-.597-4.0217-1.65969-1.0666-1.06271-1.6658-2.50405-1.6658-4.00694 0-1.5029.5992-2.94424 1.6658-4.00694 1.0666-1.062708 2.5133-1.65973 4.0217-1.65973s2.9551.597022 4.0217 1.65973c1.0666 1.0627 1.6658 2.50404 1.6658 4.00694 0 1.50289-.5992 2.94423-1.6658 4.00694-1.0666 1.06269-2.5133 1.65969-4.0217 1.65969zm-2.2587-8.01425h-.6419l-1.5681.79333v.80953l1.2431-.64762v3.74h.975v-4.69524zm1.8687.64762c.4631 0 .7881.25904.7881.63143 0 .40476-.3818.68809-.9343.68809h-.2438v.6881h.2925c.585 0 .9831.29143.9831.71238 0 .40476-.39.68-.9425.68-.4062 0-.8125-.12953-1.235-.38048v.80952c.455.19429.91.29953 1.3569.29953 1.0644 0 1.7956-.54238 1.7956-1.32762 0-.55048-.3412-.99572-.91-1.17381.4875-.1619.8044-.59095.8044-1.07667 0-.76095-.6744-1.27904-1.6494-1.27904-.4395.00485-.8734.09849-1.2756.27523v.79334c.39-.21857.7881-.34 1.17-.34zm3.51 1.76476c.5931 0 1.0075.34809 1.0075.80143 0 .47762-.4144.80952-1.0075.80952-.3575 0-.7312-.11333-1.1131-.34809v.83381c.3981.17809.8044.26714 1.2025.26714.2112 0 .4062-.03238.5931-.08095.4225-.6881.6663-1.48143.6663-2.33143l-.0163-.34c-.3021-.17816-.6484-.26794-.9994-.25905-.1462 0-.3006.0081-.4631.03238v-1.05238h1.17c-.1015-.25912-.2266-.50841-.3737-.74476h-1.6413v2.55c.325-.08095.65-.13762.975-.13762z" fill-opacity=".6"/><path d="m16.2958 9.6736c1.0666 1.0627 2.5133 1.6597 4.0217 1.6597 1.354 0 2.6582-.481 3.6825-1.34811v5.01901c-.0065.5345-.221 1.0446-.5963 1.4187-.3754.374-.8811.5815-1.4065.577h-19.99444c-.26084.0022-.51955-.0478-.76136-.1473-.241814-.0996-.461995-.2466-.64797-.4327s-.334102-.4077-.435923-.652c-.1018215-.2444-.15534243-.5068-.157507-.7722v-11.99144c.00216457-.26541.0556855-.52778.157507-.77214.101821-.24436.249948-.46592.435923-.65203s.406156-.33312.64797-.43264c.24181-.09952.50052-.1496.76136-.14738h15.08824c-.2827.19402-.5491.41444-.7952.65966-1.0666 1.0627-1.6658 2.50404-1.6658 4.00694 0 1.50289.5992 2.94423 1.6658 4.00693zm-8.66545-4.46304c.35586 0 .64551.31158.64551.69894v2.81261c0 .38736-.28965.69894-.64551.69894h-4.50207c-.35587 0-.64552-.31158-.64552-.69894v-2.81261c0-.38736.28965-.69894.64552-.69894z" fill-opacity=".2"/></g></svg>