<svg fill="none" height="40" viewBox="0 0 56 40" width="56" xmlns="http://www.w3.org/2000/svg"><path d="m43.597 8h-31.1939c-.1299 0-.2601 0-.3898.00076-.1096.00078-.219.00199-.3283.00498-.2386.00644-.4792.02051-.7147.06282-.2393.04304-.462.11325-.6793.22379-.2135.10855-.40906.25053-.57851.41995-.16952.16942-.31158.36451-.42017.57819-.11064.21712-.18093.43975-.2237.6791-.04257.23551-.05673.47591-.06316.71401-.00294.1093-.0042.2186-.00491.3279-.00076.1299-.00051.2597-.00051.3898v17.5104c0 .1301-.00025.2597.00051.3898.00071.1093.00197.2186.00491.3279.00643.238.02059.4783.06316.7137.04277.2395.11306.462.2237.6792.10859.2136.25065.409.42017.5782.16945.1697.36501.3116.57851.4199.2173.1108.44.1811.6793.2241.2355.042.4761.0563.7147.0628.1093.0025.2187.0039.3283.0044.1297.001.2599.001.3898.001h31.1939c.1297 0 .2598 0 .3895-.001.1093-.0005.2187-.0019.3286-.0044.238-.0065.4785-.0208.7147-.0628.239-.043.4617-.1133.679-.2241.2138-.1083.4087-.2502.5785-.4199.1693-.1692.3113-.3646.4202-.5782.1109-.2172.1811-.4397.2237-.6792.0426-.2354.0564-.4757.0628-.7137.003-.1093.0045-.2186.005-.3279.001-.1301.001-.2597.001-.3898v-17.5104c0-.1301 0-.2599-.001-.3898-.0005-.1093-.002-.2186-.005-.3279-.0064-.2381-.0202-.4785-.0628-.71401-.0426-.23935-.1128-.46198-.2237-.6791-.1089-.21368-.2509-.40877-.4202-.57819-.1698-.16942-.3647-.3114-.5785-.41995-.2173-.11054-.44-.18075-.679-.22379-.2362-.04231-.4767-.05638-.7147-.06282-.1099-.00299-.2193-.0042-.3286-.00498-.1297-.00076-.2598-.00076-.3895-.00076z" fill="#000"/><path d="m43.597 8.81087.3837.00073c.104.00074.2079.00186.3125.00471.1818.00491.3945.01475.5928.05028.1723.03103.3168.07822.4556.14882.1369.06956.2624.16072.3719.27008.11.1101.2013.23573.2718.37415.0702.13759.1171.2814.148.45496.0354.196.0452.4093.0502.5922.0028.1032.0042.2064.0047.3121.001.1278.001.2556.001.3836v17.5157c0 .1281 0 .2556-.001.3861-.0005.1032-.0019.2065-.0047.3099-.005.1826-.0148.3957-.0507.5941-.0304.1711-.0773.315-.1479.4533-.0703.138-.1614.2635-.2709.3729-.1102.1102-.2353.2011-.3738.2713-.1377.0702-.282.1174-.4526.1481-.2023.036-.4239.0459-.5908.0505-.105.0023-.2095.0037-.3166.0042-.1276.001-.2556.001-.3832.001h-31.1939c-.0017 0-.0034 0-.0051 0-.1261 0-.2525 0-.3809-.001-.1047-.0005-.2092-.0019-.3102-.0042-.1707-.0046-.3925-.0145-.5931-.0503-.1721-.0309-.3164-.0781-.4559-.1492-.1373-.0696-.2622-.1604-.3724-.2708-.1094-.1091-.2003-.2342-.2706-.3725-.07033-.1382-.11739-.2824-.14833-.4556-.03578-.198-.0456-.4103-.05051-.5917-.00281-.1038-.00398-.2076-.00464-.3109l-.00051-.3047.00003-.0805v-17.5157l-.00003-.0804.00049-.3042c.00068-.1038.00185-.2076.00466-.3114.00491-.1816.01473-.3939.0508-.5935.03067-.17168.07771-.31595.14844-.45478.0697-.13723.1608-.26249.2707-.37238.1095-.10952.2349-.20057.373-.2708.138-.07025.2826-.11742.4547-.14838.1983-.03562.4112-.04544.5934-.05038.1039-.00282.2078-.00394.311-.00466l.385-.00075z" fill="#fff"/><g fill="#000"><path d="m19.3738 16.1803c.3253-.407.5461-.9534.4879-1.5118-.4763.0237-1.0575.3142-1.394.7215-.3022.3488-.5696.9181-.4999 1.4531.5347.0464 1.0689-.2673 1.406-.6628z"/><path d="m19.8556 16.9475c-.7765-.0462-1.4367.4406-1.8075.4406-.371 0-.9388-.4173-1.5529-.406-.7994.0117-1.5411.4635-1.9467 1.1821-.8343 1.4376-.2202 3.57.5912 4.7408.394.5792.8688 1.217 1.4945 1.1941.5911-.0232.8228-.3827 1.5414-.3827.718 0 .9267.3827 1.5525.3711.6489-.0116 1.0547-.5795 1.4486-1.1593.452-.6603.6371-1.2979.6487-1.3329-.0116-.0116-1.2513-.487-1.2628-1.9126-.0117-1.1937.9733-1.7615 1.0196-1.7967-.5562-.8224-1.4253-.9152-1.7266-.9385z"/><path d="m26.6163 15.3316c1.6876 0 2.8628 1.1629 2.8628 2.8561 0 1.6992-1.1994 2.8682-2.9051 2.8682h-1.8685v2.9706h-1.35v-8.6949zm-1.9108 4.5915h1.549c1.1754 0 1.8443-.6327 1.8443-1.7293s-.6689-1.7233-1.8382-1.7233h-1.5551z"/><path d="m29.8318 22.2255c0-1.1087.8498-1.7896 2.3568-1.874l1.7357-.1024v-.488c0-.705-.4762-1.1268-1.2716-1.1268-.7536 0-1.2237.3615-1.3381.9279h-1.2296c.0723-1.1449 1.0487-1.9884 2.6158-1.9884 1.537 0 2.5194.8134 2.5194 2.0848v4.3685h-1.2477v-1.0424h-.03c-.3676.705-1.1694 1.1509-2.0011 1.1509-1.2416 0-2.1096-.7713-2.1096-1.9101zm4.0925-.5724v-.5001l-1.5611.0964c-.7775.0542-1.2175.3977-1.2175.94 0 .5543.4581.9158 1.1573.9158.9101 0 1.6213-.6266 1.6213-1.4521z"/><path d="m36.3981 26.3591v-1.0545c.0963.024.3132.024.4218.024.6027 0 .9282-.253 1.127-.9037 0-.0121.1146-.3856.1146-.3917l-2.2903-6.3449h1.4103l1.6034 5.1579h.024l1.6034-5.1579h1.3742l-2.375 6.6702c-.5422 1.5366-1.1691 2.0307-2.483 2.0307-.1086 0-.4341-.0121-.5304-.0301z"/></g></svg>