<svg fill="none" height="16" viewBox="0 0 27 16" width="27" xmlns="http://www.w3.org/2000/svg" xmlns:xlink="http://www.w3.org/1999/xlink"><linearGradient id="a" gradientUnits="userSpaceOnUse" x1="3.52836" x2="12.6726" y1="10.7661" y2="7.36967"><stop offset="0" stop-color="#005ab9"/><stop offset="1" stop-color="#1e3764"/></linearGradient><linearGradient id="b" gradientUnits="userSpaceOnUse" x1="14.2568" x2="23.9662" y1="8.45847" y2="5.14587"><stop offset="0" stop-color="#fba900"/><stop offset="1" stop-color="#ffd800"/></linearGradient><path d="m13.9998 9.02282c-1.7833 2.36988-3.9383 5.02288-8.03401 5.02288h-4.965791c-.552284 0-.999999-.4478-.999999-1v-5.02287c0-.55229.447715-1 1-1h12.0002c1.7833-2.36989 3.9383-5.02283 8.034-5.02283h4.9658c.5523 0 1 .44772 1 1v5.02282c0 .55229-.4477 1-1 1z" fill="#fff"/><path d="m5.96579 13.0457c3.7671 0 5.65061-2.5115 7.53421-5.02287h-12.5v5.02287z" fill="url(#a)"/><path d="m21.0342 3c-3.7671 0-5.6506 2.51141-7.5342 5.02282h12.5v-5.02282z" fill="url(#b)"/></svg>