<svg fill="none" height="40" viewBox="0 0 56 40" width="56" xmlns="http://www.w3.org/2000/svg" xmlns:xlink="http://www.w3.org/1999/xlink"><clipPath id="a"><path d="m0 0h56v40h-56z"/></clipPath><g clip-path="url(#a)" fill="#fff"><path d="m2.54514 15.3435h-2.54514v8.9028h2.5314c1.34642 0 2.31845-.316 3.1737-1.0304.5013-.4158.90556-.9363 1.18444-1.5249.27887-.5886.4256-1.2311.42989-1.8824 0-2.6241-1.96124-4.4651-4.77429-4.4651zm2.0265 6.6771c-.54612.4912-1.25368.7076-2.37341.7076h-.48086v-5.8666h.48086c1.11973 0 1.79981.2027 2.37341.7213.3071.2831.55138.6274.71704 1.0108s.24902.7973.24469 1.2149c.00098.4172-.0839.83-.24935 1.2129s-.40794.7277-.71238 1.0128z"/><path d="m9.85088 15.3572h-1.73455v8.8891h1.73455z"/><path d="m14.0824 18.7782c-1.0304-.395-1.3395-.6492-1.3395-1.13 0-.5599.5461-.9858 1.2949-.9858.2725.0061.54.0742.7823.1992.2422.1249.4528.3035.6156.5221l.9068-1.1884c-.7165-.6387-1.6438-.9898-2.6036-.9858-1.5834 0-2.7821 1.0923-2.7821 2.5383 0 1.2227.5599 1.8513 2.1879 2.4352.4143.1325.8155.3027 1.1988.5084.1593.0947.291.2296.382.3911s.1381.344.1366.5294c-.0015.1721-.0381.3421-.1075.4997-.0694.1575-.1702.2993-.2962.4166s-.2745.2077-.4366.2657-.3343.0824-.5061.0716c-.396.0052-.785-.1038-1.1207-.3139-.3356-.2102-.6036-.5126-.7719-.871l-1.1197 1.0785c.8003 1.1712 1.7586 1.6899 3.0913 1.6899 1.8032 0 3.0672-1.1953 3.0672-2.9161-.0137-1.4048-.5976-2.0437-2.5795-2.7547z"/><path d="m17.1943 19.8086c-.0046.6151.1139 1.2248.3487 1.7933.2347.5685.581 1.0842 1.0183 1.5167.4373.4326.9568.7731 1.5279 1.0016.571.2285 1.182.3403 1.797.3288.7555.001 1.5005-.1767 2.1742-.5187v-2.0436c-.687.6869-1.3052.9754-2.0918.9754-1.7482 0-2.9882-1.2674-2.9882-3.0672-.0128-.3921.0525-.7828.1922-1.1494.1396-.3666.3508-.7017.6212-.9859.2705-.2841.5947-.5117.954-.6693.3592-.1577.7462-.2423 1.1384-.2489.8278 0 1.4529.2954 2.1742.9995v-2.0539c-.6551-.3535-1.3886-.5365-2.133-.5324-.617-.0077-1.2295.1068-1.8021.337-.5725.2302-1.0939.5714-1.5339 1.0041s-.79.9482-1.0298 1.5168-.3646 1.179-.3673 1.7961z"/><path d="m37.8096 21.3268-2.3699-5.9696h-1.8926l3.7714 9.1193h.9342l3.8401-9.1193h-1.8788z"/><path d="m42.8759 24.2463h4.9185v-1.5044h-3.184v-2.4009h3.0672v-1.5044h-3.0672v-1.975h3.184v-1.5044h-4.9185z"/><path d="m54.6605 17.9814c0-1.6659-1.1472-2.6379-3.1394-2.6379h-2.5726v8.9028h1.7174v-3.5721h.2267l2.4043 3.5721h2.1329l-2.7958-3.7507c1.3086-.2611 2.0265-1.1541 2.0265-2.5142zm-3.4829 1.4838h-.5049v-2.7066h.5324c1.0854 0 1.6899.4499 1.6899 1.3327 0 .8827-.6045 1.3739-1.7174 1.3739z"/><path d="m34.0657 19.8086c-.0007.9347-.2785 1.8481-.7982 2.6248-.5197.7768-1.2581 1.382-2.1218 1.7392-.8636.3572-1.8138.4503-2.7304.2676-.9165-.1828-1.7583-.6332-2.419-1.2943-.6606-.6611-1.1104-1.5032-1.2925-2.4199-.182-.9167-.0882-1.8668.2696-2.7302s.9636-1.6013 1.7407-2.1205 1.6908-.7963 2.6254-.7963c.6209 0 1.2358.1224 1.8094.3601s1.0948.5862 1.5337 1.0254.787.9606 1.0243 1.5345c.2373.5738.3592 1.1887.3588 1.8096z"/><path d="m55.5879 15.5324c0-.1546-.1099-.2404-.2954-.2404h-.2542v.7796h.1889v-.3022l.2164.3022h.2302l-.2577-.3194c.05-.0105.0946-.0383.1261-.0785.0314-.0403.0476-.0903.0457-.1413zm-.3435.1065h-.0309v-.2027h.0343c.0894 0 .1374.0309.1374.0996s-.0343.1031-.127.1031z"/><path d="m55.3268 15c-.1358 0-.2686.0403-.3816.1158s-.201.1827-.253.3083c-.052.1255-.0656.2636-.0391.3969.0265.1332.0919.2556.188.3517s.2185.1615.3517.188c.1333.0265.2714.0129.3969-.0391.1256-.052.2328-.14.3083-.253s.1158-.2458.1158-.3817c0-.1821-.0724-.3569-.2012-.4857s-.3036-.2012-.4858-.2012zm0 1.2399c-.1451-.0018-.2837-.0609-.3853-.1645-.1017-.1037-.1583-.2433-.1573-.3885-.0023-.0728.01-.1454.0362-.2134.0262-.0681.0657-.1301.1163-.1826s.1112-.0944.1782-.1231.139-.0437.2119-.0441c.1461.0036.2848.0648.3859.1704.101.1055.1562.2468.1534.3928.0009.1446-.0552.2837-.1561.3873-.1009.1035-.2386.163-.3832.1657z"/></g></svg>