<svg fill="none" height="17" viewBox="0 0 26 17" width="26" xmlns="http://www.w3.org/2000/svg"><path d="m22.2099 16.9999h-20.42198c-.46978.004-.92169-.1844-1.256572-.5231-.336538-.3404-.52743184-.8045-.53133951-1.2877l-.00000849-12.37609c.00391616-.48534.19481-.9494.531348-1.28979.334882-.33873.786782-.527137 1.258712-.52315l20.42204-.00001c.4698-.003977.9217.18443 1.2565.52316.3366.34039.5275.80445.5314 1.28769v12.38369c-.0061.5039-.2093.9579-.5339 1.2849-.323.3253-.7663.5246-1.2562.5204z" fill="#fff"/><path d="m22.2121 16.7499h-.0022-20.42198-.00212c-.40105.0034-.788418-.1573-1.076671-.4489-.289822-.2931-.455483-.6942-.459121-1.113-.000002-.0003-.000005-.0006-.000008-.0009v-12.37304c.003647-.42105.16941-.82204.459129-1.11508.288137-.29144.675461-.45233 1.078811-.44892v.00001h.00212 20.42204l.0021-.00002c.401-.00339.7884.15737 1.0767.44893.2898.29316.4555.69422.4591 1.11304v.00091 12.38017c-.0057.4369-.1818.8287-.4613 1.1102-.2783.2803-.6578.4502-1.0766.4466z" stroke="#000" stroke-opacity=".2" stroke-width=".5"/><path d="m10.0621 3.016v-.016h4v.016c3.1354.22944 5.5621 2.84018 5.5621 5.984 0 3.1438-2.4267 5.7546-5.5621 5.984v.016h-4v-.016c-3.13542-.2294-5.5621-2.8402-5.5621-5.984 0-3.14382 2.42668-5.75456 5.5621-5.984z" fill="#0165ac"/><path d="m11.6621 12.392c1.4353-.5103 2.3941-1.8687 2.3941-3.39201 0-1.5233-.9588-2.88171-2.3941-3.392zm-2.39995-6.78401c-1.43529.51029-2.39405 1.8687-2.39405 3.392 0 1.52331.95876 2.88171 2.39405 3.39201zm1.19995 8.59201c-2.87183 0-5.19995-2.3281-5.19995-5.20001 0-2.87188 2.32812-5.2 5.19995-5.2 2.8719 0 5.2 2.32812 5.2 5.2 0 2.87191-2.3281 5.20001-5.2 5.20001z" fill="#fff"/></svg>