<svg fill="none" height="40" viewBox="0 0 56 40" width="56" xmlns="http://www.w3.org/2000/svg"><path d="m16.4385 8h9.4885c1.3247 0 2.1462 1.07905 1.8386 2.4073l-4.4116 18.958c-.3112 1.3247-1.6371 2.4049-2.9617 2.4049h-9.4886c-1.32226 0-2.14615-1.0802-1.83973-2.4049l4.41873-18.958c.3053-1.32825 1.6299-2.4073 2.9558-2.4073z" fill="#e21836"/><path d="m25.1349 8h10.9086c1.3294 0 .7332 1.07905.4161 2.4073l-4.4116 18.958c-.31 1.3247-.2135 2.4049-1.5393 2.4049h-10.9134c-1.327 0-2.1462-1.0802-1.8362-2.4049l4.4116-18.958c.3172-1.32825 1.6395-2.4073 2.9642-2.4073z" fill="#00447c"/><path d="m35.6107 8h9.4861c1.3259 0 2.1462 1.07905 1.8386 2.4073l-4.4116 18.958c-.3112 1.3247-1.6383 2.4049-2.9641 2.4049h-9.4862c-1.327 0-2.1462-1.0802-1.8386-2.4049l4.4117-18.958c.3147-1.32825 1.6382-2.4073 2.9641-2.4073z" fill="#007b84"/><path d="m18.9152 14.08c-.9753.0108-1.2639 0-1.3557-.0214-.0358.1633-.6951 3.2002-.6951 3.2026-.1419.614-.2456 1.0528-.5962 1.3354-.1975.1611-.4463.2457-.7011.2384-.4316 0-.6844-.2146-.7261-.6224l-.0036-.1347s.1324-.8227.1324-.8275c0-.0047.6903-2.7674.8143-3.1334.0034-.0121.0058-.0245.0072-.037-1.345.0119-1.5834 0-1.5989-.0214-.0096.0298-.0429.2015-.0429.2015l-.7071 3.1143-.0596.2647-.1192.8645c-.007.2241.0452.4462.1514.6438.3207.5616 1.2376.6451 1.7563.6451.6689 0 1.2948-.1419 1.7193-.4007.7345-.434.9276-1.1136 1.0981-1.7169l.0799-.31s.7154-2.8735.8347-3.2479c.0024-.0128.0064-.0252.0119-.037zm2.4216 2.3191c-.2654.0051-.5267.0664-.7667.18-.1025.0525-.1991.1121-.3004.1729l.0918-.3326-.0513-.0561c-.5962.1193-.7297.1371-1.2818.2158l-.0465.0298c-.0782.665-.1977 1.3244-.3577 1.9745-.0906.3852-.1848.7691-.279 1.153l.0251.0489c.5651-.031.7368-.031 1.2281-.0226l.0405-.043c.062-.3195.0704-.3946.2087-1.0421.0644-.3076.2003-.9824.2671-1.2221.1096-.0642.2314-.1048.3577-.1192.2754 0 .2384.2384.2313.3362-.012.161-.1193.6856-.2158 1.1363l-.068.2909c-.0489.2146-.1014.4233-.149.6367l.0214.0429c.5568-.031.7273-.031 1.2031-.0226l.056-.0429c.0859-.4996.1109-.6332.2635-1.3605l.0763-.3338c.1491-.6534.2242-.9849.1121-1.2555-.118-.2993-.4042-.3697-.6665-.3697zm2.7054.6844c-.2969.0572-.4853.0954-.6737.1192-.1884.0239-.3672.0573-.6534.0966l-.0226.0203-.0215.0167c-.0298.2134-.0501.3982-.0894.614-.0394.2158-.0859.4769-.1693.8442-.0332.1622-.0786.3216-.136.4769-.0585.1535-.1079.3104-.1478.4698l.0167.025.0143.0227c.2671-.0119.4423-.0215.6224-.0227.18-.0012.366 0 .6534 0l.025-.0202.0274-.0227c.0418-.248.0477-.3148.074-.4364.0262-.1216.0679-.31.1752-.7905.0501-.2253.1062-.4507.1586-.6808.0525-.2301.1109-.4555.1658-.6808l-.0084-.0275zm0-.9229c-.2695-.1585-.7416-.1085-1.06.1109s-.3577.5199-.0847.6808c.2731.161.7393.1085 1.0541-.112.3147-.2206.3624-.527.0965-.6844zm1.6335 3.6736c.5449 0 1.1029-.1502 1.5226-.5962.3231-.3577.4769-.899.5234-1.1196.1669-.7332.037-1.0731-.1264-1.2841-.2492-.3184-.688-.4209-1.1434-.4209-.2731 0-.9253.0274-1.4308.4972-.3661.3386-.5354.7989-.6367 1.2388-.1014.44-.2218 1.2579.5222 1.5584.2466.0884.5072.1312.7691.1264zm-.043-1.6502c.1264-.5556.2743-1.0206.6522-1.0206.2969 0 .3184.3458.186.9038-.0238.1192-.1311.583-.2778.7786-.0355.0659-.0867.1222-.1491.1638s-.134.0672-.2086.0746c-.0405 0-.2766 0-.2802-.3505.0044-.1856.0304-.3701.0775-.5497zm3.4494 1.5787.043-.043c.0596-.3195.0703-.3946.2039-1.0421.0667-.3076.205-.9813.2694-1.2221.1096-.0644.2314-.105.3577-.1192.2743 0 .2385.2384.2301.3362-.0516.3822-.1233.7615-.2146 1.1363l-.0656.2909c-.05.2146-.1037.4233-.1514.6367l.0203.0429c.5592-.0298.7225-.0298 1.2018-.0226l.0573-.0429c.0846-.4996.1073-.6332.2635-1.3605l.0751-.3338c.1502-.6546.2253-.9849.1192-1.2555-.1192-.3029-.4101-.3756-.6701-.3756-.2654.0049-.5267.0663-.7666.18-.1002.0525-.2003.1121-.2993.1729l.0859-.3327-.0454-.056c-.5961.1192-.7332.1371-1.2841.2158l-.0429.0298c-.0795.6648-.1989 1.3241-.3577 1.9745-.0894.3851-.1836.7738-.2778 1.1578l.025.0488c.564-.0238.7333-.0238 1.2233-.0166zm4.1076.0214c.0358-.1705.2444-1.1923.2456-1.1923s.1777-.7464.1896-.7738c.0305-.0423.068-.079.1109-.1085h.0823c.7774 0 1.6537 0 2.3417-.5056.4779-.3658.808-.8915.93-1.4809.0414-.169.063-.3422.0644-.5162.0089-.2309-.0563-.4586-.186-.6498-.3506-.4901-1.0493-.4996-1.8541-.5032h-.3982c-1.0314.0131-1.4451.0095-1.6144-.0119-.0143.0751-.0418.2086-.0418.2086s-.3696 1.7134-.3696 1.7158l-.9252 3.8154c.9002-.0143 1.2698-.0143 1.4248.0024zm.6844-3.0416s.3982-1.7086.3911-1.7027l.0131-.087v-.0668l.1562.0167.8346.0704c.3196.1192.4507.4435.3577.8596-.0365.1808-.1128.3512-.2234.4989-.1105.1476-.2525.2688-.4157.3548-.2611.1312-.5806.1419-.9097.1419h-.2134zm2.4467 1.4737c-.1038.4424-.223 1.2508.5162 1.5393.2082.0911.4349.132.6618.1192.2364-.0257.4581-.1274.6319-.2897-.0179.0668-.0358.1335-.0525.2015l.0334.0429c.5318-.0214.6975-.0214 1.2734-.0179l.0525-.0393c.0835-.4948.1633-.9753.3815-1.922.1073-.4531.2135-.9026.3232-1.3545l-.0179-.0489c-.5962.1097-.7536.1335-1.3259.2146l-.0441.0358c-.006.0453-.0119.0894-.0167.1335-.0951-.1568-.2399-.2772-.4114-.3422-.2551-.1001-.8525.0286-1.3664.496-.3672.3351-.5413.7917-.639 1.2317zm1.2495.0262c.1276-.5449.2742-1.0063.6534-1.0063.2385 0 .366.2218.3398.5962-.0203.0942-.0417.1931-.0679.3052-.0382.1622-.0799.3231-.1193.4841-.0337.1002-.0811.1953-.1407.2826-.0579.0667-.1287.121-.2083.1596-.0795.0385-.166.0605-.2543.0645-.0381 0-.2718 0-.2802-.3445.0047-.1829.0307-.3646.0775-.5414zm6.5268-1.8004-.0453-.0524c-.589.1192-.6951.1383-1.2364.211l-.0406.0405c-.0012.0085-.0032.0169-.0059.0251v-.0096c-.4031.9301-.3911.7297-.7154 1.4606 0-.0333 0-.0536 0-.0894l-.0823-1.5858-.0513-.0524c-.6176.1192-.6319.1383-1.2019.211l-.0441.0405c-.0046.0205-.0078.0412-.0095.062v.0084c.0567.2834.0985.5695.1252.8573.0334.2814.0775.5651.1109.8429.056.4662.0882.6952.1562 1.407-.384.6343-.477.8752-.8466 1.4308l-.2611.4125c-.0216.0383-.0551.0684-.0954.0859-.0544.0203-.1126.0284-.1705.0238h-.1443l-.2146.7154.7369.0131c.1724.0097.3439-.0301.4945-.1146s.274-.2102.3556-.3623l.4638-.7941h-.0071l.0489-.056c.31-.6642 2.6803-4.7312 2.6803-4.7312zm-7.7763 9.3836h-.3124l1.1565-3.8273h.3839l.1193-.3935.0119.4376c-.0143.2706.1991.5115.7583.4769h.6486l.2218-.7368h-.2384c-.1395 0-.2051-.0358-.1968-.1121l-.0119-.446h-1.2019c-.3875.0084-1.55.037-1.7801.1002-.2081.0649-.4048.1618-.5831.2873l.1193-.3946h-1.122l-.2385.7833-1.1684 3.8835h-.2278l-.2229.7309h2.2344l-.0751.2444h1.1005l.0739-.2444h.3088zm-.9169-3.0499c-.1749.0574-.3464.1242-.5139.2003l.2968-.9777h.8919l-.2158.7154c-.1545.0081-.308.0288-.459.062zm.0166 1.3974s-.2802.0357-.4638.0775c-.1786.065-.353.141-.5222.2277l.3076-1.0171h.8954zm-.4995 1.6609h-.8943l.2599-.8585h.8907zm2.1533-2.3728h1.2889l-.1848.5962h-1.3056l-.1967.6546h1.1422l-.8644 1.2186c-.0408.0667-.1024.1182-.1753.1466-.0729.0414-.1547.0643-.2385.0668h-.3171l-.217.7154h.8286c.1723.0054.3431-.0334.4961-.1127s.2831-.1965.3779-.3404l.5962-.812.1276.8251c.011.06.0362.1166.0732.1651.0371.0485.0852.0875.1402.1139.0872.0595.1859.1001.2897.1192.13.006.2242.0096.2862.0096h.4161l.2444-.8036h-.1609c-.0947.0048-.1893-.0102-.2778-.0442-.0259-.0536-.0401-.1121-.0418-.1717l-.1287-.8262h-.5294l.2313-.2767h1.3032l.2015-.6545h-1.2126l.1872-.5962h1.203l.223-.7404h-3.5865zm-10.8847 2.5421.3004-1.0004h1.2365l.2265-.744h-1.2376l.1884-.6164h1.209l.2241-.7154h-3.0249l-.2194.7154h.6868l-.1836.6164h-.6892l-.2277.7571h.6868l-.4007 1.3235c-.0189.0555-.0219.1152-.0086.1723.0132.0571.0423.1094.0838.1508.0232.0414.055.0772.0933.1052.0382.028.082.0474.1284.057.1036.0272.2101.0416.3172.0429h1.3938l.248-.8239-.6176.0847c-.1192-.006-.4495-.0167-.4137-.1252zm.1418-4.7896-.3135.5664c-.0413.0924-.1033.174-.1813.2384-.0886.0367-.1847.0514-.2802.043h-.1633l-.2194.7225h.5437c.1943-.0031.3851-.0521.5568-.1431.1026-.0548.13-.0238.2099-.1001l.1836-.1586h1.6943l.2253-.7547h-1.2412l.217-.4114zm2.5039 4.8051c-.0286-.0417-.0083-.1192.0358-.2683l.4626-1.5357h1.6478c.2385 0 .4138-.006.527-.0143.1394-.0185.2738-.0638.3959-.1336.1185-.0608.2182-.1527.2885-.2658.1281-.1989.2242-.4165.285-.6451l.5818-1.9411-1.7098.0107c-.2567.0363-.5105.0909-.7595.1634-.2016.0982-.3919.2182-.5675.3577l.1538-.5318h-1.0564l-1.4797 4.9076c-.0411.1348-.073.2722-.0954.4114 0 .0894.1133.1788.1872.2456.074.0668.2194.056.3458.0668.1264.0107.3195.0155.5783.0155h.812l.2492-.8418-.7262.0691c-.0301.0011-.06-.0049-.0873-.0176-.0274-.0126-.0514-.0315-.0701-.0551zm.7977-2.8377h1.7324l-.1108.3445c-.0762-.0067-.1528-.0067-.229 0h-1.4999zm.347-1.1566h1.7467l-.1264.4149s-.8227-.0083-.9538.0167c-.3371.0537-.6542.1951-.9193.4102zm1.3115 2.6565c-.0094.0429-.0339.081-.0691.1073-.055.026-.116.0367-.1765.031h-.2468l.0143-.4209h-1.0266l-.0405 2.0544c0 .1478.0119.2385.1192.3028.1073.0644.4424.0966.8931.0966h.6426l.2325-.769-.5604.031-.186.0107c-.0285-.0104-.0545-.0266-.0763-.0477-.0238-.0238-.0644-.0095-.0572-.1574v-.527l.5866-.0238c.1033.0068.207-.0076.3046-.0422.0976-.0347.187-.0889.263-.1593.0986-.0928.1647-.2149.1883-.3482l.099-.4662h-.8072z" fill="#fefefe"/></svg>