<svg fill="none" height="40" viewBox="0 0 56 40" width="56" xmlns="http://www.w3.org/2000/svg" xmlns:xlink="http://www.w3.org/1999/xlink"><clipPath id="a"><path d="m9 8h38v23.7704h-38z"/></clipPath><g clip-path="url(#a)" fill="#fefefe"><path d="m25.9529 19.4945c.0707-.007.1385-.0313.1976-.0707s.1076-.0927.1412-.1552c.139-.1852.2406-.6212.2632-.7375.1254-.5286.105-.8572-.1762-.8572-.358 0-.4981.4416-.6178.9679-.0448.1708-.0695.3463-.0734.5229.0034.3298.227.3298.2654.3298z"/><path d="m44.1963 9h-27.1465c-1.2559 0-2.5107 1.0221-2.8032 2.2803l-4.1856 17.961c-.28687 1.2548.4902 2.278 1.7461 2.278h27.1397c1.2559 0 2.513-1.0232 2.8078-2.278l4.1788-17.9576c.2993-1.2616-.4812-2.2837-1.7371-2.2837zm-6.4128 8.0414c.1645.0605.3038.1747.3953.3242 0-.0418.0102-.0836.0158-.1265l.0418-.0339c.5422-.0768.6924-.0994 1.2559-.2033l.017.0463c-.1039.428-.2044.8538-.3061 1.283-.2067.8968-.2823 1.3553-.3614 1.8206l-.0497.0373c-.5455 0-.7025 0-1.2062.0169l-.0316-.0406c.0158-.0644.0327-.1277.0497-.1909-.1647.1537-.3747.25-.5986.2744-.2149.0121-.4297-.0266-.6268-.1129-.7003-.2733-.5873-1.0391-.4891-1.4581.0983-.419.2575-.8493.5997-1.1667.4812-.4427 1.047-.5647 1.2943-.4698zm-1.2864-1.8296c.1246.1833.1864.402.1762.6234-.0012.1648-.0217.3289-.061.489-.1155.5583-.4282 1.0563-.8809 1.4028-.6517.4788-1.4818.4788-2.2182.4788h-.0779c-.0406.028-.0762.0628-.105.1028-.0113.026-.1796.733-.1796.733s-.1988.9634-.2327 1.1294c-.1468-.0158-.4969-.0158-1.3496 0l.8764-3.6141.3501-1.6252s.026-.1265.0396-.1977c.1603.0204.5522.0237 1.5292.0113h.3772c.7624-.0101 1.4242-.0011 1.7562.4665zm-8.3915 3.8129c.1504-.6161.2636-1.2407.3388-1.8703l.0407-.0283c.5218-.0745.6505-.0892 1.2164-.2044l.0429.0531-.0813.3151c.0937-.0576.1886-.113.2835-.1638.2272-.1077.4747-.1658.7262-.1705.136-.004.271.0255.393.0858.1108.0575.1968.1535.2417.2699.105.2564.0339.5647-.1129 1.1893l-.0712.3162c-.148.689-.1694.8155-.2496 1.2887l-.0542.0407c-.1988 0-.3388 0-.4811 0-.1807 0-.3592.009-.6574.0248l-.0192-.0406c.0452-.2022.096-.3999.1435-.6032l.061-.2755c.0872-.3549.1555-.7142.2044-1.0764.0102-.0903.0418-.3185-.218-.3185-.1196.0136-.235.052-.3388.113-.061.2259-.192.8662-.2553 1.1576-.1265.6133-.1366.6845-.1931.9871l-.0406.0407c-.4642-.0068-.6246-.0068-1.1611.0215l-.0237-.0463c.0915-.3761.1807-.7398.2654-1.1091zm.4518 2.8833-.2135.715h-1.6037l-.174.1502c-.0756.0723-.1016.0429-.1988.0948-.1626.0862-.3433.1327-.5274.1356h-.515l.2078-.6856h.1547c.0905.008.1815-.0059.2655-.0406.0738-.0611.1326-.1384.1716-.2259l.2971-.5365h1.1666l-.2055.3897zm-11.0773-2.1165c-.4021.2451-.995.3795-1.6286.3795-.4913 0-1.3553-.079-1.6636-.611-.1006-.1872-.15-.3975-.1435-.6099l.113-.8188.0564-.2507.6687-2.9546s.0316-.1626.0406-.1908c.0147.0203.2406.0316 1.5146.0203-.0019.0134-.0049.0266-.0091.0395-.1129.3467-.7714 2.9681-.7714 2.9681l-.1231.7838v.1322c.0396.3862.279.5895.6878.5895.2413.0069.4771-.0733.6641-.2259.331-.2676.4292-.6776.5647-1.2649 0 0 .6246-2.8789.6585-3.0381.087.0203.3603.0305 1.2841.0203-.0059.0125-.0101.0258-.0124.0395-.1129.3547-.7906 3.0765-.7906 3.0765l-.0757.2937c-.1569.567-.3388 1.2107-1.0345 1.6218zm4.7435-1.2943-.0722.3163c-.1446.6889-.1683.8154-.2496 1.2886l-.0531.0407c-.4518-.0079-.6122-.0079-1.1396.0214l-.0203-.0406c.0451-.2022.0948-.3998.1411-.6031l.0644-.2756c.0971-.4269.1931-.9239.2044-1.0763.0079-.0802.0339-.2677-.1411-.3095-.0255-.0062-.0517-.0092-.078-.009-.1195.0136-.2349.0521-.3388.1129-.0632.2259-.192.8663-.253 1.1577-.131.6132-.1389.6844-.1976.9871l-.0384.0406c-.4653-.0079-.628-.0079-1.1633.0215l-.0237-.0463c.0892-.3637.1784-.7319.2631-1.0967.1516-.6158.2647-1.2404.3388-1.8703l.0441-.0282c.5229-.0746.6494-.0892 1.2152-.2044l.0475.053-.087.3151c.096-.0576.1875-.1129.2846-.1637.0568-.0277.1153-.0518.1751-.0723.1775-.0612.3634-.0943.5511-.0983.2485 0 .5196.0689.6336.3558.0994.2507.0283.5647-.1129 1.1836zm1.8941-.2021c-.0497.2179-.1028.4314-.1503.6449-.1016.4517-.1423.6256-.166.7488-.0237.1231-.0305.1784-.07.4133l-.026.0215-.0237.0192c-.2722 0-.4518-.0079-.6189 0-.1672.0079-.3388.0101-.5896.0214l-.0135-.0214-.0158-.0237c.0378-.151.0845-.2996.14-.445.0544-.1471.0974-.2982.1288-.4518.079-.3456.1287-.5873.1603-.7996.0317-.2123.0565-.3795.0848-.5817l.0203-.0158.0214-.0192c.2711-.0372.4428-.0632.619-.0915.1761-.0282.3569-.0587.6381-.1129l.0101.0237.0079.026c-.0553.2123-.1095.4269-.1569.6438zm.0587-.925c-.2982.2089-.7477.253-.9984.1061-.2507-.1468-.2259-.4416.0802-.6449.306-.2033.7488-.2552 1.004-.105.2553.1502.2101.4348-.0892.6438zm.4009 1.2423c.096-.4167.2564-.8527.6031-1.1734.4823-.445 1.1001-.471 1.3553-.471.4315 0 .8471.0971 1.082.3987.1559.1965.279.5218.1209 1.2164-.0486.2089-.1898.7183-.4959 1.0605-.3975.4212-.9261.5647-1.4422.5647-.2492.0053-.4972-.0348-.7319-.1186-.7047-.2824-.5929-1.0481-.4992-1.4739zm2.4554 8.2549h-1.3237c-.1014-.0012-.2023-.0149-.3004-.0407-.044-.0091-.0855-.0275-.1217-.054-.0363-.0265-.0664-.0604-.0884-.0996-.0393-.0392-.0668-.0887-.0794-.1428-.0125-.0541-.0097-.1107.0083-.1632l.3794-1.2537h-.6505l.2157-.7172h.6528l.1739-.5839h-.6516l.2078-.6776h2.8653l-.2123.6776h-1.1441l-.1785.5839h1.1724l-.2146.7048h-1.1712l-.2846.9532c-.0339.1051.2789.1186.3919.1186l.585-.0802zm.7194-.0779c-.07-.0633-.1796-.148-.1773-.2327.0212-.1318.0514-.262.0903-.3896l1.4016-4.6476h1.0007l-.1457.5037c.1664-.1321.3466-.2457.5376-.3388.2358-.0687.4762-.1204.7194-.1547l1.6196-.0102-.5489 1.8376c-.0575.2165-.1486.4227-.2699.611-.0666.1072-.1611.1942-.2733.2519-.1156.066-.243.1089-.375.1264-.1073.008-.271.0102-.4992.0136h-1.5665l-.4393 1.4524c-.0418.1446-.061.2146-.0339.2541.0173.023.0399.0416.0658.0541.0259.0126.0545.0188.0833.0182l.6776-.0644-.236.7974h-.759c-.2451 0-.4235 0-.5478-.0147-.1242-.0147-.2428-.0011-.3275-.0643zm4.1404-1.8624c-.0224.1262-.085.2419-.1784.3298-.0719.0667-.1567.118-.2491.1509-.0925.0328-.1906.0464-.2885.0399l-.5557.0226v.4992c-.0068.1401.0316.1265.0542.1491.0207.0199.0453.0353.0723.0452l.1762-.0102.5308-.0294-.2202.7285h-.6088c-.4269 0-.7431-.0102-.8459-.0915s-.1129-.1468-.1129-.2868l.0384-1.946h.9633l-.0135.3987h.2394c.0574.0054.1151-.0048.1672-.0294.0333-.0249.0566-.061.0655-.1016l.0971-.3106h.7646zm3.4029 1.9346h-1.0424l.0712-.2315h-2.12l.2112-.6923h.2158l1.1102-3.6808.2259-.742h1.0627l-.1129.3738c.1688-.1188.3552-.2107.5523-.2721.2259-.0599 1.3191-.087 1.6862-.0949h1.1362l.0113.4224c-.0079.0723.0542.1062.1863.1062h.2259l-.2101.6979h-.6087c-.5297.0373-.7319-.1908-.7183-.4517l-.0113-.4145-.113.3727h-.3636l-1.0956 3.6254h.2959l-.2258.7477h-.2926zm4.6995-3.2188h-1.1429l-.1774.5647h1.1419l-.1909.6212h-1.2333l-.2191.2609h.5014l.122.7827c.0016.0564.0151.1118.0396.1626.0838.0322.1734.0464.2631.0418h.1525l-.2259.768h-.3863c-.0587 0-.1479 0-.271-.009-.0984-.0182-.1918-.0566-.2745-.113-.0521-.025-.0976-.062-.1327-.1079-.0352-.0459-.0589-.0995-.0694-.1564l-.1209-.7815-.5647.7691c-.0898.1363-.2131.2473-.358.3225-.1449.0751-.3067.1118-.4698.1067h-.785l.2056-.6776h.3004c.0793-.0024.1569-.0241.2259-.0633.069-.0269.1273-.0757.166-.1389l.8188-1.1531h-1.082l.1864-.6212h1.2367l.1751-.5647h-1.2288l.2078-.7014h3.3972zm.7183-2.1605-.0463.053h.0068l-.4393.7522c-.0774.1441-.1942.2632-.3369.3432-.1426.0801-.3051.1177-.4684.1086l-.698-.0124.2033-.6777h.1367c.0548.0044.1099-.0033.1615-.0226.0382-.0165.0699-.0451.0903-.0813l.2474-.3908c.3512-.5274.4382-.7555.8019-1.3553-.0644-.6776-.0949-.8911-.148-1.3327-.0316-.2631-.0734-.5319-.105-.7985-.0253-.2725-.0649-.5436-.1186-.812v-.0079c.0016-.0198.0046-.0394.009-.0587l.0418-.0384c.5399-.0689.5534-.087 1.1384-.1999l.0486.0497.0779 1.5021v.0847c.3106-.6924.2993-.5026.6777-1.3836v.0091c.0026-.0077.0045-.0157.0056-.0237l.0384-.0384c.5128-.0689.6133-.087 1.1712-.1999l.043.0497s-2.2476 3.849-2.5424 4.4848z"/><path d="m34.8098 22.2604-.2812.9261c.1587-.072.3212-.1353.4867-.1897.1431-.0322.2885-.0526.4349-.061l.2044-.6777z"/><path d="m33.7109 25.8937h.8471l.2428-.8131h-.8437z"/><path d="m37.2594 19.5442c.0836-.0039.1656-.0247.2409-.0612.0754-.0365.1425-.0879.1973-.1511.0565-.0827.1013-.1728.1333-.2677.0373-.1525.0768-.3049.1129-.4585.0249-.1062.0452-.2.0644-.2892.0249-.3569-.0948-.5647-.3219-.5647-.3591 0-.498.4371-.6189.9532-.0445.1683-.0691.3411-.0734.5151.0079.3241.2248.3241.2654.3241z"/><path d="m34.0972 24.6096c.1602-.0821.3254-.1542.4947-.2157.1739-.0396.4393-.0735.4393-.0735l.2055-.6776h-.8481z"/><path d="m33.9548 15.5235v.0632l-.0124.0825-.3705 1.6128-.0146.0813h.2021c.3117 0 .6144-.0102.8617-.1344.1561-.0806.2921-.195.3982-.3349s.1796-.3018.2151-.4738c.087-.3941-.0373-.6968-.3388-.8143l-.7906-.0666z"/><path d="m30.5078 22.6919c.1243-.0237.9035-.0158.9035-.0158l.1198-.3931h-1.6535l-.1423.4732-.0971.3242.0271-.0226c.2464-.1896.5358-.3153.8425-.3659z"/><path d="m30.8671 23.7095c.072-.0078.1447-.0078.2168 0l.1051-.3276h-1.6411l-.1005.331h1.4197z"/></g></svg>