<svg fill="none" height="18" viewBox="0 0 43 18" width="43" xmlns="http://www.w3.org/2000/svg" xmlns:xlink="http://www.w3.org/1999/xlink"><clipPath id="a"><path d="m0 0h43v18h-43z"/></clipPath><g clip-path="url(#a)" fill="#fff"><g clip-rule="evenodd" fill-rule="evenodd"><path d="m2.81956 16.4495c-.53179 0-.80271-.2747-.80271-.7263 0-.8421.89502-1.1253 2.52752-1.3074 0 1.1221-.72344 2.0337-1.72983 2.0337zm.70237-6.3105c-1.16694 0-2.50846.5758-3.236916 1.1852l.665243 1.4737c.583973-.561 1.528153-1.041 2.380023-1.041.80973 0 1.25724.2842 1.25724.8568 0 .3842-.296.579-.85589.6558-2.09305.2842-3.73358312.8905-3.73358312 2.5821 0 1.3411.91006812 2.1526 2.33186312 2.1526 1.01542 0 1.91847-.5915 2.34791-1.3684v1.1579h1.89238v-4.8516c0-2-1.32346-2.8073-3.04727-2.8073z"/><path d="m22.5149 10.3569v7.4274h2.0248v-3.579c0-1.7.9813-2.2 1.6646-2.2.3076-.0025.609.0909.8659.2684l.3703-1.9631c-.2869-.1205-.5941-.1789-.9031-.1716-1.0405 0-1.6947.4831-2.1261 1.4663v-1.2484z"/><path d="m36.8242 10.1389c-1.0706 0-1.8713.6632-2.2877 1.3032-.3863-.8263-1.2041-1.3032-2.1874-1.3032-1.0696 0-1.8111.6232-2.1532 1.3411v-1.1232h-1.9526v7.4274h2.0268v-3.8242c0-1.3685.6853-2.0306 1.3245-2.0306.5789 0 1.1107.3927 1.1107 1.4064v4.4484h2.0229v-3.8242c0-1.3885.6682-2.0306 1.3375-2.0306.5358 0 1.1037.4085 1.1037 1.3916v4.4632h2.0228v-5.1348c0-1.6684-1.0706-2.5105-2.364-2.5105"/><path d="m17.5873 10.3569h-1.8342v-.75478c0-.98316.5348-1.26316.9953-1.26316.3145.00431.6237.0854.9031.23684l.6241-1.49789s-.6332-.43368-1.784-.43368c-1.2934 0-2.7654.76526-2.7654 3.16631v.54636h-3.0653v-.75478c0-.98316.5338-1.26316.9954-1.26316.315-.00002.6251.08132.903.23684l.6241-1.49789c-.3722-.22842-.9713-.43368-1.783-.43368-1.2934 0-2.76531.76526-2.76531 3.16631v.54636h-1.17196v1.6379h1.17497v5.7894h2.0228v-5.7894h3.0694v5.7894h2.0228v-5.7894h1.8342z"/></g><path d="m20.8162 10.3569h-2.0208v7.4242h2.0208z"/><path clip-rule="evenodd" d="m18.8696 9.09477h1.9797c1.1549-3.80947 5.0731-7.1579 9.7328-7.1579 5.6672 0 10.5647 4.52632 10.5647 11.57263.0172 1.4464-.1722 2.8873-.5619 4.2747h1.9215l.019-.0694c.3238-1.3736.4836-2.7841.4756-4.199 0-7.85787-5.4584-13.51366377-12.4148-13.51366377-5.4645 0-10.3349 3.97894377-11.7156 9.09474377z" fill-rule="evenodd"/></g></svg>