<svg fill="none" height="17" viewBox="0 0 26 17" width="26" xmlns="http://www.w3.org/2000/svg" xmlns:xlink="http://www.w3.org/1999/xlink"><clipPath id="a"><path d="m0 0h26v17h-26z"/></clipPath><g clip-path="url(#a)" clip-rule="evenodd" fill="#fff" fill-rule="evenodd"><path d="m18.7151 11.1053c.5144.1499 1.0518.228 1.5974.228 1.3562 0 2.6625-.4826 3.6875-1.35235v5.33485c0 .7916-.8938 1.6842-1.6552 1.6842h-20.68963c-.761377 0-1.65517-.8926-1.65517-1.6842v-12.63159c0-.79158.893793-1.68421 1.65517-1.68421h15.43093c-.2827.19403-.5491.41448-.7953.65973-1.0666 1.0627-1.6658 2.50404-1.6658 4.00694 0 1.03437.2838 2.03959.8086 2.91228h-12.95084c-.52966 0-.82759.28631-.82759.8421v.84215c0 .5557.29793.8421.82759.8421z" fill-opacity=".2"/><path d="m14.8621 4.04785h-14.8621v2.42857h14.6833c-.0386-.26655-.0583-.53702-.0583-.80951 0-.5533.0812-1.09826.2371-1.61906z" fill-opacity=".3"/><path d="m20.3125 11.3333c-1.5084 0-2.9551-.597-4.0217-1.65969-1.0666-1.06271-1.6658-2.50405-1.6658-4.00694 0-1.5029.5992-2.94424 1.6658-4.00694 1.0666-1.062708 2.5133-1.65973 4.0217-1.65973s2.9551.597022 4.0217 1.65973c1.0666 1.0627 1.6658 2.50404 1.6658 4.00694 0 1.50289-.5992 2.94423-1.6658 4.00694-1.0666 1.06269-2.5133 1.65969-4.0217 1.65969zm-2.2587-8.01425h-.6419l-1.5681.79333v.80953l1.2431-.64762v3.74h.975v-4.69524zm1.8687.64762c.4631 0 .7881.25904.7881.63143 0 .40476-.3818.68809-.9343.68809h-.2438v.6881h.2925c.585 0 .9831.29143.9831.71238 0 .40476-.39.68-.9425.68-.4062 0-.8125-.12953-1.235-.38048v.80952c.455.19429.91.29953 1.3569.29953 1.0644 0 1.7956-.54238 1.7956-1.32762 0-.55048-.3412-.99572-.91-1.17381.4875-.1619.8044-.59095.8044-1.07667 0-.76095-.6744-1.27904-1.6494-1.27904-.4395.00485-.8734.09849-1.2756.27523v.79334c.39-.21857.7881-.34 1.17-.34zm3.51 1.76476c.5931 0 1.0075.34809 1.0075.80143 0 .47762-.4144.80952-1.0075.80952-.3575 0-.7312-.11333-1.1131-.34809v.83381c.3981.17809.8044.26714 1.2025.26714.2112 0 .4062-.03238.5931-.08095.4225-.6881.6663-1.48143.6663-2.33143l-.0163-.34c-.3021-.17816-.6484-.26794-.9994-.25905-.1462 0-.3006.0081-.4631.03238v-1.05238h1.17c-.1015-.25912-.2266-.50841-.3737-.74476h-1.6413v2.55c.325-.08095.65-.13762.975-.13762z" fill-opacity=".6"/></g></svg>