<svg fill="none" height="16" viewBox="0 0 20 16" width="20" xmlns="http://www.w3.org/2000/svg"><g clip-rule="evenodd" fill-rule="evenodd"><path d="m0 2.81071c0-.44592.280215-.81071.622759-.81071h18.754441c.3426 0 .6228.36479.6228.81071v10.37859c0 .4459-.2802.8107-.6228.8107h-18.754441c-.342544 0-.622759-.3648-.622759-.8107z" fill="#f0a929"/><path d="m0 4h20v8h-20z" fill="#fff"/><g fill="#e21c2a"><path d="m16.9433 6.22731c-.9147 0-1.6603.75345-1.6603 1.67761 0 .92381.7456 1.67737 1.6603 1.67737.9146 0 1.6603-.75356 1.6603-1.67737 0-.92416-.7457-1.67761-1.6603-1.67761z"/><path d="m3.25785 6.22731c-.9148 0-1.66056.75345-1.66056 1.67761 0 .92381.74576 1.67737 1.66056 1.67737.91439 0 1.66017-.75356 1.66017-1.67737 0-.92416-.74578-1.67761-1.66017-1.67761z"/><path d="m16.8132 4.75093c-1.5371-.03568-2.2597.96007-3.3084 2.18823l-.9894 1.15836 1.5667 1.89484c.3732.58224-.3392 1.16004-.7811.62724l-1.4485-1.74561-1.4114 1.65311c-.44945.5262-1.15371-.0617-.7725-.63842l1.5322-1.80015-1.0038-1.20983.6457-.80796 1.0209 1.23897.88-1.03421c.4318-.50708.8722-1.17904 1.4429-1.52457h-14.1865v6.54827h3.31686c1.53723 0 2.23506-.9286 3.25539-2.18077l.96276-1.18145-1.60975-1.85757c-.38609-.57341.31271-1.16748.76679-.64525l1.4877 1.71154 1.37372-1.68562c.43722-.53678 1.15453.03478.78673.62031l-1.49082 1.83553 1.03125 1.18616-.64976.77737-1.02646-1.16963-.85605 1.05418c-.42018.517-.84551 1.1764-1.40831 1.5352h14.05285v-6.54827zm-10.93215 3.15397c0 1.4598-1.17817 2.6502-2.62299 2.6502-1.44519 0-2.623349-1.1904-2.623349-2.6502 0-1.46004 1.178159-2.65038 2.623349-2.65038 1.44482 0 2.62299 1.19034 2.62299 2.65038zm11.06245 2.6502c-1.4449 0-2.6234-1.1904-2.6234-2.6502 0-1.46004 1.1785-2.65038 2.6234-2.65038 1.445 0 2.6231 1.19034 2.6231 2.65038 0 1.4598-1.1781 2.6502-2.6231 2.6502z"/></g></g></svg>