<svg fill="none" height="40" viewBox="0 0 56 40" width="56" xmlns="http://www.w3.org/2000/svg" xmlns:xlink="http://www.w3.org/1999/xlink"><linearGradient id="a" gradientUnits="userSpaceOnUse" x1="41.5" x2="23.6934" y1="7" y2="39.8045"><stop offset="0" stop-color="#002253"/><stop offset=".427311" stop-color="#0082b1"/><stop offset=".554805" stop-color="#2f92a8"/><stop offset="1" stop-color="#0e9641"/></linearGradient><clipPath id="b"><path d="m10 7h36v26h-36z"/></clipPath><g clip-path="url(#b)"><path d="m46 7h-36v26h36z" fill="#fff"/><path d="m11.2177 8.22705h33.5643v23.544h-33.5643z" fill="url(#a)"/><g fill="#fff"><path d="m41.3839 16.9111c0-.3854-.0747-.7707-.2242-1.1434-.1433-.3537-.3613-.6695-.6416-.9412-.3115-.3032-.6479-.5116-1.0217-.6317-.3675-.12-.8721-.1768-1.5137-.1768h-8.5655v2.8994 2.8994h8.5717c.6354 0 1.14-.0568 1.5138-.1769.3675-.12.7101-.3284 1.0216-.6316.2803-.2717.4921-.5875.6416-.9412.1433-.3854.218-.7707.218-1.156z"/><path d="m41.3839 23.4869c0-.3917-.0747-.7707-.2242-1.1434-.1433-.3537-.3613-.6695-.6416-.9412-.3115-.3032-.6479-.5116-1.0217-.6316-.3675-.1201-.8721-.1832-1.5137-.1832h-8.5655v2.9057 2.9057h8.5717c.6354 0 1.14-.0631 1.5138-.1832.3675-.12.7101-.3347 1.0216-.6316.2803-.2717.4921-.5875.6416-.9476.1433-.379.218-.758.218-1.1496z"/><path d="m28.6448 19.8105c-.1745-3.7459-2.8282-6.1652-7.0082-6.1652-4.317 0-7.0206 2.5899-7.0206 6.5632 0 4.0996 2.8157 6.5631 7.0206 6.5631 4.2111 0 6.8462-2.432 7.0082-6.1841h-6.7901v-.7707h6.7901z"/></g></g></svg>