<svg fill="none" height="40" viewBox="0 0 56 40" width="56" xmlns="http://www.w3.org/2000/svg"><path clip-rule="evenodd" d="m44.782 8.22705h-33.5643v23.54405h33.5643zm-3.6223 7.54065c.1495.3727.2242.758.2242 1.1434 0 .3853-.0747.7706-.218 1.156-.1495.3537-.3613.6695-.6416.9412-.3115.3032-.6541.5116-1.0216.6316-.3738.1201-.8784.1769-1.5138.1769h-8.5717v-2.8994-2.8994h8.5655c.6416 0 1.1462.0568 1.5137.1768.3738.1201.7102.3285 1.0217.6317.2803.2717.4983.5875.6416.9412zm.2242 7.7192c0-.3917-.0747-.7707-.2242-1.1434-.1433-.3537-.3613-.6695-.6416-.9412-.3115-.3032-.6479-.5116-1.0217-.6316-.3675-.1201-.8721-.1832-1.5137-.1832h-8.5655v2.9057 2.9057h8.5717c.6354 0 1.14-.0631 1.5138-.1832.3675-.12.7101-.3347 1.0216-.6316.2803-.2717.4921-.5875.6416-.9476.1433-.379.218-.758.218-1.1496zm-19.7473-9.8416c4.18 0 6.8337 2.4193 7.0082 6.1652v.0063h-6.7901v.7707h6.7901c-.162 3.7522-2.7971 6.1841-7.0082 6.1841-4.2049 0-7.0206-2.4635-7.0206-6.5631 0-3.9733 2.7036-6.5632 7.0206-6.5632z" fill="#fff" fill-rule="evenodd"/></svg>