<svg fill="none" height="16" viewBox="0 0 24 16" width="24" xmlns="http://www.w3.org/2000/svg"><path d="m4.70006.00006104h5.99034c.8361 0 1.3562.72639596 1.1612 1.62053896l-2.78895 12.7614c-.19682.891-1.03403 1.6181-1.87081 1.6181h-5.98971c-.835027 0-1.356278-.7271-1.1612101-1.6181l2.7900801-12.7614c.19507-.894143 1.03184-1.62053896 1.86906-1.62053896z" fill="#dd2423"/><path d="m10.192.00006104h6.8887c.836 0 .459.72639596.2624 1.62053896l-2.7885 12.7614c-.1957.891-.1346 1.6181-.9724 1.6181h-6.88872c-.8378 0-1.35628-.7271-1.15946-1.6181l2.78833-12.7614c.19799-.894143 1.03301-1.62053896 1.86965-1.62053896z" fill="#16315e"/><path d="m16.8074.00006104h5.9903c.8374 0 1.3575.72639596 1.1608 1.62053896l-2.7885 12.7614c-.1968.891-1.0346 1.6181-1.8718 1.6181h-5.9875c-.8378 0-1.3575-.7271-1.1612-1.6181l2.7889-12.7614c.195-.894143 1.0312-1.62053896 1.869-1.62053896z" fill="#036862"/><path d="m6.26455 4.08973c-.61601.00669-.79794 0-.85605-.01463-.02234.11313-.43803 2.15678-.4392 2.1585-.0895.41346-.15462.70818-.37582.8985-.12557.11064-.27216.16401-.44212.16401-.27318 0-.43233-.14456-.45905-.41875l-.00511-.09414s.08323-.55383.08323-.55694c0 0 .43627-1.86236.51439-2.10854.00408-.014.00525-.02132.00627-.02801-.84918.00794-.99972 0-1.01008-.01463-.0057.02008-.02672.13554-.02672.13554l-.44548 2.09905-.03825.17802-.07403.5823c0 .17273.03183.31371.0952.43291.20295.37798.78188.43462 1.10938.43462.42196 0 .81779-.09554 1.08528-.26998.46431-.2924.58578-.74943.69412-1.15558l.05023-.20836s.44941-1.93425.52578-2.18588c.00292-.014.00409-.02132.00803-.02801zm1.5291 1.56038c-.10834 0-.30632.02801-.48416.12091-.06454.03533-.12557.0761-.18996.11671l.05811-.22361-.03183-.03766c-.37714.08139-.46153.09228-.80991.14456l-.0292.0207c-.04044.35744-.07636.62618-.22631 1.32877-.05709.25894-.11637.52036-.1758.77868l.01606.03283c.357-.02007.46533-.02007.7756-.01462l.02512-.0291c.03942-.21521.04453-.26563.13184-.7015.04103-.20665.12659-.66073.16879-.82241.07753-.03828.15404-.07594.22704-.07594.1739 0 .15273.16168.14601.22611-.00745.10815-.07081.46139-.13579.76467l-.04336.19576c-.03023.14457-.06337.28508-.0936.4284l.01315.02863c.35188-.02007.45919-.02007.75968-.01462l.03533-.0291c.05432-.33612.07023-.42607.1666-.91547l.04847-.22486c.09418-.44007.14149-.66321.07023-.84497-.07534-.20369-.25609-.25287-.42211-.25287zm1.70819.46075c-.18704.03828-.30633.0638-.42489.0803-.11753.02007-.23215.03828-.41291.06505l-.01431.01385-.01314.01104c-.01883.14348-.03198.2675-.05694.41331-.02117.15079-.05373.32211-.10674.56829-.04102.18845-.0622.25412-.08556.32041-.02277.06629-.04789.13071-.09403.31604l.01081.01712.00905.01572c.16893-.00856.27946-.01463.39306-.01572.11344-.00436.23098 0 .41291.00109l.01591-.01385.01709-.01525c.02628-.16713.03022-.2121.04628-.29364.01592-.08745.04337-.20852.11068-.53188.03183-.15188.06731-.30329.1003-.45828.03432-.15436.07023-.30639.1044-.45827l-.00511-.01836zm.00398-.62123c-.16995-.1069-.46825-.07298-.66901.07469-.20018.14472-.22295.35013-.05358.45844.16703.10395.46649.07298.6655-.07594.19974-.14783.22471-.35137.05709-.45719zm1.02788 2.47586c.3438 0 .6963-.10099.9616-.4007.2041-.24306.2977-.60471.3301-.75363.1056-.4936.0234-.72406-.0799-.86442-.1568-.21397-.4339-.28259-.7214-.28259-.1729 0-.5846.01821-.9063.33425-.23097.22797-.3377.53733-.40209.83393-.06497.30219-.13973.84621.32969 1.04866.1448.0663.3536.0845.4883.0845zm-.0269-1.1106c.0793-.37378.1729-.68749.4117-.68749.1872 0 .2008.23342.1176.60844-.0149.08325-.0833.39276-.1757.52457-.0645.09725-.1409.15623-.2253.15623-.0251 0-.1745 0-.1768-.23637-.0012-.11671.0212-.23591.0485-.36538zm2.1781 1.06253.0269-.0291c.0381-.21521.0444-.26578.1288-.70149.0422-.20666.1295-.66073.1705-.82241.0777-.03844.1529-.0761.2282-.0761.1728 0 .1517.16168.1449.22611-.0063.1083-.0697.46139-.1358.76467l-.041.19576c-.0314.14472-.0656.28508-.0958.42856l.0131.02863c.3531-.02007.4563-.02007.7585-.01463l.0365-.0291c.053-.33627.0673-.42622.1666-.91546l.0473-.22501c.0947-.44007.1425-.66307.0725-.84482-.0776-.2037-.2595-.25287-.4232-.25287-.1085 0-.3075.02785-.4843.12091-.0632.03532-.1266.07594-.1888.11671l.0542-.22361-.0291-.03782c-.377.08154-.4631.09244-.811.14472l-.0268.0207c-.0422.35744-.0765.62602-.2264 1.32877-.0571.25893-.1164.52036-.1757.77868l.016.03283c.3575-.02007.4643-.02007.7739-.01463zm2.594.01455c.0222-.11546.154-.79984.1552-.79984 0 0 .1123-.50216.1191-.52037 0 0 .0353-.05228.0707-.07298h.052c.4904 0 1.0442 0 1.4783-.34032.2954-.23342.4973-.5781.5874-.99701.0234-.1027.0406-.22486.0406-.34701 0-.16044-.0302-.31916-.1176-.44318-.2213-.33006-.6621-.33612-1.1709-.33861-.0017 0-.2509.00249-.2509.00249-.6513.00855-.9125.00606-1.0199-.00794-.009.05057-.0261.14052-.0261.14052s-.2333 1.15246-.2333 1.15432c0 0-.5584 2.45027-.5846 2.56573.5687-.00731.8018-.00731.9.0042zm.4323-2.04723s.2481-1.15012.2469-1.14576l.008-.05898.0035-.04497.0992.01089s.5116.04684.5236.04808c.2019.08326.2851.29784.227.57795-.053.25598-.2088.47119-.409.57514-.1648.08807-.3667.09539-.5748.09539h-.1346zm1.5445.99145c-.0655.29784-.1409.84186.3262 1.03576.1489.06753.2824.08761.418.08029.1433-.00825.276-.08481.3989-.19498-.0111.04528-.0222.09057-.0333.136l.0212.0291c.336-.01509.4402-.01509.8042-.01213l.033-.02677c.0532-.33301.1033-.65637.2414-1.29344.0673-.30516.1345-.60736.2035-.91127l-.0108-.03345c-.3758.07422-.4763.0901-.8378.14472l-.0274.0238c-.0037.03097-.0075.06069-.011.09042-.0562-.0968-.1377-.17942-.2634-.23093-.1607-.06738-.5383.01945-.8629.33441-.2281.22486-.3376.53297-.3998.82847zm.7894.01821c.0804-.36709.1728-.67769.4123-.67769.1514 0 .2311.14892.2149.40288-.0128.06333-.0267.13009-.0432.20556-.024.10909-.0499.21724-.0752.32554-.0257.07407-.0556.14394-.0885.19047-.0616.09306-.2082.15079-.2926.15079-.0239 0-.1717 0-.1768-.23217-.0012-.11562.0212-.23467.0491-.36538zm4.1219-1.21208-.0291-.03532c-.3719.0803-.4392.09306-.7809.14223l-.0251.02677c-.0011.00435-.0022.01104-.0039.01711l-.0012-.00607c-.2543.62541-.2469.49049-.4539.98285-.0012-.02241-.0012-.03642-.0024-.06022l-.0518-1.06735-.0325-.03532c-.3896.0803-.3988.09306-.7586.14223l-.028.02677c-.0039.01276-.0039.02676-.0063.04201l.0024.00545c.0449.24493.0341.19031.0792.57685.0211.18969.0491.38047.0701.56783.0355.31356.0554.46792.0987.94643-.2429.42731-.3005.58899-.5344.96401l.0016.00374-.1647.27761c-.0188.02925-.0359.04933-.0598.05789-.0263.01385-.0605.01634-.1079.01634h-.0913l-.1356.48084.4653.00855c.2732-.00124.4449-.1374.5373-.3204l.2926-.53437h-.0046l.0308-.03766c.1968-.45158 1.694-3.1888 1.694-3.1888zm-4.9113 6.31508h-.1974l.7306-2.57549h.2424l.077-.26532.0074.29504c-.009.18238.1256.34406.4792.31729h.409l.1407-.49593h-.1539c-.0884 0-.1295-.02381-.1244-.07485l-.0074-.30018h-.7574v.00156c-.2448.00545-.976.02505-1.1241.06707-.1791.04917-.3679.19389-.3679.19389l.0742-.26563h-.7085l-.1476.52706-.7404 2.61489h-.1437l-.1409.4924h1.4111l-.0474.1641h.6953l.0462-.1641h.195zm-.5789-2.05217c-.1135.03346-.3246.13487-.3246.13487l.1878-.65819h.5628l-.1357.47959s-.1739.0109-.2903.04373zm.0108.94037s-.1768.0236-.2932.0517c-.1146.037-.3295.1537-.3295.1537l.1939-.685h.5658zm-.3154 1.1179h-.5646l.1637-.5781h.5628zm1.3597-1.5975h.8139l-.117.4037h-.8246l-.1238.4413h.7215l-.5463.8199c-.0383.0602-.0726.0815-.1107.0985-.0383.0207-.0885.045-.1466.045h-.2002l-.1375.4833h.5236c.2721 0 .4329-.132.5516-.3052l.3747-.5465.0804.5549c.0171.104.0872.1648.1346.1885.0524.028.1066.0761.1831.0832.0821.0038.1414.0067.1808.0067h.2572l.1545-.5409h-.1014c-.0583 0-.1586-.0104-.1757-.0299-.0171-.0236-.0171-.06-.0263-.1154l-.0816-.5562h-.3342l.1466-.1859h.823l.1266-.4413h-.762l.1187-.4037h.7597l.1409-.4978h-2.2649zm-6.8738 1.7099.19-.6735h.7807l.1426-.5009h-.7814l.1193-.4145h.7636l.1415-.4851h-1.9107l-.1385.4851h.434l-.1157.4145h-.4353l-.14425.5095h.43395l-.2532.891c-.0342.118.0161.1629.0479.2177.0326.0534.0656.0887.1397.1088.0765.0182.129.0291.2002.0291h.8801l.1569-.5549-.3902.0571c-.0753 0-.284-.0097-.2612-.0839zm.0896-3.22408-.1979.38109c-.0423.08325-.0804.13492-.1147.15872-.0303.02008-.0901.02848-.1769.02848h-.1032l-.138.48753h.3429c.1648 0 .2914-.06442.3518-.09663.065-.03704.0821-.01587.1323-.06754l.1158-.1069h1.0705l.1421-.50761h-.7836l.1368-.27714zm1.5804 3.23388c-.0182-.028-.0051-.0773.0228-.18l.2926-1.0322h1.0409c.1517-.0024.2612-.0042.3325-.0097.0765-.0085.1597-.0376.2504-.0899.0935-.0548.1414-.1125.1819-.1788.0451-.0661.1175-.2109.1797-.434l.3678-1.30622-1.0802.00669s-.3326.05229-.479.11002c-.1478.06443-.3589.24431-.3589.24431l.0975-.35806h-.6672l-.9342 3.30196c-.0331.1282-.0553.2212-.0605.2771-.0017.0602.0713.1198.1186.1648.0559.045.1386.0377.2179.045.0833.0067.2019.0109.3656.0109h.5128l.1574-.5665-.4591.0463c-.0491 0-.0845-.0281-.0993-.0517zm.5042-1.9094h1.0933l-.0695.2322c-.0098.0055-.0331-.0115-.1444.0025h-.9467zm.219-.77864h1.1025l-.0793.27963s-.5196-.00545-.6028.01089c-.3662.06754-.5801.27602-.5801.27602zm.8293 1.78834c-.0091.0347-.0234.0559-.0434.0717-.0222.0153-.0581.0207-.1117.0207h-.1558l.0092-.2827h-.648l-.0263 1.3823c-.001.0997.0081.1575.0766.2037.0684.0577.2794.065.5634.065h.4061l.1465-.5174-.3534.0207-.1176.0073c-.016-.0073-.0314-.014-.0485-.0322-.0148-.0157-.04-.0061-.0359-.1058l.0028-.3543.3707-.0164c.2002 0 .2858-.0694.3588-.1355.0696-.0633.0924-.1362.1187-.2347l.0622-.3137h-.5095z" fill="#fefefe"/></svg>