<svg fill="none" height="16" viewBox="0 0 16 16" width="16" xmlns="http://www.w3.org/2000/svg" xmlns:xlink="http://www.w3.org/1999/xlink"><clipPath id="a"><path d="m0 0h16v16h-16z"/></clipPath><g clip-path="url(#a)"><path d="m0 2.56365c0-1.41639 1.14625-2.56365 2.56302-2.56365l10.87458.00005333c1.4156 0 2.5624 1.14726667 2.5624 2.56365667l-.0002 10.76189v.1112c0 1.4153-1.1467 2.5632-2.5624 2.5632h-10.87438c-1.41677 0-2.56302-1.1479-2.56302-2.5632z" fill="#fff"/><path d="m2.56302 0c-1.41677 0-2.56302 1.14726-2.56302 2.56365v10.87315c0 1.4153 1.14625 2.5632 2.56302 2.5632h10.87438c1.4157 0 2.5624-1.1479 2.5624-2.5632v-.1112c-.0476-.0199-4.1582-1.7344-6.24744-2.7391-1.40953 1.7346-3.22761 2.787-5.11527 2.787-3.19199 0-4.275948-2.7936-2.76454-4.63261.32955-.40085.89015-.78385 1.76021-.99825 1.36109-.33442 3.5272.20881 5.55742.87878.36518-.67275.6724-1.41366.90122-2.20252h-6.25643v-.63366h3.22608v-1.13618h-3.90736v-.63419h3.90736v-1.62076s0-.27302.27667-.27302h1.57708v1.89378h3.8628v.63419h-3.8628v1.13617h3.153c-.3017 1.23607-.7598 2.37384-1.3349 3.37262.957.34614 1.8159.67446 2.4561.88885 2.1353.7145 2.7338.8018 2.811.811v-8.29399c0-1.41639-1.1468-2.56365667-2.5624-2.56365667h-10.8744zm1.75457 8.66889c-.13702.00158-.27465.00904-.41331.0227-.3997.0402-1.15016.2166-1.56044.57948-1.22973 1.07253-.49371 3.03313 1.99524 3.03313 1.44683 0 2.89246-.925 4.02809-2.40614-1.46407-.71441-2.72513-1.24455-4.0496-1.22919z" fill="#00a1e9"/></g></svg>