<svg fill="none" height="25" viewBox="0 0 72 25" width="72" xmlns="http://www.w3.org/2000/svg"><g fill="#fff" fill-opacity=".3"><path d="m36.3783 4.17072c0-1.128.9504-2.0448 2.0688-2.0448s2.0688.9216 2.0688 2.0448-.9168 2.0688-2.0688 2.0688-2.0688-.9168-2.0688-2.0688z"/><path d="m30.2391 2.4139h3.6v20.16h-3.6z"/><path d="m40.2663 8.17391h-3.6288v14.39999h3.6288z"/><path d="m66.3543 14.8843c2.7312-1.68 4.5888-4.1808 5.3232-6.71517h-3.6288c-.9456 2.41917-3.1152 4.23837-5.5008 5.01117v-10.77117h-3.6288v20.15997h3.6288v-5.9952c2.7696.6912 4.9584 3.0864 5.7072 5.9952h3.6528c-.5568-3.0528-2.6448-5.9088-5.5536-7.6848z"/><path d="m46.6983 9.78673c.9504-1.2624 2.8032-1.99682 4.3056-1.99682 2.8032 0 5.1216 2.04962 5.1264 5.14559v9.6336h-3.6288v-8.832c0-1.272-.5664-2.7408-2.4048-2.7408-2.16 0-3.4032 1.9152-3.4032 4.1568v7.4256h-3.6288v-14.39518h3.6336z"/><path clip-rule="evenodd" d="m24.2583 12.4939c0 6.6275-5.3726 12.0001-12.0001 12.0001-6.62737 0-11.99996-5.3726-11.99996-12.0001 0-6.62737 5.37259-11.999942 11.99996-11.999942 6.6275 0 12.0001 5.372572 12.0001 11.999942zm-16.25299-7.19989h3.70079c.912 2.784 3.4512 5.20319 6.576 5.69279v3.0096c-3.12.4944-5.6592 2.9136-6.576 5.6976h-3.70079c.72-3.0096 2.81759-5.5824 5.45279-7.2-2.6304-1.6176-4.73279-4.19039-5.45279-7.19999z" fill-rule="evenodd"/></g></svg>