<svg fill="none" height="16" viewBox="0 0 24 16" width="24" xmlns="http://www.w3.org/2000/svg"><path d="m22 0h-20c-1.10457 0-2 .89543-2 2v12c0 1.1046.89543 2 2 2h20c1.1046 0 2-.8954 2-2v-12c0-1.10457-.8954-2-2-2z" fill="#252525"/><path d="m9 13c2.7614 0 5-2.2386 5-5 0-2.76142-2.2386-5-5-5-2.76142 0-5 2.23858-5 5 0 2.7614 2.23858 5 5 5z" fill="#eb001b"/><path d="m15 13c2.7614 0 5-2.2386 5-5 0-2.76142-2.2386-5-5-5s-5 2.23858-5 5c0 2.7614 2.2386 5 5 5z" fill="#0b9bd7"/><path clip-rule="evenodd" d="m12 3.99963c1.2144.91221 2 2.36455 2 4.00037s-.7856 3.0882-2 4.0004c-1.2144-.9122-2-2.36458-2-4.0004s.7856-3.08816 2-4.00037z" fill="#7673c0" fill-rule="evenodd"/></svg>