<svg fill="none" height="16" viewBox="0 0 24 16" width="24" xmlns="http://www.w3.org/2000/svg"><path d="m22.2099 15.9999h-20.42198c-.46978.004-.92169-.1844-1.256572-.5231-.336538-.3404-.52743184-.8045-.53133951-1.2877l-.00000849-12.37609c.00391616-.48534.19481-.949396.531348-1.289794.334882-.338723.786782-.52713345 1.258712-.52314517l20.42204-.00000906c.4698-.00397922.9217.18443123 1.2565.52315423.3366.340398.5275.804454.5314 1.287694v12.38369c-.0061.5039-.2093.9579-.5339 1.2849-.323.3253-.7663.5246-1.2562.5204z" fill="#fff"/><path d="m22.2121 15.7499h-.0022-20.42198-.00212c-.40105.0034-.788418-.1573-1.076671-.4489-.289822-.2931-.455483-.6942-.459121-1.113-.000002-.0003-.000005-.0006-.000008-.0009v-12.37304c.003647-.42105.16941-.822035.459129-1.115078.288137-.29144.675461-.452329 1.078811-.44892v.000009h.00212 20.42204l.0021-.000018c.401-.003397.7884.157371 1.0767.448929.2897.293109.4554.694078.4591 1.112818v.00113 12.38007c-.0057.4369-.1818.8288-.4613 1.1103-.2783.2803-.6578.4502-1.0766.4466z" stroke="#000" stroke-opacity=".2" stroke-width=".5"/><path d="m12.6124 15.9999h9.3849c.5027.0001 1.0027-.0499 1.4527-.4999.5-.5.55-1 .55-1.4697s0-2.3586 0-2.3586c-3.5438 2.0343-7.3872 3.4951-11.3876 4.3282z" fill="#f27712" opacity=".5"/><path d="m23.1725 9.29649h-.8525l-.9599-1.2662h-.0911v1.2662h-.6952v-3.14482h1.0262c.8028 0 1.2663.33103 1.2663.92689 0 .48828-.2897.80276-.8111.90207zm-1.0262-2.1931c0-.30621-.2318-.46345-.6621-.46345h-.2152v.95173h.1986c.4469 0 .6787-.16552.6787-.48828zm-4.0056-.95172h1.9697v.52965h-1.2745v.70345h1.2248v.53793h-1.2248v.85242h1.2745v.52965h-1.9697zm-2.2344 3.22758-1.5062-3.23586h.7613l.9518 2.11862.96-2.11862h.7448l-1.5228 3.23586h-.3724zm-6.29797-.00827c-1.05931 0-1.8869-.72-1.8869-1.65517 0-.91035.84414-1.6469 1.90345-1.6469.29793 0 .54622.05793.85242.19034v.72828c-.2319-.22782-.5439-.35559-.86897-.35586-.66207 0-1.1669.48-1.1669 1.08414 0 .63724.49655 1.09241 1.2 1.09241.31448 0 .55447-.09931.83587-.34759v.72828c-.3145.13241-.57932.18207-.86897.18207zm-2.10207-1.03449c0 .61242-.50483 1.03449-1.23311 1.03449-.52965 0-.91034-.18207-1.2331-.59586l.45517-.38897c.15724.28138.42207.42207.75311.42207.31448 0 .53793-.19035.53793-.43862 0-.14069-.06621-.24828-.2069-.33104-.15426-.07485-.3149-.13579-.48-.18207-.65379-.20689-.87724-.43034-.87724-.86896 0-.5131.48-.90207 1.10897-.90207.39724 0 .7531.12414 1.05103.35586l-.36414.4138c-.14432-.15822-.3486-.24835-.56276-.24828-.29793 0-.5131.14897-.5131.34759 0 .16551.12414.25655.53793.39724.79448.24827 1.02621.48 1.02621.9931zm-3.41793-2.18482h.69517v3.1531h-.69517zm-2.23449 3.1531h-1.026203v-3.1531h1.026203c1.12552 0 1.90345.64551 1.90345 1.57241 0 .47173-.23172.91862-.63724 1.21655-.34759.24828-.73655.36414-1.27448.36414zm.81104-2.3669c-.23173-.18206-.49655-.24827-.95173-.24827h-.19034v2.08552h.19034c.4469 0 .72828-.08276.95173-.24828.24-.19862.38069-.49655.38069-.80276s-.14069-.59586-.38069-.78621z" fill="#000"/><path d="m12.4137 6.06891c-.9103 0-1.6552.72827-1.6552 1.63034 0 .96.7118 1.68 1.6552 1.68.9269 0 1.6552-.72827 1.6552-1.65517s-.72-1.65517-1.6552-1.65517z" fill="#f27712"/></svg>