<svg fill="none" height="16" viewBox="0 0 16 16" width="16" xmlns="http://www.w3.org/2000/svg"><path clip-rule="evenodd" d="m8.00061 6.58533 4.59199-4.59197c.3909-.39089 1.0246-.39089 1.4155 0s.3909 1.02464 0 1.41552l-4.59132 4.59132 4.59132 4.5913c.3909.3909.3909 1.0246 0 1.4155s-1.0246.3909-1.4155 0l-4.59199-4.59194-4.59197 4.59194c-.39089.3909-1.02464.3909-1.41552 0-.39089-.3909-.39089-1.0246 0-1.4155l4.59131-4.5913-4.59131-4.59132c-.39089-.39088-.39089-1.02463 0-1.41552.39088-.39089 1.02463-.39089 1.41552 0z" fill="#000" fill-rule="evenodd"/></svg>