<svg fill="none" height="17" viewBox="0 0 26 17" width="26" xmlns="http://www.w3.org/2000/svg"><path d="m21.9574 1h-19.91485c-1.128068 0-2.04255.92432-2.04255 2.06452v11.87098c0 1.1402.914482 2.0645 2.04255 2.0645h19.91485c1.1281 0 2.0426-.9243 2.0426-2.0645v-11.87098c0-1.1402-.9145-2.06452-2.0426-2.06452z" fill="#fff"/><path d="m2.04255 1.25h19.91485c.9875 0 1.7926.80986 1.7926 1.81452v11.87098c0 1.0046-.8051 1.8145-1.7926 1.8145h-19.91485c-.98748 0-1.79255-.8099-1.79255-1.8145v-11.87098c0-1.00466.80507-1.81452 1.79255-1.81452z" stroke="#000" stroke-opacity=".2" stroke-width=".5"/><path d="m2.82577 6.94394c-.53427-.29619-1.14403-.5344-1.82577-.69971l.0286-.12874h2.79521c.37888.01342.68631.12865.78635.53557l.60747 2.92736.1861.88168 1.70143-4.34461h1.83709l-2.7308 6.36451h-1.83719zm7.46783 5.54286h-1.73735l1.08666-6.37131h1.73729zm6.298-6.21555-.2363 1.37581-.1571-.06766c-.3144-.12882-.7293-.25756-1.2942-.24395-.6859 0-.9935.27773-1.0006.54889 0 .29828.3721.49485.9797.78637 1.001.45413 1.4653 1.00987 1.4584 1.73519-.0141 1.3217-1.2009 2.1758-3.0238 2.1758-.7794-.0068-1.5302-.163-1.9376-.339l.2431-1.4303.2287.1018c.5648.2375.9365.3389 1.6301.3389.5002 0 1.0365-.1967 1.0434-.6235 0-.278-.2285-.4815-.9007-.79326-.6576-.30512-1.5369-.81339-1.5226-1.72849.0074-1.24031 1.2156-2.10785 2.9313-2.10785.672 0 1.2155.14234 1.5582.27125zm2.3091 3.95845h1.444c-.0714-.31858-.4004-1.84366-.4004-1.84366l-.1214-.54899c-.0858.2372-.2358.62358-.2286.60998 0 0-.5505 1.41661-.6936 1.78267zm2.1445-4.11421 1.4016 6.37121h-1.6086s-.1574-.732-.2073-.9557h-2.2306c-.0645.1693-.3646.9557-.3646.9557h-1.823l2.5806-5.84258c.1788-.4135.4937-.52863.9081-.52863z" fill="#1434cb"/></svg>