<svg fill="none" height="12" viewBox="0 0 12 12" width="12" xmlns="http://www.w3.org/2000/svg" xmlns:xlink="http://www.w3.org/1999/xlink"><clipPath id="a"><path d="m0 0h12v12h-12z"/></clipPath><g clip-path="url(#a)"><path d="m6 12c3.28235 0 6-2.71765 6-6 0-3.27647-2.72353-6-6.00588-6-3.27647 0-5.99412 2.72353-5.99412 6 0 3.28235 2.72353 6 6 6zm0-1c-2.77647 0-4.99412-2.22353-4.99412-5 0-2.77059 2.21177-5 4.98824-5s4.99998 2.22941 5.00588 5c.0059 2.77647-2.22353 5-5 5zm-.05294-7.09412c.42941 0 .76471-.34117.76471-.7647 0-.42942-.3353-.77059-.76471-.77059-.42353 0-.76471.34117-.76471.77059 0 .42353.34118.7647.76471.7647zm-.97647 5.32941h2.39412c.24117 0 .42941-.17058.42941-.41176 0-.22941-.18824-.41176-.42941-.41176h-.72942v-2.99412c0-.31765-.15882-.52941-.45882-.52941h-.99412c-.24117 0-.42941.18235-.42941.41176 0 .24118.18824.41176.42941.41176h.51765v2.70001h-.72941c-.24118 0-.42941.18235-.42941.41176 0 .24118.18823.41176.42941.41176z" fill="#1a1a1a" fill-opacity=".7"/></g></svg>