<svg fill="none" height="24" viewBox="0 0 24 24" width="24" xmlns="http://www.w3.org/2000/svg" xmlns:xlink="http://www.w3.org/1999/xlink"><clipPath id="a"><path d="m0 0h24v24h-24z"/></clipPath><g clip-path="url(#a)"><path clip-rule="evenodd" d="m0 0h24v24h-24z" fill="#6772e5" fill-rule="evenodd"/><path d="m10.9199 9.24744c0-.585.48-.81 1.275-.81 1.14 0 2.5725.345 3.7125.96v-3.525c-1.245-.4875-2.475-.6825-3.7125-.6825-3.03745 0-5.06245 1.5825-5.06245 4.2375 0 4.12496 5.69245 3.47246 5.69245 5.24996 0 .69-.6.915-1.44.915-1.2375 0-2.82745-.51-4.08745-1.2v3.5625c1.395.6 2.80495.855 4.08745.855 3.1125 0 5.25-1.5375 5.25-4.2225-.0075-4.455-5.715-3.6675-5.715-5.33996z" fill="#fff"/></g></svg>