<svg fill="none" height="17" viewBox="0 0 26 17" width="26" xmlns="http://www.w3.org/2000/svg"><path d="m22.2099 16.9999h-20.42198c-.46978.004-.92169-.1844-1.256572-.5231-.336538-.3404-.52743184-.8045-.53133951-1.2877l-.00000849-12.37609c.00391616-.48534.19481-.9494.531348-1.28979.334882-.33873.786782-.527137 1.258712-.52315l20.42204-.00001c.4698-.003977.9217.18443 1.2565.52316.3366.34039.5275.80445.5314 1.28769v12.38369c-.0061.5039-.2093.9579-.5339 1.2849-.323.3253-.7663.5246-1.2562.5204z" fill="#fff"/><path d="m22.2121 16.7499h-.0022-20.42198-.00212c-.40105.0034-.788418-.1573-1.076671-.4489-.289822-.2931-.455483-.6942-.459121-1.113-.000002-.0003-.000005-.0006-.000008-.0009v-12.37304c.003647-.42105.16941-.82204.459129-1.11508.288137-.29144.675461-.45233 1.078811-.44892v.00001h.00212 20.42204l.0021-.00002c.401-.00339.7884.15737 1.0767.44893.2898.29316.4555.69422.4591 1.11304v.00091 12.38017c-.0057.4369-.1818.8287-.4613 1.1102-.2783.2803-.6578.4502-1.0766.4466z" stroke="#000" stroke-opacity=".2" stroke-width=".5"/><path d="m12.6124 16.9999h9.3849c.5027.0001 1.0027-.0499 1.4527-.4999.5-.5.55-1 .55-1.4697 0-.4698 0-2.3587 0-2.3587-3.5438 2.0343-7.3872 3.4952-11.3876 4.3283z" fill="#f27712" opacity=".5"/><path d="m23.1724 10.2965h-.8524l-.96-1.26621h-.091v1.26621h-.6952v-3.14483h1.0262c.8027 0 1.2662.33103 1.2662.92689 0 .48828-.2897.80276-.811.90207zm-1.0262-2.19311c0-.30621-.2317-.46345-.6621-.46345h-.2151v.95173h.1986c.4469 0 .6786-.16552.6786-.48828zm-4.0055-.95172h1.9696v.52965h-1.2745v.70345h1.2249v.53793h-1.2249v.85242h1.2745v.52968h-1.9696zm-2.2345 3.22763-1.5062-3.23591h.7614l.9517 2.11862.96-2.11862h.7448l-1.5227 3.23591h-.3725zm-6.29794-.0083c-1.05931 0-1.88689-.72002-1.88689-1.65519 0-.91035.84414-1.6469 1.90345-1.6469.29793 0 .54618.05793.85238.19034v.72828c-.2319-.22782-.54386-.35559-.86894-.35586-.66206 0-1.16689.48-1.16689 1.08414 0 .63724.49655 1.09241 1.2 1.09241.31448 0 .55453-.09931.83583-.34759v.72827c-.3145.1324-.57928.1821-.86894.1821zm-2.10206-1.03451c0 .61242-.50483 1.03451-1.23311 1.03451-.52965 0-.91034-.1821-1.2331-.59588l.45517-.38897c.15724.28138.42207.42207.75311.42207.31448 0 .53793-.19035.53793-.43862 0-.14069-.06621-.24828-.2069-.33104-.15426-.07485-.3149-.13579-.48-.18207-.65379-.20689-.87724-.43034-.87724-.86896 0-.5131.48-.90207 1.10896-.90207.39725 0 .75311.12414 1.05104.35586l-.36414.4138c-.14432-.15822-.3486-.24835-.56276-.24828-.29793 0-.5131.14897-.5131.34759 0 .16551.12414.25655.53793.39724.79448.24827 1.02621.48 1.02621.9931zm-3.41793-2.18482h.69517v3.15313h-.69517zm-2.23449 3.15313h-1.026204v-3.15313h1.026204c1.12552 0 1.90345.64551 1.90345 1.57241 0 .47173-.23172.91862-.63724 1.21655-.34759.24827-.73655.36417-1.27448.36417zm.81104-2.36693c-.23173-.18206-.49655-.24827-.95173-.24827h-.19034v2.08552h.19034c.4469 0 .72828-.08276.95173-.24828.24-.19862.38069-.49655.38069-.80276s-.14069-.59586-.38069-.78621z" fill="#000"/><path d="m12.4138 7.06891c-.9104 0-1.6552.72827-1.6552 1.63034 0 .96.7117 1.68005 1.6552 1.68005.9269 0 1.6552-.72832 1.6552-1.65522s-.72-1.65517-1.6552-1.65517z" fill="#f27712"/></svg>