<svg fill="none" height="16" viewBox="0 0 24 16" width="24" xmlns="http://www.w3.org/2000/svg"><g fill="#3d3d3c"><path d="m.192515 11.2828h.179647l-.168241.6987c-.025664.1026-.01996.1825.014258.2338s.096952.077.191053.077c.091249 0 .168241-.0257.228123-.077s.099804-.1312.125468-.2338l.16824-.6987h.182497l-.171091.7158c-.03707.154-.102655.2709-.199607.3479-.094101.077-.219568.1169-.373551.1169s-.259491-.0371-.3165213-.1141c-.05703069-.077-.0684368-.1939-.0313668-.3479z"/><path d="m1.08789 12.432.28515-1.1948.5418.7015c.01425.02.02851.0399.04277.0627s.02851.0485.04562.077l.19106-.7956h.16824l-.28516 1.192-.55319-.7157c-.01426-.02-.02852-.04-.04278-.0599-.01425-.0228-.02566-.0428-.03422-.0685l-.19105.7985h-.16824z"/><path d="m2.34827 12.432.27374-1.1492h.1825l-.27374 1.1492z"/><path d="m2.79028 12.432.27375-1.1492h.62449l-.03707.1597h-.44199l-.06844.2852h.44199l-.03992.1625h-.44199l-.12832.539h-.1825z"/><path d="m3.61719 12.432.27375-1.1492h.18249l-.27374 1.1492z"/><path d="m4.0592 12.432.27375-1.1492h.62449l-.03707.1597h-.44199l-.06844.288h.44199l-.03992.1626h-.44199l-.0884.3707h.44199l-.03992.1682z"/><path d="m4.89465 12.432.27375-1.1492h.24523c.15969 0 .2709.0086.33078.0257s.11121.0428.15113.0827c.05133.0513.08555.1169.09981.1939.01426.0798.00855.1711-.01426.2709-.02566.1027-.06273.1911-.11406.2709s-.11692.1426-.19391.1939c-.05703.0399-.11976.0656-.1882.0827-.06558.0171-.16539.0257-.29656.0257h-.04847-.24524zm.22242-.1711h.15399c.08269 0 .14828-.0057.1939-.0171.04563-.0114.08555-.0314.12262-.057.05132-.0371.0941-.0827.12832-.1397.03421-.0542.05988-.1198.07699-.1939.01711-.0742.02281-.1369.01426-.1911-.00856-.0542-.02852-.1027-.06274-.1397-.02566-.0285-.05703-.0457-.0998-.0571-.04278-.0114-.10836-.0171-.20246-.0171h-.06559-.06558z"/><path d="m6.81946 11.9159-.12261.5161h-.17109l.27374-1.1492h.2766c.0827 0 .13973.0057.1768.0143s.06558.0228.0884.0456c.02851.0257.04847.0628.05703.1084.00855.0456.0057.0941-.00571.1483-.01425.0541-.03422.1055-.06558.1511-.03137.0456-.06844.0827-.10836.1084-.03422.0199-.07129.037-.11121.0456-.03992.0085-.10265.0142-.1825.0142h-.03707-.06844zm.04848-.154h.04563c.0998 0 .17109-.0114.21101-.0342s.06558-.0627.07984-.1198c.01426-.0599.00571-.1055-.02281-.1283-.03137-.0257-.0941-.0371-.1882-.0371h-.04563z"/><path d="m8.01143 12.432-.05703-.2965h-.44484l-.19961.2965h-.19105l.82694-1.1948.25664 1.1948zm-.39351-.4534h.31081l-.05132-.2623c-.00286-.0171-.00571-.0371-.00571-.0571-.00285-.0228-.00285-.0456-.00285-.0712-.01141.0256-.02281.0484-.03707.0712-.01141.0229-.02281.0428-.03422.0599z"/><path d="m8.46484 12.432.12547-.5247-.22813-.6216h.19105l.14258.3907c.00285.0114.00571.0228.01141.0399s.00855.0342.01426.0513c.0114-.0171.02281-.0342.03421-.0513.01141-.0171.02282-.0314.03422-.0456l.33363-.385h.1825l-.53324.6188-.12546.5247h-.1825z"/><path d="m10.2014 11.8646c0-.0086.0028-.0343.0085-.0742.0029-.0342.0057-.0599.0086-.0827-.0114.0257-.0228.0514-.0371.0799-.0142.0256-.0313.0541-.0513.0798l-.43914.6131-.14258-.6245c-.0057-.0257-.01141-.0513-.01426-.0741s-.0057-.0485-.0057-.0713c-.0057.0228-.01426.0485-.02281.077-.00856.0256-.01996.0541-.03422.0827l-.25664.5646h-.16824l.55035-1.1977.15683.7243c.00285.0114.0057.0314.00856.057.00285.0257.00855.0599.01425.0998.01996-.0342.04563-.0741.07985-.1254.00855-.0143.01711-.0228.01996-.0314l.49619-.7243-.0171 1.1977h-.1683z"/><path d="m10.5037 12.432.2737-1.1492h.6245l-.0371.1597h-.442l-.0684.288h.442l-.0399.1626h-.442l-.0884.3707h.442l-.04.1682z"/><path d="m11.3363 12.432.2852-1.1948.5417.7015c.0143.02.0286.0399.0428.0627.0143.0228.0285.0485.0456.077l.1911-.7956h.1682l-.2851 1.192-.5532-.7157c-.0143-.02-.0285-.04-.0428-.0599-.0142-.0228-.0256-.0428-.0342-.0685l-.1911.7985h-.1682z"/><path d="m13.1927 11.4397-.2367.9895h-.1825l.2367-.9895h-.2966l.0371-.1597h.7756l-.0371.1597z"/><path d="m13.3838 12.201.1625-.0684c.0028.0513.0171.0913.0485.1169.0313.0257.0741.0399.1311.0399.0542 0 .0998-.0142.1398-.0456.0399-.0314.0656-.0713.077-.1226.0171-.0684-.0229-.1283-.1198-.1797-.0143-.0085-.0228-.0142-.0314-.0171-.1083-.0627-.1768-.1169-.2053-.1682s-.0342-.1112-.0171-.1825c.0228-.0941.0713-.1682.1483-.2281.077-.0571.1625-.0884.2652-.0884.0827 0 .1483.0171.1967.0485.0485.0313.0742.0798.0827.1397l-.1597.0741c-.0142-.037-.0313-.0627-.0541-.0798s-.0514-.0257-.0856-.0257c-.0485 0-.0912.0143-.1254.0399-.0343.0257-.0571.0599-.0685.1055-.0171.0685.0314.1341.1426.1939.0085.0058.0143.0086.02.0115.0969.0513.1625.1026.191.1539.0285.0514.0342.1112.0171.1882-.0256.1084-.0798.1939-.1625.2595-.0827.0628-.1797.097-.2937.097-.0941 0-.1683-.0228-.2196-.0685-.057-.0456-.0827-.1112-.0798-.1939z"/><path d="m14.7268 12.432.2738-1.1492h.1825l-.2738 1.1492z"/><path d="m15.1718 12.432.2851-1.1948.5418.7015c.0143.02.0285.0399.0428.0627.0142.0228.0285.0485.0456.077l.191-.7956h.1683l-.2852 1.192-.5532-.7157c-.0142-.02-.0285-.04-.0427-.0599-.0143-.0228-.0257-.0428-.0343-.0685l-.191.7985h-.1682z"/><path d="m17.028 11.4397-.2367.9895h-.1825l.2367-.9895h-.2965l.037-.1597h.7756l-.037.1597z"/><path d="m17.2247 12.432.2738-1.1492h.6273l-.0371.1597h-.4419l-.0685.288h.442l-.0399.1626h-.442l-.0884.3707h.442l-.0399.1682z"/><path d="m18.3511 11.9159-.1226.5133h-.1711l.2737-1.1492h.2538c.0741 0 .1312.0057.1682.0143.04.0085.0713.0256.0941.0484.0286.0285.0457.0628.0542.1084.0086.0428.0057.0912-.0057.1454-.0228.0913-.0599.1654-.1169.2167-.057.0514-.1283.0827-.2139.0941l.2595.5219h-.2053l-.2481-.5133zm.0456-.1454h.0342c.097 0 .1626-.0114.1996-.0343.0371-.0228.0628-.0627.077-.1226.0143-.0627.0086-.1083-.0199-.134-.0286-.0257-.0884-.0399-.1797-.0399h-.0342z"/><path d="m18.9357 12.432.2737-1.1492h.6245l-.0371.1597h-.442l-.0684.2852h.442l-.0399.1625h-.442l-.1283.539h-.1825z"/><path d="m20.4414 12.432-.0571-.2965h-.4448l-.1996.2965h-.1911l.827-1.1948.2566 1.1948zm-.3964-.4534h.3108l-.0513-.2623c-.0029-.0171-.0057-.0371-.0057-.0571-.0029-.0228-.0029-.0456-.0029-.0712-.0114.0256-.0228.0484-.037.0712-.0114.0229-.0229.0428-.0343.0599z"/><path d="m21.8186 11.5623c-.0399-.0456-.0884-.0798-.1397-.0998-.0513-.0228-.1083-.0342-.1739-.0342-.1226 0-.231.0399-.3279.1197-.097.0799-.1597.1854-.1911.3137-.0285.1226-.0171.2253.0399.308.0542.0798.1397.1197.2538.1197.0656 0 .1312-.0114.1968-.037.0655-.0228.1311-.0599.1996-.1084l-.0514.211c-.057.0371-.1169.0628-.1796.0799s-.1255.0256-.1939.0256c-.0856 0-.1625-.0142-.2281-.0427-.0656-.0286-.1198-.0713-.1626-.1284-.0427-.0541-.0684-.1197-.0798-.1939-.0114-.0741-.0086-.1539.0142-.2395.02-.0855.0542-.1625.0998-.2367.0457-.0741.1056-.1397.174-.1939.0684-.057.1426-.0998.2224-.1283.0799-.0285.1597-.0428.2424-.0428.0656 0 .1255.0086.1825.0285.0542.02.1055.0485.1511.0884z"/><path d="m21.8357 12.432.2737-1.1492h.6245l-.037.1597h-.442l-.0685.288h.442l-.0399.1626h-.442l-.0884.3707h.442l-.0399.1682z"/></g><path d="m18.5164 10.2819h-1.2519l1.7395-6.2819h1.2518z" fill="#70706e"/><path d="m17.8663 4.19675c-.0856-.11976-.2196-.17964-.4021-.17964h-6.8779l-.3393 1.23186h1.2518 5.0044l-.365 1.31456h-5.0044v-.00285h-1.25185l-1.03796 3.74972h1.25181l.6958-2.51501h5.6261c.1768 0 .3422-.05988.4961-.17964.154-.11977.2567-.26805.3052-.44484l.6957-2.51506c.0542-.1882.0371-.33933-.0484-.4591z" fill="#70706e"/><path d="m8.11399 9.88842c-.06844.24808-.29656.42198-.5532.42198h-6.45303c-.176795 0-.307966-.0598-.393512-.1796s-.105507-.26804-.054179-.44484l1.574051-5.66885h1.25182l-1.40581 5.06433h5.0073l1.40581-5.06433h1.25183z" fill="#70706e"/><path d="m22.4174 4.01143 1.5826 3.1481-3.3278 3.14807z" fill="#098041"/><path d="m21.3052 4.01141 1.5826 3.1481-3.3305 3.14809z" fill="#e97626"/></svg>