<svg fill="none" height="16" viewBox="0 0 16 16" width="16" xmlns="http://www.w3.org/2000/svg"><path clip-rule="evenodd" d="m5 7.5v6.5h1.5v-6.5h3v6.5h1.5v-6.5h3v6.5h.9998c.5523 0 1 .4477 1 1v1h-15.99963306v-1c0-.5523.44771506-1 1.00000306-1h.99983v-6.5zm3-7.5c4.681 2.57189 7.181 3.94988 7.4998 4.13397.4783.27615.6422.88774.3661 1.36603-.1885.32646-.5333.50644-.8852.5h-13.96136c-.351975.00644-.696724-.17354-.885201-.5-.276137-.47829-.1122661-1.08988.366017-1.36603.318855-.18409 2.818804-1.56208 7.499844-4.13397z" fill="#1a1a1a" fill-opacity=".6" fill-rule="evenodd"/></svg>