<svg fill="none" height="16" viewBox="0 0 24 16" width="24" xmlns="http://www.w3.org/2000/svg"><path d="m22.2099 15.9999h-20.42198c-.46978.004-.92169-.1844-1.256572-.5231-.336538-.3404-.52743184-.8045-.53133951-1.2877l-.00000849-12.37609c.00391616-.48534.19481-.949396.531348-1.289794.334882-.338723.786782-.52713345 1.258712-.52314517l20.42204-.00000906c.4698-.00397922.9217.18443123 1.2565.52315423.3366.340398.5275.804454.5314 1.287694v12.38369c-.0061.5039-.2093.9579-.5339 1.2849-.323.3253-.7663.5246-1.2562.5204z" fill="#fff"/><path d="m22.2121 15.7499h-.0022-20.42198-.00212c-.40105.0034-.788418-.1573-1.076671-.4489-.289822-.2931-.455483-.6942-.459121-1.113-.000002-.0003-.000005-.0006-.000008-.0009v-12.37304c.003647-.42105.16941-.822035.459129-1.115078.288137-.29144.675461-.452329 1.078811-.44892v.000009h.00212 20.42204l.0021-.000018c.401-.003397.7884.157371 1.0767.448929.2897.293109.4554.694078.4591 1.112818v.00113 12.38007c-.0057.4369-.1818.8288-.4613 1.1103-.2783.2803-.6578.4502-1.0766.4466z" stroke="#000" stroke-opacity=".2" stroke-width=".5"/><path d="m10.0621 2.016v-.016h4v.016c3.1354.22944 5.5621 2.84018 5.5621 5.984 0 3.1438-2.4267 5.7546-5.5621 5.984v.016h-4v-.016c-3.13542-.2294-5.5621-2.8402-5.5621-5.984 0-3.14382 2.42668-5.75456 5.5621-5.984z" fill="#0165ac"/><path d="m11.6622 11.392c1.4353-.5103 2.394-1.86871 2.394-3.39201s-.9587-2.88171-2.394-3.392zm-2.39999-6.78401c-1.43529.51029-2.39404 1.8687-2.39404 3.392s.95875 2.88171 2.39404 3.39201zm1.19999 8.59201c-2.87187 0-5.19999-2.3281-5.19999-5.20001 0-2.87188 2.32812-5.2 5.19999-5.2 2.8719 0 5.2 2.32812 5.2 5.2 0 2.87191-2.3281 5.20001-5.2 5.20001z" fill="#fff"/></svg>