<svg fill="none" height="17" viewBox="0 0 26 17" width="26" xmlns="http://www.w3.org/2000/svg"><path d="m0 17h4.8c1.092 0 2.4-1.1947 2.4-2.1333v-13.8667h-4.8c-1.092 0-2.4 1.19467-2.4 3.2z" fill="#047ab1"/><path d="m2.724 11.816c-.9215.0002-1.83846-.1147-2.724-.3413v-1.1733c.687181.3777 1.47266.5908 2.28.6186.924 0 1.44-.576 1.44-1.36529v-3.22134h2.28v3.22134c0 1.25869-.744 2.26129-3.276 2.26129z" fill="#fff"/><path d="m8.4 17h4.8c1.092 0 2.4-1.1947 2.4-2.1333v-13.8667h-4.8c-1.092 0-2.4 1.19467-2.4 3.2z" fill="#d42d06"/><path d="m8.4 7.07999c.696-.59733 1.896-.97066 3.84-.88533 1.056.04267 2.16.32 2.16.32v1.184c-.6314-.33948-1.3412-.54735-2.076-.608-1.476-.11733-2.376.61867-2.376 1.90933 0 1.29071.9 2.02671 2.376 1.92001.7352-.0661 1.4445-.2775 2.076-.6187v1.1734s-1.104.288-2.16.3306c-1.944.0854-3.144-.288-3.84-.8853z" fill="#fff"/><path d="m16.8 17h4.8c1.092 0 2.4-1.1947 2.4-2.1333v-13.8667h-4.8c-1.092 0-2.4 1.19467-2.4 3.2z" fill="#67b637"/><path d="m22.8 10.28c0 .8534-.744 1.3867-1.74 1.3867h-4.26v-5.33333h3.876l.276.01067c.876.04267 1.524.50133 1.524 1.29067 0 .61866-.444 1.152-1.248 1.28v.032c.888.05333 1.572.55466 1.572 1.33329zm-3.06-3.10396c-.0516-.00687-.1038-.01043-.156-.01067h-1.44v1.344h1.596c.3-.064.552-.30933.552-.672 0-.36266-.252-.608-.552-.66133zm.18 2.176c-.0635-.00886-.1278-.01243-.192-.01067h-1.584v1.46133h1.584l.192-.0213c.3-.064.552-.3414.552-.7147 0-.37333-.24-.63999-.552-.71466z" fill="#fff"/></svg>