<svg fill="none" height="16" viewBox="0 0 22 16" width="22" xmlns="http://www.w3.org/2000/svg" xmlns:xlink="http://www.w3.org/1999/xlink"><clipPath id="a"><path d="m0 0h22v16h-22z"/></clipPath><g clip-path="url(#a)"><path clip-rule="evenodd" d="m8.34003 13.0906c-.31363.2543-.71366.4061-1.14698.4061h-5.37655c-1.016362 0-1.8165-.8497-1.8165-1.8378v-5.40528c0-.8958.645115-1.62054 1.48015-1.77619-.07274-.1345-.11043-.28262-.11043-.41977v-.71126l.00073-.05397c.05227-1.67334 1.44661-2.992435 3.13363-2.992435 1.71887 0 3.13575 1.370035 3.13575 3.088695v.66897c0 .15725-.04296.30003-.10974.42026.84282.15945 1.47946.9053 1.47946 1.791l-.00075.5998c.64676-.90899 1.7026-1.50424 2.8984-1.50424 1.2365 0 2.3199.63421 2.9573 1.59372.3636-.93001 1.2665-1.59372 2.3253-1.59372h3.5384v2.80765h-.0468c.5174.46301.8436 1.13711.8436 1.87907 0 1.3545-1.0913 2.5076-2.4607 2.5274l-.0101.0002-7.8836-.0001v3.1213h-2.83057z" fill="#fff" fill-rule="evenodd"/><path d="m19.0542 8.23716c.974.01411 1.7708.82932 1.7708 1.81404 0 .9847-.7968 1.8134-1.7708 1.8275h-5.2902c.6609-.2754.9864-.8262 1.3212-1.4689h3.9437c.2074 0 .3761-.1531.3761-.361 0-.20796-.1687-.37339-.3761-.37339h-1.8391c-.9907 0-1.7967-.81197-1.7967-1.80546 0-.9935.806-1.80547 1.7967-1.80547h2.8384v1.40765h-2.8384c-.2073 0-.3761.18306-.3761.39099 0 .20794.1688.37404.3761.37404zm-7.147-2.17268c1.5802 0 2.8597 1.29654 2.8597 2.89591 0 1.59941-1.2825 2.91831-2.8627 2.91831h-1.4336v3.1213h-1.43056v-6.03453c0-1.59937 1.28706-2.90099 2.86716-2.90099zm0 4.34532c.7952 0 1.4421-.63946 1.4421-1.44941s-.6469-1.46892-1.4421-1.46892c-.7951 0-1.4366.65897-1.4366 1.46892v1.44941z" fill="#5f6360"/><path d="m4.51091 11.8787h3.7817c-.08879.5202-.5485.918-1.09961.918h-5.37655c-.61406 0-1.116499-.5204-1.116499-1.1378v-5.40527c0-.61738.502439-1.10718 1.116499-1.10718h5.37655c.61409 0 1.1165.5051 1.1165 1.12248l-.0052 4.14087h-3.79339c-.58119 0-1.08516-.2754-1.33435-.76499h4.2198v-.70224c0-1.59676-1.30334-2.8948-2.8916-2.8948-1.35045 0-2.48629.94037-2.79624 2.20322 0 0-.08419.42288-.08419.6985 0 .27559.08894.69419.08894.69419.30773 1.26592 1.44496 2.23502 2.79764 2.23502zm-.00615-4.45688c.57899 0 1.08247.35632 1.33267.81534h-2.66529c.2502-.45902.75368-.81534 1.33262-.81534zm2.43502-4.03313v.66897c0 .08587-.07527.17076-.16281.17076h-.89616c-.08754 0-.15856-.08489-.15856-.17076v-.66897c0-.65878-.54575-1.19476-1.21752-1.19476s-1.21753.53598-1.21753 1.19476v.66897c0 .08587-.07677.17076-.16431.17076h-.89613c-.08754 0-.15709-.08489-.15709-.17076v-.71784c0-.0056-.00046-.01089.00012-.01634.03534-1.28901 1.1113-2.32348 2.43424-2.32348 1.34521 0 2.43575 1.06945 2.43575 2.38869z" fill="#a41760"/></g></svg>