<svg fill="none" height="16" viewBox="0 0 24 16" width="24" xmlns="http://www.w3.org/2000/svg" xmlns:xlink="http://www.w3.org/1999/xlink"><clipPath id="a"><path d="m0 0h24v16h-24z"/></clipPath><g clip-path="url(#a)"><path clip-rule="evenodd" d="m0 3.5116c0-1.94793 1.59245-3.5116 3.5355-3.5116h16.929c1.9448 0 3.5355 1.56402 3.5355 3.5116v8.9768c0 1.9476-1.5907 3.5116-3.5355 3.5116h-16.929c-1.94305 0-3.5355-1.5637-3.5355-3.5116zm3.5355-2.5116c-1.39975 0-2.5355 1.1249-2.5355 2.5116v8.9768c0 1.3867 1.13575 2.5116 2.5355 2.5116h16.929c1.4011 0 2.5355-1.1249 2.5355-2.5116v-8.9768c0-1.3867-1.1344-2.5116-2.5355-2.5116z" fill="#fff" fill-rule="evenodd"/><path d="m1 3.5116c0-1.3867 1.13575-2.5116 2.5355-2.5116h16.929c1.4011 0 2.5355 1.1249 2.5355 2.5116v8.9768c0 1.3867-1.1344 2.5116-2.5355 2.5116h-16.929c-1.39975 0-2.5355-1.1249-2.5355-2.5116z" fill="#04337b"/><path d="m2 12.4716c0 .8813.65275 1.5284 1.53894 1.5284h8.44596v-12h-8.44596c-.88619 0-1.53894.6471-1.53894 1.5277z" fill="#fff"/><path d="m10.3072 3.76502v5.32979c0 2.48009-1.21893 3.28029-3.68293 3.28029-.79352.0024-1.58213-.1269-2.33475-.383l.10588-1.6457c.64419.3129 1.18456.4977 2.06525.4977 1.21894 0 1.87619-.567 1.87619-1.74929v-.32479h-.02407c-.50393.707-1.20793 1.0318-2.05356 1.0318-1.67681 0-2.72112-1.2509-2.72112-3.0359 0-1.7955.85731-3.1409 2.75687-3.1409.90269 0 1.63075.4872 2.07763 1.2292h.02268v-1.0892zm-4.58699 2.96659c0 .938.56375 1.4707 1.19694 1.4707.75006 0 1.34887-.6251 1.34887-1.55259 0-.672-.39875-1.4252-1.34887-1.4252-.78581 0-1.19694.68459-1.19694 1.50709z" fill="#ee3525"/><path clip-rule="evenodd" d="m14.5383 12.375h2.0825v-3.3327h.0233c.394.7301 1.1819 1.001 1.9099 1.001 1.7937 0 2.7535-1.5071 2.7535-3.3208 0-1.4833-.9137-3.0975-2.5802-3.0975-.9488 0-1.8274.3892-2.2454 1.2488h-.0234v-1.106h-1.9202zm4.6166-5.6053c0 .9772-.4744 1.6485-1.2616 1.6485-.6944 0-1.2732-.672-1.2732-1.5666 0-.9184.5087-1.6016 1.2732-1.6016.8113 0 1.2616.7077 1.2616 1.5197z" fill="#fff" fill-rule="evenodd"/></g></svg>