<svg viewBox="0 0 31 21" xmlns="http://www.w3.org/2000/svg"><g transform="translate(1 1)"><path d="m26.58 19h-24.16c-.637.005-1.249-.242-1.703-.689-.454-.446-.712-1.054-.717-1.691v-14.24c.005-.637.263-1.245.717-1.691.454-.447 1.066-.694 1.703-.689h24.16c.637-.005 1.249.242 1.703.689.454.446.712 1.054.717 1.691v14.25c-.016 1.322-1.098 2.381-2.42 2.37z" fill="none" stroke="#000"/><path d="m5 11.82c.738.212 1.502.32 2.27.32 2.11 0 2.73-.94 2.73-2.12v-3.02h-1.9v3.02c0 .74-.43 1.28-1.2 1.28-.673-.026-1.327-.226-1.9-.58v-5.72c0-1.88 1.09-3 2-3h4v13c0 .88-1.09 2-2 2h-4z"/><path d="m12 11.3c.58.56 1.58.91 3.2.83.88-.04 1.8-.31 1.8-.31v-1.1c-.526.32-1.117.518-1.73.58-1.23.1-1.98-.59-1.98-1.8s.75-1.9 1.98-1.79c.612.057 1.204.252 1.73.57v-1.11s-.92-.26-1.8-.3c-1.62-.08-2.62.27-3.2.83v-2.7c0-1.88 1.09-3 2-3h4v13c0 .88-1.09 2-2 2h-4z"/><path d="m19 12h3.55c.83 0 1.45-.5 1.45-1.3 0-.73-.57-1.2-1.31-1.25v-.03c.67-.12 1.04-.62 1.04-1.2 0-.74-.54-1.17-1.27-1.21l-.23-.01h-3.23v-2c0-1.88 1.09-3 2-3h4v13c0 .88-1.09 2-2 2h-4zm2.45-4.21c.25.05.46.28.46.62s-.21.57-.46.63h-1.33v-1.26h1.2c.044 0 .087.004.13.01zm.15 2.04c.26.07.46.32.46.67s-.21.61-.46.67l-.16.02h-1.32v-1.37h1.32c.054-.002.107.002.16.01z"/></g></svg>