<svg fill="none" height="21" viewBox="0 0 21 21" width="21" xmlns="http://www.w3.org/2000/svg"><g fill="#000"><path d="m4.12211 16.75c-.75856-1.1584-1.18992-2.5005-1.24839-3.8842-.05848-1.3836.25809-2.7573.9162-3.97569.65811-1.21837 1.63327-2.23606 2.82224-2.94532 1.18898-.70927 2.54753-1.08372 3.93184-1.08372 1.3843 0 2.7429.37445 3.9318 1.08372 1.189.70926 2.1642 1.72695 2.8223 2.94532.6581 1.21839.9747 2.59209.9162 3.97569-.0585 1.3837-.4898 2.7258-1.2484 3.8842h2.1493c.714-1.4559 1.0455-3.0696.9635-4.6892-.0821-1.6196-.575-3.19154-1.4325-4.56775-.8574-1.37622-2.051-2.51132-3.4682-3.29832-1.4173-.787-3.0116-1.19996-4.6325-1.19996-1.62101 0-3.21527.41296-4.63255 1.19996s-2.61088 1.9221-3.46829 3.29832c-.8574 1.37621-1.35037 2.94815-1.43242 4.56775-.082055 1.6196.2495 3.2333.96342 4.6892z"/><path d="m10.6737 8.01144c-1.39799 0-3.0071.65994-3.88083 1.3563l.79655 1.67966c.70044-.641 1.83337-1.18871 2.85418-1.18871.9713 0 1.5057.32341 1.5057.97901 0 .437-.3553.6876-1.0266.7488-2.5178.2316-4.47495 1.0197-4.47495 2.9529 0 1.5341 1.10526 2.4606 2.92407 2.4606.54676.0007 1.08388-.1442 1.55608-.42.4722-.2757.8624-.6723 1.1306-1.149v1.3184h2.2688v-5.5271c0-2.28286-1.5873-3.20503-3.6536-3.20503zm-.6626 7.21566c-.72811 0-1.1373-.3147-1.1373-.8304 0-1.0781 1.3106-1.3374 3.0289-1.3374 0 1.1276-.7543 2.1678-1.8931 2.1678z"/></g></svg>