<svg fill="none" height="17" viewBox="0 0 26 17" width="26" xmlns="http://www.w3.org/2000/svg" xmlns:xlink="http://www.w3.org/1999/xlink"><clipPath id="a"><path d="m0 0h26v17h-26z"/></clipPath><g clip-path="url(#a)" clip-rule="evenodd" fill="#df1b41" fill-rule="evenodd"><path d="m16.5649 13.7621h-6.4375c-.52808 0-.81246-.2428-.81246-.8095s.28438-.8095.81246-.8095h6.4375c.5282 0 .8125.2428.8125.8095s-.2843.8095-.8125.8095zm-8.87496 0h-4.4375c-.52812 0-.8125-.2428-.8125-.8095s.28438-.8095.8125-.8095h4.4375c.52813 0 .8125.2428.8125.8095s-.28437.8095-.8125.8095z" fill-opacity=".6"/><path d="m16.2908 9.67361c1.0666 1.06269 2.5133 1.65969 4.0217 1.65969s2.9551-.597 4.0217-1.65969c1.0666-1.06271 1.6658-2.50405 1.6658-4.00694 0-1.5029-.5992-2.94424-1.6658-4.00694-1.0666-1.062708-2.5133-1.65973-4.0217-1.65973s-2.9551.597022-4.0217 1.65973c-1.0666 1.0627-1.6658 2.50404-1.6658 4.00694 0 1.50289.5992 2.94423 1.6658 4.00694zm4.9598-1.00486c0 .55246-.4478 1.00031-1.0003 1.00031-.5524 0-1.0003-.44785-1.0003-1.00031s.4479-1.00031 1.0003-1.00031c.5525 0 1.0003.44785 1.0003 1.00031zm-1.6672-6.00187c0-.36831.2986-.66688.6669-.66688s.6669.29857.6669.66688v3.33437c0 .3683-.2986.66688-.6669.66688s-.6669-.29858-.6669-.66688z"/><path d="m16.2958 9.6736c1.0666 1.0627 2.5133 1.6597 4.0217 1.6597 1.354 0 2.6582-.481 3.6825-1.34811v5.01901c-.0065.5345-.221 1.0446-.5963 1.4187-.3754.374-.8811.5815-1.4065.577h-19.99444c-.26084.0022-.51955-.0478-.76136-.1473-.241814-.0996-.461995-.2466-.64797-.4327s-.334102-.4077-.435923-.652c-.1018215-.2444-.15534243-.5068-.157507-.7722v-11.99144c.00216457-.26541.0556855-.52778.157507-.77214.101821-.24436.249948-.46592.435923-.65203s.406156-.33312.64797-.43264c.24181-.09952.50052-.1496.76136-.14738h15.08824c-.2827.19402-.5491.41444-.7952.65966-1.0666 1.0627-1.6658 2.50404-1.6658 4.00694 0 1.50289.5992 2.94423 1.6658 4.00693zm-8.66545-4.46304c.35586 0 .64551.31158.64551.69894v2.81261c0 .38736-.28965.69894-.64551.69894h-4.50207c-.35587 0-.64552-.31158-.64552-.69894v-2.81261c0-.38736.28965-.69894.64552-.69894z" fill-opacity=".4"/></g></svg>