<svg fill="none" height="16" viewBox="0 0 16 16" width="16" xmlns="http://www.w3.org/2000/svg" xmlns:xlink="http://www.w3.org/1999/xlink"><linearGradient id="a" gradientUnits="userSpaceOnUse" x1="8.73691" x2="11.2676" y1="5.05413" y2="2.52341"><stop offset="0" stop-color="#e52f08"/><stop offset="1" stop-color="#e94f96"/></linearGradient><clipPath id="b"><path d="m0 0h16v16h-16z"/></clipPath><g clip-path="url(#b)"><rect fill="#000" height="16" rx="2.5" width="16"/><path d="m11.791 3.78877c0 .47441-.1884.92939-.5239 1.26485-.3354.33546-.7904.52392-1.2648.52392-.47444 0-.92942-.18846-1.26488-.52392s-.52392-.79044-.52392-1.26485.18846-.92939.52392-1.26485.79044-.52392 1.26488-.52392c.4744 0 .9294.18846 1.2648.52392.3355.33546.5239.79044.5239 1.26485z" fill="url(#a)"/><path d="m7.99852 6.41388c-.62601-.00088-1.24242.15383-1.79382.45022v-4.29022h-1.99974v7.63202c-.0002.7503.22207 1.4837.63872 2.1076.41664.6239 1.00893 1.1102 1.70198 1.3974.69304.2873 1.45571.3626 2.19154.2164s1.4118-.5073 1.9424-1.0377.892-1.2062 1.0385-1.942.0715-1.49846-.2155-2.19161c-.287-.69316-.7731-1.28565-1.3968-1.70255-.62372-.41689-1.35706-.63946-2.10728-.63956zm0 5.61762c-.36101 0-.71392-.107-1.01409-.3076-.30017-.2005-.53414-.4856-.6723-.8191s-.17433-.7006-.10392-1.05463c.07042-.35408.24424-.67933.4995-.93462.25525-.25529.58048-.42916.93455-.49962.35406-.07046.72108-.03435 1.05462.10377.33355.13812.61865.37204.81925.67219.2006.30014.3077.65303.30775 1.01401.0001.2398-.04704.4772-.13874.6987-.09169.2215-.22614.4228-.39566.5924-.16951.1695-.37078.304-.59229.3957s-.45892.1389-.69867.1388z" fill="#fff"/></g></svg>