<svg fill="none" height="40" viewBox="0 0 56 40" width="56" xmlns="http://www.w3.org/2000/svg"><path d="m36.6545 13.1909.8909-2.3545h3.9455v-4.26368h-26.9819v26.98178h26.9819v-4.2636h-3.7546l-1.4-1.5909-1.4 1.5909h-10.5636v-8.5273h-3.5l4.3909-9.8636h4.2636l1.0182 2.2273v-2.2273h5.2818zm-2.9273 1.5909v-.9545l.3818.9545 1.7819 4.7091h1.6545l1.7818-4.7091.3182-.9545v5.6h1.8455v-7.1909h-3.0546l-1.4 3.6272-.3818 1.0182-.3818-1.0182-1.4-3.6272h-3.0546v7.1909h1.9091zm-3.9454 4.6455h2.1l-3.1819-7.1909h-2.4818l-3.1818 7.1909h2.1l.5727-1.4h3.5zm-2.6728-4.7091.3819-.8909.3818.8909.7636 1.8454h-2.2273zm-1.2727 6.0454v7.1909h5.9818v-1.5272h-4.2v-1.2728h4.0728v-1.5272h-4.0728v-1.2728h4.2v-1.5272zm12.7273 7.1273h2.3545l-3.3727-3.5636 3.3727-3.5637h-2.3545l-2.1637 2.3546-2.1636-2.3546h-2.4182l3.3728 3.6273-3.3728 3.5636h2.2909l2.1637-2.3545zm.8909-3.5636 2.0364 2.1v-4.1364z" fill="#006fcf"/></svg>