<svg fill="none" height="16" viewBox="0 0 16 16" width="16" xmlns="http://www.w3.org/2000/svg"><path d="m12.9014 3.83762c.1936.06416.3733.13998.5393.22746.1951-1.24439-.0016-2.09166-.6745-2.85886-.7417-.84462-2.0805-1.20622-3.79358-1.20622h-4.97332c-.34994 0-.64844.254498-.70252.600722l-2.07151 13.130578c-.04083.2598.15959.4941.42151.4941h3.07042l.76963-4.88299-.02259.14508c.05461-.34569.34994-.60019.7004-.60019h1.45913c2.86573 0 5.10963-1.1638 5.76543-4.5306.0196-.09968.0366-.19671.0515-.29162-.166-.08748-.3457-.1633-.5393-.22746z" fill="#fff"/><path d="m12.7541 3.79149c-.1002-.02916-.2036-.05567-.3096-.07953-.1066-.02332-.2158-.044-.3282-.06203-.3934-.06362-.8245-.09385-1.2863-.09385h-3.89804c-.09596 0-.18716.02174-.26881.06098-.17974.08642-.31335.25662-.34569.46499l-.82925 5.25221-.02385.15323c.05461-.34569.34993-.60019.7004-.60019h1.45912c2.86572 0 5.10962-1.1638 5.76542-4.53061.0196-.09967.0361-.1967.0509-.29161-.1659-.08801-.3457-.1633-.5392-.22746-.0477-.0159-.097-.03128-.1469-.04613z" fill="#cae6f3"/><path d="m13.4402 4.06508c-.0149.09491-.0318.19193-.0509.29161-.6559 3.36733-2.8997 4.5306-5.76547 4.5306h-1.45912c-.35047 0-.64579.2545-.70041.6002l-.74705 4.73791-.21156 1.343c-.03552.2269.13945.4316.3685.4316h2.58793c.30646 0 .56679-.2227.61503-.5249l.02545-.1315.48726-3.0922.03129-.1696c.04771-.3033.30858-.526.61503-.526h.38705c2.50737 0 4.47017-1.018 5.04387-3.9638.2396-1.2306.1156-2.25814-.5186-2.98081-.1919-.21791-.43-.39871-.7083-.54611z" fill="#179bd7"/></svg>