<svg fill="none" height="16" viewBox="0 0 16 16" width="16" xmlns="http://www.w3.org/2000/svg" xmlns:xlink="http://www.w3.org/1999/xlink"><clipPath id="a"><path d="m1 0h13.4194v16h-13.4194z"/></clipPath><g clip-path="url(#a)"><path d="m12.8957 3.95717c-.0144.09239-.0309.18684-.0495.28387-.6385 3.27794-2.8227 4.41032-5.6124 4.41032h-1.42039c-.34116 0-.62864.24774-.68181.58426l-.72722 4.61208-.20594 1.3074c-.03458.2209.13574.4201.35871.4201h2.51923c.29832 0 .55174-.2167.59871-.5109l.02477-.128.47432-3.0101.03046-.1652c.04645-.2952.30038-.512.59871-.512h.37677c2.44078 0 4.35148-.9909 4.90998-3.85854.2332-1.19794.1125-2.19819-.5048-2.90168-.1869-.21213-.4186-.38813-.6896-.53161z" fill="#179bd7"/><path d="m12.2279 3.69083c-.0976-.02839-.1982-.05419-.3015-.07742-.1037-.02271-.21-.04284-.3195-.06039-.3829-.06193-.8025-.09135-1.2521-.09135h-3.79456c-.09342 0-.1822.02116-.26168.05935-.17497.08413-.30503.24981-.33652.45265l-.80722 5.11278-.02323.14916c.05316-.33652.34065-.58426.68181-.58426h1.42039c2.78971 0 4.97391-1.1329 5.61241-4.41032.0191-.09704.0351-.19149.0495-.28388-.1615-.08567-.3365-.15896-.5249-.22142-.0464-.01548-.0944-.03045-.1429-.0449z" fill="#222d65"/><path d="m5.96206 3.97368c.03148-.20284.16155-.36852.33651-.45213.08-.0382.16826-.05936.26168-.05936h3.79455c.4496 0 .8692.02942 1.2522.09136.1094.01755.2157.03768.3194.06039.1033.02322.2039.04903.3015.07741.0485.01446.0965.02942.1434.04439.1884.06245.3634.13626.525.22142.1899-1.21135-.0016-2.03613-.6566-2.78297-.722-.82219-2.0253-1.17419-3.69287-1.17419h-4.84129c-.34064 0-.63122.247742-.68387.584774l-2.01651 12.781926c-.039746.2529.15535.481.41032.481h2.9889l.75045-4.76125z" fill="#253b80"/></g></svg>