<svg viewBox="0 0 32 32" xmlns="http://www.w3.org/2000/svg"><g fill="none"><path d="m0 0h32v32h-32z" fill="#037fb0"/><path d="m16.355 21.203c5.674-6.52 6.334-9.59 5.69-10.63-2.115-3.417-11.94-1.516-16.665-.146l-.131.043c-.028.007-.054-.022-.06-.067-.004-.045.015-.088.042-.095l.133-.047c3.84-1.368 11.176-3.342 16.194-3.342 2.434 0 4.323.465 5.003 1.688.929 1.669-.905 4.465-3.825 7.63l-.128.108.133-.103c-1.652 1.48-7.959 7.56-9.388 8.776l-.056.048c-.023.026-.054.017-.07-.02s-.01-.088.012-.114l.067-.063 3.045-3.663z" fill="#fff"/></g></svg>