<svg fill="none" height="40" viewBox="0 0 56 40" width="56" xmlns="http://www.w3.org/2000/svg"><path d="m26.0785 32.9311c-7.1748.0342-13.0785-5.7782-13.0785-12.8526 0-7.7316 5.9037-13.0785 13.0785-13.0785h3.3524c7.088 0 13.56 5.3446 13.56 13.0785 0 7.0744-6.472 12.8526-13.56 12.8526zm.0274-24.85853c-2.347 0-4.6413.69597-6.5928 1.99993-1.9515 1.3039-3.4725 3.1572-4.3706 5.3256-.8982 2.1684-1.1332 4.5544-.6753 6.8563s1.5881 4.4164 3.2476 6.0759c1.6596 1.6596 3.7741 2.7898 6.076 3.2477s4.6879.2229 6.8563-.6753c2.1683-.8981 4.0217-2.4191 5.3256-4.3706s1.9999-4.2458 1.9999-6.5928c0-3.1473-1.2502-6.1656-3.4757-8.391-2.2254-2.22549-5.2438-3.47573-8.391-3.47573zm-2.6928 18.89093v-14.0301c-1.4213.5437-2.644 1.506-3.5065 2.7596-.8626 1.2536-1.3244 2.7395-1.3244 4.2611 0 1.5217.4618 3.0076 1.3244 4.2612.8625 1.2535 2.0852 2.2158 3.5065 2.7596zm10.219-7.0196c-.0041-1.5198-.468-3.0028-1.3307-4.254s-2.0837-2.2122-3.5027-2.7565v14.0324c1.4208-.5451 2.6431-1.5078 3.5059-2.7613.8628-1.2534 1.3257-2.7389 1.3275-4.2606z" fill="#004a98"/></svg>