<svg fill="none" height="40" viewBox="0 0 56 40" width="56" xmlns="http://www.w3.org/2000/svg"><path d="m33.953 10.6436h-11.901v19.4378h11.901z" fill="#ff5f00"/><path d="m23.2778 20.3637c-.0014-1.8717.4229-3.7192 1.2408-5.4027.818-1.6835 2.0082-3.1589 3.4805-4.3145-1.8236-1.43313-4.0135-2.32431-6.3196-2.57168s-4.6353.15904-6.7213 1.17278c-2.086 1.0137-3.8448 2.5939-5.07523 4.5599-1.23046 1.966-1.88297 4.2386-1.88297 6.5579s.65251 4.5918 1.88297 6.5578c1.23043 1.9661 2.98923 3.5462 5.07523 4.56 2.086 1.0137 4.4152 1.4201 6.7213 1.1728 2.3061-.2474 4.496-1.1386 6.3196-2.5717-1.4728-1.156-2.6633-2.6319-3.4812-4.316-.818-1.6842-1.242-3.5324-1.2401-5.4046z" fill="#eb001b"/><g fill="#f79e1b"><path d="m46.8188 28.0247v-.3983h.1717v-.0824h-.4086v.0824h.1614v.3983zm.7932 0v-.4807h-.1236l-.1442.3434-.1442-.3434h-.1236v.4807h.0892v-.364l.1339.3125h.0927l.134-.3125v.364z"/><path d="m48.0001 20.3642c-.0001 2.3195-.6528 4.5922-1.8834 6.5583-1.2307 1.9661-2.9897 3.5462-5.076 4.5598s-4.4157 1.4198-6.7219 1.172c-2.3062-.2477-4.4962-1.1393-6.3197-2.5729 1.4718-1.1566 2.6616-2.6324 3.4798-4.316s1.2433-3.531 1.2433-5.4029c0-1.8718-.4251-3.7193-1.2433-5.4029s-2.008-3.1593-3.4798-4.316c1.8235-1.43355 4.0135-2.32516 6.3197-2.57289s4.6356.15842 6.7219 1.17202c2.0863 1.01357 3.8453 2.59377 5.076 4.55987 1.2306 1.966 1.8833 4.2387 1.8834 6.5582z"/></g></svg>