<svg fill="none" height="40" viewBox="0 0 56 40" width="56" xmlns="http://www.w3.org/2000/svg" xmlns:xlink="http://www.w3.org/1999/xlink"><clipPath id="a"><path d="m8 8h40v24.7214h-40z"/></clipPath><g clip-path="url(#a)"><path d="m46.8192 28.0201v-.3983h.1604v-.0805h-.4084v.0805h.1604v.3983zm.7933 0v-.4801h-.1268l-.144.3304-.1446-.3304h-.1268v.4801h.0881v-.3609l.1351.3121h.092l.1351-.3127v.3628zm-20.7077 2.3877c.0964.0843.1985.1655.2987.2473-2.0262 1.3507-4.4077 2.0698-6.8428 2.0661-6.8269 0-12.3607-5.5344-12.3607-12.3607 0-6.8262 5.5338-12.3607 12.3607-12.3607 2.4351-.00361 4.8164.71521 6.8428 2.0655-.1002.0825-.2017.163-.2987.2473-1.4385 1.2492-2.5919 2.7927-3.3824 4.5261-.7904 1.7334-1.1995 3.6164-1.1995 5.5215s.4091 3.7881 1.1995 5.5215c.7905 1.7334 1.9439 3.2769 3.3824 4.5261zm8.7345-22.408c-2.4352-.00365-4.8166.71541-6.8428 2.0661.1002.0819.2017.163.2987.2474 1.4383 1.2492 2.5917 2.7926 3.3821 4.526.7904 1.7333 1.1994 3.6162 1.1994 5.5212 0 1.9051-.409 3.7879-1.1994 5.5213-.7904 1.7333-1.9438 3.2768-3.3821 4.526-.097.0843-.1991.1655-.2993.2479 2.0262 1.3505 4.4077 2.0694 6.8427 2.0655 6.8263 0 12.3608-5.5338 12.3608-12.3607s-5.5339-12.3607-12.3601-12.3607zm-7.6393 2.6477c-.159.1268-.315.2558-.468.3868-1.3356 1.1595-2.4066 2.5923-3.1405 4.2015-.734 1.6091-1.1138 3.3572-1.1137 5.1258.0001 1.7687.38 3.5167 1.114 5.1258.7341 1.6091 1.8052 3.0418 3.1408 4.2012.1526.1323.3086.2613.468.3869.159-.1269.315-.2558.4681-.3869 1.3352-1.1594 2.406-2.592 3.1398-4.201s1.1136-3.3568 1.1136-5.1252-.3798-3.5162-1.1136-5.1251c-.7338-1.609-1.8046-3.0416-3.1398-4.2011-.1531-.1327-.3091-.2617-.4681-.3868" fill="#fff"/></g></svg>