<svg fill="none" height="16" viewBox="0 0 16 16" width="16" xmlns="http://www.w3.org/2000/svg" xmlns:xlink="http://www.w3.org/1999/xlink"><clipPath id="a"><path d="m0 0h16v16h-16z"/></clipPath><g clip-path="url(#a)"><path d="m0 8v-5c0-1.65685 1.34315-3 3-3h5 5c1.6569 0 3 1.34315 3 3v5 5c0 1.6569-1.3431 3-3 3h-5-5c-1.65685 0-3-1.3431-3-3z" fill="#e13134"/><path d="m6.08582 10.3996c0-.0145.01599-.1207.03635-.2341.15703-.90728.16284-.93927.20646-1.07158.09452-.29226.27336-.54672.49-.69357.1992-.13668.54235-.25736 1.25918-.44202.45074-.11778.8913-.23992.98872-.27627.20356-.07706.29807-.17012.34896-.33878.02908-.09597.11632-.66158.11632-.74882-.00145-.07125-.04943-.15995-.10614-.1963-.06979-.04362-.27772-.06834-.727-.09015-.52635-.02471-.85641.00873-1.04253.10324-.1294.06543-.22682.3257-.29516.79244l-.01745.11632-.37513.00436c-.23991.00146-.37368-.00145-.37368-.01163 0-.04798.09305-.53944.12359-.65431.17012-.63686.48127-.90876 1.15593-1.01054.31698-.04798 1.04107-.06543 1.38567-.0349.19484.01745.39549.06398.51908.11923.17158.07706.32421.22537.41151.40277.0451.0916.0465.09887.0509.32715.0101.40422-.0378.73864-.1527 1.08324-.10033.29953-.21665.47111-.40712.59906-.23119.15413-.36496.20356-1.15303.41876-1.15448.31407-1.22573.33879-1.35078.4362-.09451.07561-.14103.18467-.18465.43476-.01891.10905-.03781.21519-.04072.23846l-.00727.03925h1.40894c.77644 0 1.41038.00437 1.41038.00873 0 .01163-.10032.6136-.1105.6645l-.00873.0392h-1.7797c-1.68519 0-1.7797-.0014-1.7797-.0247z" fill="#e4eaf0"/><path d="m12.2843 10.3923c.0116-.0465.1701-.99308.1701-1.01344 0-.01163-.3359-.01599-1.204-.01599h-1.2054l.0626-.37368c.0596-.35187.0654-.37513.1047-.4173.0232-.02472.2806-.29953.5699-.61214.2908-.31116.8914-.95819 1.3363-1.4351l.8084-.8695h.4435.445l-.2487 1.49472-.2501 1.49327.3417.00436.3417.00291-.0087.06979c-.0102.07851-.0931.55979-.1047.61068l-.0073.03199h-.3417c-.1875 0-.3417.00291-.3417.00727 0 .01163-.1599.98146-.1686 1.02216l-.0058.032h-.3723-.3722zm.4623-2.74516c.0917-.55107.1629-1.00326.1571-1.00326s-.0233.01599-.0378.03489c-.0146.0189-.4217.45511-.9044.96982-.4828.51472-.8914.95093-.9074.96983l-.029.03199h.7764.7765z" fill="#e4eaf0"/><path d="m2 10.4112c0-.0073.1076-.66738.23991-1.46563.13232-.79825.3068-1.84659.38532-2.33077.07997-.48419.14976-.89713.15413-.91894l.00872-.04071h1.11378c.88986 0 1.15159.00436 1.29699.02181.52926.06252.7779.21956.87823.55689.04362.15121.04362.26463-.00436.59905-.08288.57433-.14686.91748-.1963 1.05851-.0567.15704-.14685.30098-.26463.42021-.10033.10324-.13668.12941-.25445.18321-.1425.06688-.23555.09596-.43766.13813-.10615.02181-.22974.02472-1.00764.02472h-.88695l-.06689.39985c-.03635.21955-.10178.61795-.1454.88258l-.07852.48419h-.36641c-.21229 0-.36787-.0058-.36787-.0131zm2.77718-2.48053c.07561-.01308.16431-.03635.19775-.05089.06834-.03344.14395-.10469.17448-.1643.03635-.06979.19484-.92039.19484-1.04398 0-.15267-.04943-.22246-.18466-.2559-.09015-.02327-.759-.04508-1.4104-.04653l-.33588-.00146-.00872.04072c-.00437.02181-.06107.35914-.12505.75026-.06543.39113-.12214.72992-.1265.75318l-.00727.04071h.74591c.60197 0 .77354-.00436.8855-.02181z" fill="#fff"/></g></svg>