<svg fill="none" height="17" viewBox="0 0 26 17" width="26" xmlns="http://www.w3.org/2000/svg" xmlns:xlink="http://www.w3.org/1999/xlink"><linearGradient id="a" gradientUnits="userSpaceOnUse" x1="20.2969" x2="12.1893" y1=".653876" y2="20.0414"><stop offset="0" stop-color="#002253"/><stop offset=".242548" stop-color="#0082b1"/><stop offset="1" stop-color="#0e9641"/></linearGradient><mask id="b" height="16" maskUnits="userSpaceOnUse" width="24" x="0" y="1"><path d="m22 1h-20c-1.10457 0-2 .89543-2 2v12c0 1.1046.89543 2 2 2h20c1.1046 0 2-.8954 2-2v-12c0-1.10457-.8954-2-2-2z" fill="#fff"/></mask><g clip-rule="evenodd" fill-rule="evenodd" mask="url(#b)"><path d="m0 1h24v16h-24z" fill="url(#a)"/><path d="m13.0602 4.50602v4.206h6.7134c1.1615 0 2.103-.94154 2.103-2.103 0-1.16145-.9415-2.103-2.103-2.103zm-.5727 4.206c-.0382-.8273-.2446-1.56922-.5925-2.19918-.3871-.70101-.9495-1.26337-1.6505-1.65049-.70098-.38712-1.54061-.59898-2.48226-.59898h-.88973c-.94165 0-1.78129.21186-2.48229.59898s-1.26336.94948-1.65048 1.65049c-.38712.701-.59899 1.54063-.59899 2.48228s.21187 1.78128.59899 2.48228.94948 1.2634 1.65048 1.6505 1.54064.599 2.48229.599h.88973c.94165 0 1.78128-.2119 2.48226-.599.701-.3871 1.2634-.9495 1.6505-1.6505.3479-.63.5543-1.3719.5925-2.19918h-5.00836v-.5662zm.5727.5662v4.20598h6.7134c1.1615 0 2.103-.9415 2.103-2.103 0-1.1614-.9415-2.10298-2.103-2.10298z" fill="#fff"/></g></svg>