<svg fill="none" height="16" viewBox="0 0 16 16" width="16" xmlns="http://www.w3.org/2000/svg" xmlns:xlink="http://www.w3.org/1999/xlink"><clipPath id="a"><path d="m0 0h16v16h-16z"/></clipPath><g clip-path="url(#a)"><path d="m0 2.5c0-1.38071 1.11929-2.5 2.5-2.5h11c1.3807 0 2.5 1.11929 2.5 2.5v11c0 1.3807-1.1193 2.5-2.5 2.5h-11c-1.38071 0-2.5-1.1193-2.5-2.5z" fill="#ffb3c7"/><path clip-rule="evenodd" d="m5.81489 11.9997h-1.81489v-7.99968h1.81489zm2.67643-3.45925c1.18918-1.19751 1.85658-2.80858 1.85658-4.54043l-1.77606-.00002c0 1.47212-.6693 2.82332-1.8362 3.70731l-.70363.53292 2.72638 3.75977h2.24161zm4.00868 1.45955c-.5523 0-1 .4477-1 1 0 .5522.4477 1 1 1 .5522 0 1-.4478 1-1 0-.5523-.4478-1-1-1z" fill="#0a0b09" fill-rule="evenodd"/></g></svg>