<svg fill="none" height="18" viewBox="0 0 26 18" width="26" xmlns="http://www.w3.org/2000/svg"><path d="m23.0492 17.0001h-19.99444c-.52678.0044-1.03373-.2043-1.40933-.5801-.37559-.3759-.58906-.8882-.59343-1.4242v-11.99147c.00437-.53602.21784-1.04831.59343-1.42417.3756-.37587.88255-.584506 1.40933-.58009h19.99444c.5268-.004416 1.0338.20422 1.4094.58009.3756.37586.589.88815.5934 1.42417v11.99987c-.0136 1.1129-.909 2.0052-2.0028 1.9959z" stroke="#000" stroke-width=".5"/><path d="m11.0541 3.05183v-.016h4v.016c3.1354.22944 5.5621 2.84018 5.5621 5.984 0 3.14377-2.4267 5.75457-5.5621 5.98397v.016h-4v-.016c-3.13548-.2294-5.56216-2.8402-5.56216-5.98397 0-3.14382 2.42668-5.75456 5.56216-5.984z" fill="#000"/><path d="m12.6542 12.4279c1.4352-.5103 2.394-1.8687 2.394-3.39202 0-1.5233-.9588-2.88172-2.394-3.392zm-2.4-6.78402c-1.43534.51028-2.39409 1.8687-2.39409 3.392 0 1.52332.95875 2.88172 2.39409 3.39202zm1.2 8.59202c-2.87193 0-5.20005-2.3281-5.20005-5.20002 0-2.87188 2.32812-5.2 5.20005-5.2 2.8718 0 5.2 2.32812 5.2 5.2 0 2.87192-2.3282 5.20002-5.2 5.20002z" fill="#fff"/></svg>