<svg fill="none" height="40" viewBox="0 0 56 40" width="56" xmlns="http://www.w3.org/2000/svg"><g clip-rule="evenodd" fill="#fff" fill-rule="evenodd"><path d="m43.55 7.6001h-31.15c-1.7673 0-3.19999 1.43269-3.19999 3.2v18.35c0 1.7673 1.43269 3.2 3.19999 3.2h31.15c1.7673 0 3.2-1.4327 3.2-3.2v-18.35c0-1.76731-1.4327-3.2-3.2-3.2zm.45 6.3999h-32v12h32z"/><path d="m10.2 10.8001c0-1.21503.985-2.2 2.2-2.2h31.15c1.215 0 2.2.98497 2.2 2.2v18.35c0 1.215-.985 2.2-2.2 2.2h-31.15c-1.215 0-2.2-.985-2.2-2.2zm30.0588 11.8845h-2.9358l-.3953 1.4334h-2.2706l2.4491-8.2943h3.3152l2.4817 8.2943h-2.2238l-.4196-1.4334zm-.4363-1.6157-1.0279-3.5952-.9998 3.5952zm-11.1613 3.0491v-8.2943h4.0907c.5616 0 .9905.0475 1.2839.1397.6727.2146 1.124.6535 1.3558 1.3165.1196.3476.1794.872.1794 1.572 0 .8416-.0654 1.4457-.1962 1.8143-.2635.7276-.8036 1.1465-1.6193 1.2557-.0963.0161-.5046.0304-1.2241.0427l-.3644.0124h-1.31v2.141zm2.1958-4.0654h1.3689c.4345-.0162.6979-.0504.7942-.1026.1289-.0732.2158-.2185.2588-.436.028-.1454.0421-.361.0421-.6459 0-.3515-.0271-.6118-.0832-.7818-.0785-.2374-.2682-.3828-.5672-.435-.1417-.0114-.2839-.0155-.4261-.0124h-1.3875zm-11.1791-1.5825h-2.0435c0-.342-.0402-.57-.1177-.6858-.1215-.1729-.4579-.2584-1.0054-.2584-.5336 0-.8877.0494-1.0605.1482-.172.0997-.2579.3163-.2579.6506 0 .3021.0766.5006.2289.5956.1102.0665.2541.1073.4354.1197l.413.0285c.5518.0347 1.1032.0768 1.6539.1263.6989.0713 1.2035.2603 1.5184.5661.2466.2375.3952.551.4419.9357.0271.2308.0402.491.0402.7808 0 .6677-.0617 1.1569-.1869 1.4675-.228.568-.74.9271-1.5352 1.0781-.3326.0637-.8409.095-1.5277.095-1.1437 0-1.9417-.0684-2.392-.209-.5513-.169-.9157-.5148-1.0923-1.0353-.0991-.2878-.1467-.7694-.1467-1.4457h2.0444v.1728c0 .36.1019.5918.3056.6934.1401.0722.3102.1093.5101.114h.7513c.3831 0 .627-.0199.7335-.0598.1869-.076.3102-.1957.37-.3629.0299-.1044.0467-.2374.0467-.3999 0-.3647-.1308-.587-.3934-.6668-.0981-.0313-.5541-.076-1.367-.131-.6522-.0475-1.1054-.0931-1.3595-.1368-.669-.1273-1.1157-.3895-1.3371-.7865-.1962-.3372-.2944-.8473-.2944-1.5303 0-.5205.0542-.9375.1589-1.2509.1056-.3135.2756-.5519.512-.7143.343-.2508.7849-.3971 1.3213-.4408.4941-.0418.9898-.0618 1.4856-.0598.8569 0 1.468.0494 1.8333.1491.8896.2432 1.3325.9233 1.3325 2.0403 0 .0922-.0057.228-.0187.4123zm8.1883-.4323c-.5496-.6737-1.3843-1.1046-2.3213-1.1046-1.0693.0009-2.0568.5708-2.5909 1.495h4.692l-.5632 1.2048h-4.5191c-.0247.2491-.0188.5003.0174.748h4.1529l-.5641 1.2058h-3.1271c.5518.8434 1.4927 1.3523 2.5021 1.3533.8611.0004 1.6804-.3707 2.247-1.0178v1.4776c-.6811.453-1.5051.7181-2.3919.7181-1.7611 0-3.273-1.0439-3.9183-2.5321h-1.4944l.5632-1.2049h.6173c-.0247-.2486-.0266-.499-.0058-.748h-1.2279l.5642-1.2048h.9544c.628-1.5259 2.1582-2.6045 3.9473-2.6045 1.0987-.0027 2.1567.415 2.956 1.1673z"/></g></svg>