<svg fill="none" height="17" viewBox="0 0 26 17" width="26" xmlns="http://www.w3.org/2000/svg"><path d="m4.70008 1.00006h5.99032c.8362 0 1.3563.7264 1.1612 1.62054l-2.78893 12.7614c-.19682.891-1.03403 1.6181-1.87081 1.6181h-5.98971c-.835028 0-1.356279-.7271-1.161211-1.6181l2.790081-12.7614c.19507-.89414 1.03184-1.62054 1.86906-1.62054z" fill="#dd2423"/><path d="m10.1919 1.00006h6.8887c.8361 0 .4591.7264.2624 1.62054l-2.7885 12.7614c-.1956.891-.1346 1.6181-.9724 1.6181h-6.88868c-.8378 0-1.35627-.7271-1.15946-1.6181l2.78833-12.7614c.19799-.89414 1.03301-1.62054 1.86961-1.62054z" fill="#16315e"/><path d="m16.8074 1.00006h5.9903c.8374 0 1.3575.7264 1.1608 1.62054l-2.7885 12.7614c-.1968.891-1.0346 1.6181-1.8718 1.6181h-5.9875c-.8378 0-1.3575-.7271-1.1612-1.6181l2.7889-12.7614c.1951-.89414 1.0312-1.62054 1.869-1.62054z" fill="#036862"/><path d="m6.26451 5.08973c-.61601.00669-.79793 0-.85605-.01463-.02233.11313-.43802 2.15678-.43919 2.1585-.0895.41346-.15462.70818-.37583.8985-.12556.11064-.27216.16401-.44211.16401-.27318 0-.43233-.14456-.45905-.41875l-.00511-.09414s.08322-.55383.08322-.55694c0 0 .43628-1.86236.51439-2.10854.00409-.014.00526-.02132.00628-.02801-.84919.00794-.99972 0-1.01009-.01463-.00569.02008-.02672.13554-.02672.13554l-.44547 2.09905-.03825.17802-.07403.5823c0 .17273.03183.31371.0952.43291.20295.37798.78187.43462 1.10937.43462.42197 0 .8178-.09554 1.08528-.26998.46431-.2924.58579-.74943.69413-1.15558l.05023-.20836s.44941-1.93425.52577-2.18588c.00292-.014.00409-.02132.00803-.02801zm1.52911 1.56038c-.10834 0-.30633.02801-.48417.12091-.06453.03533-.12556.0761-.18995.11671l.05811-.22361-.03183-.03766c-.37714.08139-.46154.09228-.80991.14456l-.0292.0207c-.04045.35744-.07637.62618-.22632 1.32877-.05709.25894-.11637.52036-.17579.77868l.01606.03283c.35699-.02007.46533-.02007.7756-.01462l.02511-.0291c.03942-.21521.04453-.26563.13185-.7015.04103-.20665.12659-.66073.16878-.82241.07753-.03828.15404-.07594.22705-.07594.17389 0 .15272.16168.14601.22611-.00745.10815-.07082.46139-.13579.76467l-.04337.19576c-.03022.14457-.06337.28508-.09359.4284l.01314.02863c.35188-.02007.4592-.02007.75968-.01462l.03534-.0291c.05431-.33612.07023-.42607.16659-.91547l.04848-.22486c.09418-.44007.14148-.66321.07023-.84497-.07534-.20369-.2561-.25287-.42211-.25287zm1.70818.46075c-.18703.03828-.30632.0638-.42488.0803-.11754.02007-.23216.03828-.41291.06505l-.01431.01385-.01314.01104c-.01884.14348-.03198.2675-.05695.41331-.02117.15079-.05373.32211-.10673.56829-.04103.18845-.0622.25412-.08556.32041-.02278.06629-.04789.13071-.09403.31604l.0108.01712.00906.01572c.16893-.00856.27946-.01463.39305-.01572.11345-.00436.23099 0 .41291.00109l.01592-.01385.01708-.01525c.02628-.16713.03023-.2121.04629-.29364.01591-.08745.04336-.20852.11067-.53188.03183-.15188.06731-.30329.10031-.45828.03431-.15436.07023-.30639.1044-.45827l-.00511-.01836zm.00399-.62123c-.16995-.1069-.46825-.07298-.66901.07469-.20018.14472-.22296.35013-.05359.45844.16704.10395.4665.07298.66551-.07594.19974-.14783.22471-.35137.05709-.45719zm1.02781 2.47586c.3439 0 .6963-.10099.9616-.4007.2042-.24306.2977-.60471.3302-.75363.1055-.4936.0233-.72406-.0799-.86442-.1568-.21397-.4339-.28259-.7214-.28259-.1729 0-.5847.01821-.9063.33425-.231.22797-.33773.53733-.40212.83393-.06498.3022-.13973.84621.32972 1.04866.1448.0663.3536.0845.4882.0845zm-.0268-1.1106c.0792-.37378.1728-.68749.4117-.68749.1872 0 .2008.23342.1175.60844-.0149.08325-.0832.39276-.1756.52457-.0646.09725-.1409.15623-.2253.15623-.0251 0-.1745 0-.1768-.23637-.0012-.11671.0211-.23591.0485-.36538zm2.1781 1.06253.0269-.0291c.0381-.21521.0444-.26578.1288-.70149.0422-.20666.1295-.66073.1705-.82241.0777-.03844.1529-.0761.2282-.0761.1727 0 .1517.16168.1448.22611-.0062.1083-.0696.46139-.1357.76467l-.0411.19576c-.0314.14472-.0655.28508-.0958.42856l.0132.02863c.353-.02007.4563-.02007.7585-.01463l.0365-.0291c.053-.33627.0673-.42622.1666-.91546l.0473-.22501c.0946-.44007.1425-.66307.0724-.84482-.0775-.2037-.2594-.25287-.4231-.25287-.1085 0-.3075.02785-.4843.12091-.0632.03532-.1266.07594-.1888.11671l.0542-.22361-.0291-.03782c-.377.08154-.4631.09244-.8111.14472l-.0267.0207c-.0422.35744-.0765.62602-.2264 1.32877-.0571.25893-.1164.52036-.1757.77868l.0159.03283c.3576-.02007.4643-.02007.774-.01463zm2.5939.01455c.0222-.11546.1541-.79984.1552-.79984 0 0 .1123-.50216.1192-.52037 0 0 .0353-.05228.0706-.07298h.052c.4905 0 1.0443 0 1.4784-.34032.2953-.23342.4973-.5781.5874-.99701.0233-.1027.0405-.22486.0405-.34701 0-.16044-.0302-.31916-.1175-.44318-.2213-.33006-.6621-.33612-1.171-.33861-.0016 0-.2508.00249-.2508.00249-.6514.00855-.9126.00606-1.0199-.00794-.009.05057-.0261.14052-.0261.14052s-.2334 1.15246-.2334 1.15432c0 0-.5583 2.45027-.5846 2.56573.5687-.00731.8019-.00731.9.0042zm.4324-2.04723s.248-1.15012.2469-1.14576l.008-.05898.0035-.04497.0991.01089s.5116.04684.5236.04808c.202.08326.2852.29784.2271.57795-.053.25598-.2088.47119-.409.57514-.1648.08807-.3668.09539-.5748.09539h-.1347zm1.5445.99145c-.0656.29784-.1409.84186.3262 1.03576.1489.06753.2824.08761.418.08029.1432-.00825.276-.08481.3989-.19498-.0111.04528-.0222.09057-.0333.136l.0212.0291c.3359-.01509.4402-.01509.8042-.01213l.033-.02677c.0531-.33301.1032-.65637.2413-1.29344.0674-.30516.1345-.60736.2036-.91127l-.0108-.03345c-.3758.07422-.4763.0901-.8378.14472l-.0275.0238c-.0036.03097-.0074.06069-.0109.09042-.0562-.0968-.1377-.17943-.2634-.23093-.1608-.06738-.5384.01945-.8629.33441-.2281.22486-.3376.53297-.3998.82847zm.7893.01821c.0805-.36709.1729-.67769.4123-.67769.1515 0 .2312.14892.215.40288-.0129.06333-.0267.13009-.0432.20556-.024.10909-.05.21724-.0752.32554-.0257.07407-.0557.14394-.0885.19047-.0616.09306-.2082.15079-.2926.15079-.024 0-.1717 0-.1768-.23217-.0012-.11562.0211-.23467.049-.36538zm4.1219-1.21208-.029-.03532c-.3719.0803-.4392.09306-.7809.14223l-.0251.02677c-.0012.00435-.0022.01104-.0039.01711l-.0012-.00607c-.2544.62541-.2469.49049-.454.98285-.0011-.02241-.0011-.03642-.0023-.06022l-.0518-1.06735-.0326-.03532c-.3895.0803-.3987.09306-.7585.14223l-.028.02677c-.004.01276-.004.02676-.0063.04201l.0023.00545c.045.24493.0342.19031.0793.57685.021.18969.0491.38047.0701.56783.0355.31356.0553.46792.0987.94643-.243.42731-.3005.58899-.5344.96401l.0016.00374-.1647.27758c-.0188.0293-.0359.0494-.0599.0579-.0262.0139-.0604.0164-.1079.0164h-.0912l-.1357.4808.4654.0086c.2732-.0013.4449-.1375.5373-.3204l.2926-.53442h-.0047l.0308-.03766c.1968-.45158 1.694-3.1888 1.694-3.1888zm-4.9112 6.31508h-.1974l.7306-2.5755h.2424l.0769-.2653.0075.295c-.0091.1824.1255.3441.4792.3173h.4089l.1408-.4959h-.1539c-.0885 0-.1295-.0238-.1244-.0749l-.0074-.30014h-.7574v.00156c-.2448.00545-.9761.02505-1.1241.06707-.1792.04921-.368.19391-.368.19391l.0742-.26565h-.7084l-.1476.52705-.7404 2.6149h-.1437l-.1409.4924h1.411l-.0473.1641h.6953l.0461-.1641h.1951zm-.5789-2.0522c-.1135.0335-.3246.1349-.3246.1349l.1877-.6582h.5629l-.1358.4796s-.1739.0109-.2902.0437zm.0108.9404s-.1769.0236-.2932.0517c-.1146.037-.3296.1537-.3296.1537l.1939-.685h.5658zm-.3154 1.1179h-.5646l.1636-.5781h.5629zm1.3597-1.5975h.8139l-.117.4037h-.8247l-.1238.4413h.7216l-.5464.8199c-.0382.0602-.0725.0815-.1106.0985-.0383.0207-.0885.045-.1466.045h-.2002l-.1375.4833h.5235c.2722 0 .433-.132.5517-.3052l.3746-.5465.0805.5549c.0171.104.0871.1648.1346.1885.0524.028.1066.0761.1831.0832.082.0038.1413.0067.1807.0067h.2573l.1545-.5409h-.1015c-.0582 0-.1585-.0104-.1756-.0299-.0171-.0236-.0171-.06-.0263-.1154l-.0816-.5562h-.3342l.1465-.1859h.8231l.1266-.4413h-.762l.1187-.4037h.7597l.1409-.4978h-2.2649zm-6.8738 1.7099.1899-.6735h.7807l.1427-.5009h-.7814l.1192-.4145h.7637l.1415-.4851h-1.9107l-.1386.4851h.4341l-.1158.4145h-.4352l-.14429.5095h.43389l-.2531.891c-.0342.118.016.1629.0479.2177.0325.0534.0655.0887.1397.1088.0765.0182.1289.0291.2002.0291h.8801l.1568-.5549-.3901.0571c-.0754 0-.284-.0097-.2612-.0839zm.0895-3.22408-.1978.38108c-.0424.0833-.0805.1349-.1148.1587-.0302.0201-.0901.0285-.1768.0285h-.1032l-.138.4875h.3428c.1649 0 .2915-.0644.3519-.0966.065-.037.0821-.0159.1323-.0675l.1158-.1069h1.0705l.1421-.5076h-.7837l.1369-.27718zm1.5805 3.23388c-.0183-.028-.0051-.0773.0228-.18l.2926-1.0322h1.0409c.1517-.0024.2612-.0042.3324-.0097.0765-.0085.1598-.0376.2504-.0899.0936-.0548.1415-.1125.1819-.1788.0452-.0661.1176-.2109.1798-.434l.3678-1.30622-1.0802.00669s-.3326.05229-.479.11003c-.1478.0644-.3589.2443-.3589.2443l.0975-.35806h-.6673l-.9341 3.30196c-.0332.1282-.0554.2212-.0605.2771-.0017.0602.0713.1198.1186.1648.0559.045.1386.0377.2178.045.0834.0067.202.0109.3656.0109h.5128l.1574-.5665-.459.0463c-.0491 0-.0846-.0281-.0993-.0517zm.5042-1.9094h1.0933l-.0695.2322c-.0098.0055-.0332-.0115-.1444.0025h-.9468zm.219-.7786h1.1025l-.0793.2796s-.5197-.0055-.6029.0109c-.3662.0675-.5801.276-.5801.276zm.8292 1.7883c-.009.0347-.0233.0559-.0433.0717-.0222.0153-.0581.0207-.1117.0207h-.1558l.0092-.2827h-.648l-.0263 1.3823c-.001.0997.008.1575.0765.2037.0685.0577.2795.065.5635.065h.406l.1466-.5174-.3535.0207-.1175.0073c-.0161-.0073-.0314-.014-.0485-.0322-.0149-.0157-.04-.0061-.0359-.1058l.0028-.3543.3707-.0164c.2002 0 .2857-.0694.3587-.1355.0697-.0633.0925-.1362.1187-.2347l.0622-.3137h-.5094z" fill="#fefefe"/></svg>