<svg fill="none" height="40" viewBox="0 0 56 40" width="56" xmlns="http://www.w3.org/2000/svg"><g fill="#46a548"><path d="m36.064 22.5864h2.3008c.0658 0 .2192-.0219.2849-.0219.4382-.0876.8108-.4821.8108-1.0299 0-.5259-.3726-.9204-.8108-1.0299-.0657-.0219-.1972-.0219-.2849-.0219h-2.3008z"/><path d="m38.1019 8.0581c-2.1913 0-3.9882 1.77495-3.9882 3.9882v4.1415h5.6316c.1315 0 .2849 0 .3945.0219 1.2709.0658 2.2132.7232 2.2132 1.8626 0 .8985-.6355 1.6654-1.8188 1.8188v.0438c1.2929.0877 2.279.8108 2.279 1.9284 0 1.2052-1.0957 1.9941-2.5419 1.9941h-6.1795v8.1078h5.8508c2.1913 0 3.9881-1.775 3.9881-3.9882v-19.9189z"/><path d="m39.1756 18.3353c0-.5259-.3725-.8765-.8108-.9423-.0438 0-.1534-.0219-.2191-.0219h-2.0817v1.9283h2.0817c.0657 0 .1972 0 .2191-.0219.4383-.0657.8108-.4163.8108-.9422z"/></g><path d="m16.0574 8.0581c-2.1913 0-3.9881 1.77495-3.9881 3.9882v9.8389c1.1175.5478 2.2789.8984 3.4403.8984 1.3805 0 2.1256-.8327 2.1256-1.9722v-4.6455h3.4184v4.6236c0 1.7969-1.1176 3.2651-4.9085 3.2651-2.3009 0-4.0977-.504-4.0977-.504v8.3926h5.8507c2.1913 0 3.9882-1.7749 3.9882-3.9881v-19.897z" fill="#1b6baf"/><path d="m27.0797 8.0581c-2.1913 0-3.9881 1.77495-3.9881 3.9882v5.2152c1.0079-.8546 2.761-1.4024 5.5878-1.2709 1.512.0657 3.1335.4821 3.1335.4821v1.6873c-.8108-.4164-1.7749-.7889-3.024-.8765-2.1474-.1534-3.4403.8984-3.4403 2.7391 0 1.8626 1.2929 2.9144 3.4403 2.7391 1.2491-.0876 2.2132-.4821 3.024-.8765v1.6873s-1.5996.4163-3.1335.4821c-2.8268.1314-4.5799-.4164-5.5878-1.271v9.2035h5.8507c2.1913 0 3.9882-1.775 3.9882-3.9882v-19.9408z" fill="#d02644"/></svg>