<svg fill="none" height="17" viewBox="0 0 26 17" width="26" xmlns="http://www.w3.org/2000/svg"><g clip-rule="evenodd" fill="#fff" fill-rule="evenodd"><path d="m21.9972 16.9999h-19.99444c-.26084.0022-.51955-.0478-.76136-.1473-.241814-.0996-.461995-.2466-.64797-.4327s-.334102-.4077-.435923-.652c-.1018215-.2444-.15534243-.5068-.157507-.7722v-11.99144c.00216457-.26541.0556855-.52778.157507-.77214.101821-.24436.249948-.46592.435923-.65203s.406156-.33312.64797-.43264c.24181-.09952.50052-.1496.76136-.14738h19.99444c.2609-.00222.5196.04786.7614.14738s.462.24653.648.43264c.1859.18611.3341.40767.4359.65203s.1553.50673.1575.77214v11.99994c-.0065.5345-.221 1.0446-.5963 1.4187-.3754.374-.8811.5815-1.4065.577z" fill-opacity=".2"/><g fill-opacity=".3"><path d="m21.1131 11.2487c0-.3873-.2897-.6989-.6456-.6989h-3.502c-.3559 0-.6456.3116-.6456.6989v1.8127c0 .3873.2897.6989.6456.6989h3.502c.3559 0 .6456-.3116.6456-.6989z"/><path d="m15.1131 11.2487c0-.3873-.2897-.6989-.6456-.6989h-3.502c-.3559 0-.6456.3116-.6456.6989v1.8127c0 .3873.2897.6989.6456.6989h3.502c.3559 0 .6456-.3116.6456-.6989z"/></g></g></svg>