<svg fill="none" height="17" viewBox="0 0 26 17" width="26" xmlns="http://www.w3.org/2000/svg"><g clip-rule="evenodd" fill="#fff" fill-rule="evenodd"><path d="m21.9972 16.9999h-19.99444c-.26084.0022-.51955-.0478-.76136-.1473-.241814-.0996-.461995-.2466-.64797-.4327s-.334102-.4077-.435923-.652c-.1018215-.2444-.15534243-.5068-.157507-.7722v-11.99144c.00216457-.26541.0556855-.52778.157507-.77214.101821-.24436.249948-.46592.435923-.65203s.406156-.33312.64797-.43264c.24181-.09952.50052-.1496.76136-.14738h19.99444c.2609-.00222.5196.04786.7614.14738s.462.24653.648.43264c.1859.18611.3341.40767.4359.65203s.1553.50673.1575.77214v11.99994c-.0065.5345-.221 1.0446-.5963 1.4187-.3754.374-.8811.5815-1.4065.577zm-13.72134-11.0904c0-.38736-.28965-.69894-.64551-.69894h-4.50207c-.35587 0-.64552.31158-.64552.69894v2.81261c0 .38736.28965.69894.64552.69894h4.50207c.35586 0 .64551-.31158.64551-.69894z" fill-opacity=".2"/><path d="m20.3125 13.7621h-2.4375c-.5281 0-.8125-.2428-.8125-.8095s.2844-.8095.8125-.8095h2.4375c.5281 0 .8125.2428.8125.8095s-.2844.8095-.8125.8095zm-4.875 0h-2.4375c-.5281 0-.8125-.2428-.8125-.8095s.2844-.8095.8125-.8095h2.4375c.5281 0 .8125.2428.8125.8095s-.2844.8095-.8125.8095zm-4.875 0h-2.4375c-.52812 0-.8125-.2428-.8125-.8095s.28438-.8095.8125-.8095h2.4375c.5281 0 .8125.2428.8125.8095s-.2844.8095-.8125.8095zm-4.875 0h-2.4375c-.52812 0-.8125-.2428-.8125-.8095s.28438-.8095.8125-.8095h2.4375c.52813 0 .8125.2428.8125.8095s-.28437.8095-.8125.8095z" fill-opacity=".3"/></g></svg>