<svg fill="none" height="17" viewBox="0 0 26 17" width="26" xmlns="http://www.w3.org/2000/svg"><path d="m22 1h-20c-1.10457 0-2 .89543-2 2v12c0 1.1046.89543 2 2 2h20c1.1046 0 2-.8954 2-2v-12c0-1.10457-.8954-2-2-2z" fill="#016fd0"/><g clip-rule="evenodd" fill-rule="evenodd"><path d="m13.764 14.3939v-5.7014l10.1476.00911v1.57489l-1.1729 1.2534 1.1729 1.2649v1.6083h-1.8726l-.9952-1.0982-.9881 1.1023z" fill="#fffffe"/><path d="m14.4418 13.7688v-4.44885h3.7723v1.02485h-2.5509v.6957h2.4901v1.0078h-2.4901v.6834h2.5509v1.0371z" fill="#016fd0"/><path d="m18.1953 13.7688 2.0873-2.227-2.0874-2.22179h1.6156l1.2755 1.40999 1.2791-1.40999h1.5462v.035l-2.0429 2.18679 2.0429 2.1639v.0631h-1.5617l-1.2981-1.4242-1.2848 1.4242z" fill="#016fd0"/><path d="m14.2374 3.63196h2.446l.8592 1.95085v-1.95085h3.0198l.5208 1.46157.5225-1.46157h2.3059v5.70139h-12.1865z" fill="#fffffe"/><path d="m14.7005 4.25134-1.9741 4.44517h1.3539l.3725-.89016h2.0179l.3722.89016h1.3875l-1.9657-4.44517zm.1696 2.55744.592-1.41507.5915 1.41507z" fill="#016fd0"/><path d="m18.212 8.69569v-4.44508l1.9031.00654.9793 2.73273.9856-2.73927h1.8316v4.44508l-1.1786.01043v-3.05334l-1.1126 3.04291h-1.0758l-1.1356-3.05334v3.05334z" fill="#016fd0"/></g></svg>