<svg fill="none" height="16" viewBox="0 0 83 16" width="83" xmlns="http://www.w3.org/2000/svg" xmlns:xlink="http://www.w3.org/1999/xlink"><clipPath id="a"><path d="m0 0h82.9333v16h-82.9333z"/></clipPath><g clip-path="url(#a)" fill="#fff"><path d="m81.6701 3.22916-2.4947-1.43541-2.5307-1.455669c-1.6768-.964849-3.7672.249139-3.7672 2.187959v.32673c0 .17878.0952.34389.2497.43284l1.1737.67533c.3263.18739.7319-.04835.7319-.42481v-.77391c0-.38312.4129-.62299.745-.43234l2.312 1.33045 2.3055 1.3264c.3328.19167.3328.6733 0 .86482l-2.3055 1.32647-2.312 1.33045c-.3321.19065-.745-.04922-.745-.43241v-.38442c0-1.93882-2.0904-3.15281-3.7674-2.18796l-2.5302 1.45574-2.4948 1.43534c-1.6849.9694-1.6849 3.40644 0 4.37594l2.4948 1.4353 2.5302 1.4557c1.677.9649 3.7674-.2492 3.7674-2.1879v-.3276c0-.1787-.0952-.3438-.2497-.4329l-1.1737-.6753c-.3263-.1874-.7319.0484-.7319.4249v.7746c0 .3832-.4129.6231-.7446.4324l-2.3125-1.3305-2.3056-1.3264c-.3329-.1916-.3329-.6732 0-.8648l2.3056-1.32646 2.3125-1.33045c.3317-.19066.7446.04922.7446.4324v.38442c0 1.93879 2.0904 3.15279 3.7672 2.18799l2.5307-1.45571 2.4947-1.43539c1.6847-.96934 1.6847-3.40651 0-4.37584z"/><path d="m65.2867 3.70823-5.8518 12.11047h-2.428l2.1863-4.5255-3.4375-7.58497h2.4906l2.2085 5.07939 2.4128-5.07939z"/><path d="m6.84369 12.3081v-1.1179c-.63473.774-1.57813 1.2556-2.70999 1.2556-2.35002 0-4.1337-1.892-4.1337-4.43759 0-2.52823 1.85237-4.45467 4.18504-4.45467 1.09772 0 2.02392.48178 2.65865 1.23846v-1.08363h2.10969v8.59973zm-.0172-4.29989c0-1.4446-1.04623-2.45946-2.33267-2.45946s-2.33269 1.03195-2.33269 2.45946c0 1.41042 1.04625 2.45969 2.33269 2.45969s2.33267-1.0148 2.33267-2.45969z"/><path d="m19.2013 10.3989c-.7377 0-.9433-.2751-.9433-.99752v-3.81828h1.3548v-1.87476h-1.3548v-2.0982h-2.1613v2.0982h-2.7841v-.85577c0-.72237.2743-.99778 1.0291-.99778h.4747v-1.66833h-1.0408c-1.7838 0-2.6243.584918-2.6243 2.37362v1.14826h-1.20074v1.87476h1.20074v6.725h2.1613v-6.725h2.7841v4.21387c0 1.75443.6689 2.51113 2.4184 2.51113h1.1149v-1.9092z"/><path d="m22.6488 8.57597c.1544 1.27263 1.0634 1.99503 2.2127 1.99503.909 0 1.6123-.4301 2.0239-1.11799h2.2126c-.5144 1.82329-2.144 2.99279-4.288 2.99279-2.5899 0-4.4081-1.8232-4.4081-4.42022 0-2.5972 1.9211-4.47211 4.4596-4.47211 2.5557 0 4.4082 1.89199 4.4082 4.47211 0 .18914-.0173.37841-.0516.55039zm4.3052-1.34174c-.1543-1.11786-1.0635-1.78877-2.1269-1.78877-1.0633 0-1.9382.65361-2.1611 1.78877z"/><path d="m36.2219 15.8187v-12.11033h2.1098v1.11787c.6346-.79113 1.578-1.27276 2.71-1.27276 2.3156 0 4.1337 1.90921 4.1337 4.43758 0 2.52824-1.8524 4.45474-4.1851 4.45474-1.0806 0-1.9725-.4301-2.59-1.1524v4.5253zm6.7923-7.81049c0-1.3932-1.0464-2.4596-2.3326-2.4596-1.2865 0-2.3328 1.03209-2.3328 2.4596 0 1.41035 1.0463 2.45959 2.3328 2.45959 1.2862 0 2.3326-1.06637 2.3326-2.45959z"/><path d="m52.7947 12.3081v-1.1179c-.6347.774-1.5781 1.2556-2.7101 1.2556-2.3499 0-4.1337-1.892-4.1337-4.43759 0-2.52823 1.8524-4.45467 4.1851-4.45467 1.0977 0 2.024.48178 2.6587 1.23846v-1.08363h2.1097v8.59973zm-.0173-4.29989c0-1.4446-1.0461-2.45946-2.3326-2.45946-1.2863 0-2.3327 1.03195-2.3327 2.45946 0 1.41042 1.0464 2.45969 2.3327 2.45969 1.2865 0 2.3326-1.0148 2.3326-2.45969z"/><path d="m32.4199 4.55112s.5368-.99764 1.8525-.99764c.5624 0 .9264.1942.9264.1942v2.19353s-.7938-.49169-1.5226-.39246c-.7287.09902-1.1899.77-1.1877 1.66819v5.09106h-2.1782v-8.59977h2.1096z"/></g></svg>