<svg viewBox="0 0 32 22" xmlns="http://www.w3.org/2000/svg"><path d="m3.3 0c-1.823 0-3.3 1.477-3.3 3.3v15.4c0 1.822 1.477 3.3 3.3 3.3h25.4c1.822 0 3.3-1.478 3.3-3.3v-15.4c0-1.823-1.478-3.3-3.3-3.3zm14.114 10.726v-5.648h8.951c1.548 0 2.804 1.264 2.804 2.824s-1.256 2.824-2.804 2.824zm-1.554-2.953c.464.846.739 1.842.79 2.953h-6.678v.76h6.678c-.051 1.111-.326 2.108-.79 2.954-.516.941-1.266 1.696-2.201 2.216-.934.52-2.054.805-3.309.805h-1.187c-1.255 0-2.375-.285-3.309-.805-.935-.52-1.685-1.275-2.201-2.216-.516-.942-.799-2.069-.799-3.334 0-1.264.283-2.392.799-3.333.516-.942 1.266-1.697 2.201-2.217.934-.52 2.054-.804 3.309-.804h1.187c1.255 0 2.375.284 3.309.804.935.52 1.685 1.275 2.201 2.217zm1.554 9.362v-5.649h8.951c1.548 0 2.804 1.265 2.804 2.825 0 1.559-1.256 2.824-2.804 2.824z" fill="#8e8e93" fill-rule="evenodd"/></svg>