<svg fill="none" height="40" viewBox="0 0 56 40" width="56" xmlns="http://www.w3.org/2000/svg"><path clip-rule="evenodd" d="m42.9124 31.9999h-29.8248c-.4021.0033-.801-.0718-1.1738-.2211s-.7122-.3698-.9989-.6489c-.2867-.2792-.5151-.6115-.6721-.9781-.157-.3665-.2395-.7601-.2428-1.1582v-17.9872c.0033-.3981.0858-.7917.2428-1.15822.157-.36654.3854-.69889.6721-.97805s.6261-.49968.9989-.64896.7717-.2244 1.1738-.22106h29.8248c.4021-.00334.801.07178 1.1738.22106s.7122.3698.9989.64896.5151.61151.6721.97805c.157.36652.2395.76012.2428 1.15822v17.9998c-.0101.8019-.3407 1.5671-.9193 2.1281-.5787.5611-1.3584.8723-2.1683.8656zm-18.9172-16.9515c0-.581-.4466-1.0484-.9952-1.0484s-7 0-7 0c-.5486 0-.9952.4674-.9952 1.0484v3.9516c0 .581.4466 1.0484.9952 1.0484h7c.5486 0 .9952-.4674.9952-1.0484 0 0 0-3.3705 0-3.9516z" fill="#515e80" fill-rule="evenodd" opacity=".2"/><g fill="#aab0bf"><path d="m15 25c0-.5523.4477-1 1-1h3.75c.5523 0 1 .4477 1 1 0 .5523-.4477 1-1 1h-3.75c-.5523 0-1-.4477-1-1z"/><path d="m21.75 25c0-.5523.4477-1 1-1h3.75c.5523 0 1 .4477 1 1 0 .5523-.4477 1-1 1h-3.75c-.5523 0-1-.4477-1-1z"/><path d="m28.5 25c0-.5523.4477-1 1-1h3.75c.5523 0 1 .4477 1 1 0 .5523-.4477 1-1 1h-3.75c-.5523 0-1-.4477-1-1z"/><path d="m35.25 25c0-.5523.4477-1 1-1h3.75c.5523 0 1 .4477 1 1 0 .5523-.4477 1-1 1h-3.75c-.5523 0-1-.4477-1-1z"/></g></svg>