<svg fill="none" height="40" viewBox="0 0 56 40" width="56" xmlns="http://www.w3.org/2000/svg"><path clip-rule="evenodd" d="m13.0876 31.9999h29.8248c.8099.0067 1.5896-.3045 2.1683-.8656.5786-.561.9092-1.3262.9193-2.1281v-17.9998c-.0033-.3981-.0858-.7917-.2428-1.15822-.157-.36654-.3854-.69889-.6721-.97805s-.6261-.49968-.9989-.64896-.7717-.2244-1.1738-.22106h-29.8248c-.4021-.00334-.801.07178-1.1738.22106s-.7122.3698-.9989.64896-.5151.61151-.6721.97805c-.157.36652-.2395.76012-.2428 1.15822v17.9872c.0033.3981.0858.7917.2428 1.1582.157.3666.3854.6989.6721.9781.2867.2791.6261.4996.9989.6489s.7717.2244 1.1738.2211zm9.9124-17.9999c.5486 0 .9952.4674.9952 1.0484v3.9516c0 .581-.4466 1.0484-.9952 1.0484h-7c-.5486 0-.9952-.4674-.9952-1.0484v-3.9516c0-.581.4466-1.0484.9952-1.0484zm-8 11c0-.5523.4477-1 1-1h3.75c.5523 0 1 .4477 1 1s-.4477 1-1 1h-3.75c-.5523 0-1-.4477-1-1zm6.75 0c0-.5523.4477-1 1-1h3.75c.5523 0 1 .4477 1 1s-.4477 1-1 1h-3.75c-.5523 0-1-.4477-1-1zm7.75-1c-.5523 0-1 .4477-1 1s.4477 1 1 1h3.75c.5523 0 1-.4477 1-1s-.4477-1-1-1zm5.75 1c0-.5523.4477-1 1-1h3.75c.5523 0 1 .4477 1 1s-.4477 1-1 1h-3.75c-.5523 0-1-.4477-1-1z" fill="#fff" fill-rule="evenodd"/></svg>