<svg fill="none" height="16" viewBox="0 0 18 16" width="18" xmlns="http://www.w3.org/2000/svg" xmlns:xlink="http://www.w3.org/1999/xlink"><clipPath id="a"><path d="m0 0h18v16h-18z"/></clipPath><g clip-path="url(#a)"><path clip-rule="evenodd" d="m0 2.75c0-1.51879 1.23122-2.75 2.75-2.75h7.25c4.4183 0 8 3.58173 8 8 0 4.4183-3.5817 8-8 8h-7.25c-1.51878 0-2.75-1.2312-2.75-2.75z" fill="#fff" fill-rule="evenodd"/><g fill="#000"><path d="m4.43316 7.51624c.61475 0 1.1131-.49835 1.1131-1.1131s-.49835-1.1131-1.1131-1.1131c-.61474 0-1.11309.49835-1.11309 1.1131s.49835 1.1131 1.11309 1.1131z"/><path d="m5.27266 12.0043c-.93452 0-1.68453-.756-1.68453-1.6845v-1.3155c0-.46429.37501-.84524.84525-.84524.46428 0 .84524.375.84524.84524v3z"/><path clip-rule="evenodd" d="m1 2.75c0-.9665.7835-1.75 1.75-1.75h7.25c3.866 0 7 3.13401 7 7 0 3.866-3.134 7-7 7h-7.25c-.9665 0-1.75-.7835-1.75-1.75zm1.75-.75c-.41421 0-.75.33579-.75.75v10.5c0 .4142.33579.75.75.75h7.25c3.3137 0 6-2.6863 6-6 0-3.31371-2.6863-6-6-6z" fill-rule="evenodd"/></g><path d="m6.55005 4.56079v7.43921h3.23768c2.93977 0 4.21467-1.6605 4.21467-4.00876 0-2.24754-1.2749-3.99124-4.21467-3.99124h-2.67689c-.31107 0-.56079.25411-.56079.56079z" fill="#e60073"/></g></svg>