<svg fill="none" height="16" viewBox="0 0 16 16" width="16" xmlns="http://www.w3.org/2000/svg" xmlns:xlink="http://www.w3.org/1999/xlink"><clipPath id="a"><path d="m0 0h16v16h-16z"/></clipPath><g clip-path="url(#a)"><path clip-rule="evenodd" d="m12.0001 2.66666v4.00001h-8.00002v-5.33334h7.99992v1.33333zm1.3333 0v.00001h1.3333v-.00001zm1.3333 1.36001h-1.3333v1.30666h1.3333zm0 3.97332h-2.5334v-.00666c-.0441.00443-.0885.00667-.1332.00667h-8.00002c-.06742 0-.13431-.00511-.20015-.0151v.01509h-2.4666v6.66671h2.66667v-4c0-.3537.14048-.6928.39052-.94285.25005-.25005.58919-.39052.94281-.39052h5.33337c.3536 0 .6927.14047.9428.39052.25.25005.3905.58915.3905.94285v4h2.6667zm-4 8.00001h-5.33337-4c-.353619 0-.692757-.1405-.942806-.3905-.250048-.2501-.390524-.5892-.390524-.9428v-12.00004c0-.35362.140476-.69276.390524-.94281.250049-.25005.589187-.39052.942806-.39052h1.33342c0-.353622.14047-.692758.39052-.942806s.58919-.390524.94281-.390524h8.00002c.3536 0 .6927.140476.9428.390524.25.250049.3905.589187.3905.942806h1.3333c.3536 0 .6927.14047.9428.39052.25.25005.3905.58919.3905.94281v12.00004c0 .3536-.1405.6927-.3905.9428-.2501.25-.5892.3905-.9428.3905zm-7.99995-13.33334h-1.33342v.00001h1.33342zm-1.33342 1.36001h1.33342v1.30666h-1.33342zm9.33337 10.64003v-4h-2.00012v4zm-3.33345 0v-4h-1.99992v4zm-2.13299-9.75312c-.20332.32718-.31828.70152-.33366 1.08642h2.77334l.10666-.72h-1.81333c.06667-.17333.25333-.4.73333-.73333.69334-.54667.92-.77334.92-1.36 0-.58667-.33333-1.18667-1.33333-1.18667-.34938-.01832-.69196.10142-.95386.33339-.2619.23196-.42213.55758-.44614.90661h.81333c.05334-.33333.26667-.57333.58667-.57333s.49333.24.49333.58666c0 .34667-.17333.48-.72.88-.3383.18423-.62302.45307-.82634.78025zm4.69319.20642v.88h.77335v-.88h.4667v-.69333h-.4667v-2.34667h-.92002l-1.62666 2.29334v.74666zm0-2.30666v.92l-.01333.69333h-1.02667c.37659-.51789.7238-1.05652 1.04-1.61333z" fill="#1a1a1a" fill-opacity=".6" fill-rule="evenodd"/></g></svg>