<svg fill="none" height="20" viewBox="0 0 62 20" width="62" xmlns="http://www.w3.org/2000/svg"><path clip-rule="evenodd" d="m29.0563 4.19902h3.2033s3.1718-.064 3.1398 2.82032c-.0316 2.14768-3.0751 2.468-3.0751 2.468h-3.2677zm9.5834 10.35338c.0899.4195.3932.8818 1.405.9293 1.3453.0317 2.1143-.4813 2.1143-.4813v.9936s-1.4736.353-2.1786.353c-.7366 0-2.9152-.1606-2.9152-2.1796 0-1.6343 1.7941-2.1474 2.8189-2.1474 1.7941.064 2.659.7054 2.627 2.532 0 .0264-2.9517.0067-3.8714.0004zm.0042-.802h2.4579s.0001-.9294-1.1854-.9294c-.8916 0-1.1833.481-1.2725.9294zm7.7756-1.0036c.3556-.386.9527-.6951 1.9543-.6951 1.9864 0 2.3069 1.6667 2.2749 2.1153-.032.4487-.1922 2.1473-2.4984 2.1473-.8712 0-1.4043-.2974-1.7305-.6666v.5383h-1.5699v-5.7693h1.5699v2.3301zm1.346 2.6702c.9288-.0323 1.3453-.833 1.3453-1.2176 0-.3847-.2246-1.186-1.41-1.186-.9197 0-1.1998.6951-1.2813 1.0348v.418c.0808.3464.3623.9508 1.346.9508zm13.5511-.16.0317.8977s-.7367.16-1.2171.16-1.7305-.2883-1.7305-1.5067v-1.859h-1.3129v-.833h1.3129v-.9936h1.6022v.9936h1.3137v.833h-1.3137v1.603s0 .8014.6411.8014c.6403 0 .6726-.0964.6726-.0964zm-4.8695-10.19265h1.858v4.45499h1.5692v-4.45499h1.8904v-.92968h-5.3176zm-.641.22433.1922-.92968s-.8009-.35232-2.2102-.35232c-1.3776 0-3.5878.76934-3.5878 2.85267 0 2.05134 2.3384 2.75633 3.78 2.75633s1.9221-.22433 1.9221-.22433l-.16-1.02567s-.641.19234-1.7304.19234c-1.0572-.032-2.1456-.86533-2.1456-1.79466.0317-.83333.9925-1.76301 2.2426-1.76301.9604 0 1.6971.28833 1.6971.28833zm-14.1599-1.12166s2.627-.12799 2.627 1.41034c0 1.31434-1.5052 1.41033-1.5052 1.41033s.4161.064.6087.35232c.1599.25633 1.2171 2.17968 1.2171 2.17968h-1.6023s-.2562-.32067-.3844-.54466c-.096-.22433-.3845-.70534-.3845-.70534s-.2239-.80133-.9932-.80133c-.0193 0-.3321-.01196-.5767-.0211v2.07243h-1.5375v-5.35267zm-.9931 2.40401h.8332s1.1531-.06435 1.2171-.76934c.0323-.673-1.1208-.76934-1.1208-.76934h-.9295zm6.439.83333h2.5631v-.99367h-2.5631v-1.218h2.7876v-1.02567h-4.3564v5.35267h4.3888v-.96167h-2.8196v-1.15366zm6.2469 4.10234h1.5698v-1.09h-1.5698zm0 4.6797h1.5698v-4.0704h-1.5698zm-17.1063-6.66671h1.5375v-5.35267h-1.5375zm-7.1764 1.34631h3.2033s3.1718-.0647 3.1398 2.8204c-.0316 2.1473-3.0751 2.4683-3.0751 2.4683h-3.2677zm1.5699 4.295h1.0251s2.1143-.1283 2.1143-1.763c0-1.6346-2.2426-1.795-2.2426-1.795h-.8968zm0-6.66698h1.0251s2.1143-.16033 2.1143-1.76301c0-1.66666-2.2426-1.79465-2.2426-1.79465h-.8968zm-15.954-1.10865v10.72433s-6.21517-1.122-6.21517-5.3847c.00035-3.39975 4.60107-4.89835 6.21517-5.33963zm0-.20007c-3.7354-.27039-12.20545 1.48137-12.20545 5.3151 0 2.4996 4.48507 6.154 11.78905 6.25.2882 0 8.5853-.3207 8.4574-9.23106-.1076-7.48383-5.706-8.794656-7.4962-9.022855v-.4560471c7.137.4532351 12.7502 4.7475421 12.7502 9.9595621 0 5.513-6.2792 10-13.9996 10-7.72042 0-13.9676-4.4873-13.9676-10 0-5.51266 6.24683-10 13.9676-10 .2365 0 .4716.0042205.705.0126593z" fill="#6a7383" fill-rule="evenodd"/></svg>