<svg fill="none" height="16" viewBox="0 0 24 16" width="24" xmlns="http://www.w3.org/2000/svg"><path d="m0 16h4.8c1.092 0 2.4-1.1947 2.4-2.1333v-13.8667h-4.8c-1.092 0-2.4 1.19467-2.4 3.2z" fill="#047ab1"/><path d="m2.724 10.816c-.9215.0002-1.83846-.1147-2.724-.3413v-1.17336c.687181.37771 1.47266.59084 2.28.61867.924 0 1.44-.576 1.44-1.36533v-3.22134h2.28v3.22134c0 1.25866-.744 2.26132-3.276 2.26132z" fill="#fff"/><path d="m8.40002 16h4.79998c1.092 0 2.4-1.1947 2.4-2.1333v-13.8667h-4.8c-1.09198 0-2.39998 1.19467-2.39998 3.2z" fill="#d42d06"/><path d="m8.40002 6.07999c.696-.59733 1.89598-.97066 3.83998-.88533 1.056.04267 2.16.32 2.16.32v1.184c-.6314-.33948-1.3412-.54735-2.076-.608-1.476-.11733-2.37598.61867-2.37598 1.90933 0 1.29067.89998 2.02671 2.37598 1.92.7353-.06606 1.4446-.27744 2.076-.61866v1.17337s-1.104.288-2.16.3306c-1.944.0854-3.14398-.288-3.83998-.88531z" fill="#fff"/><path d="m16.8 16h4.8c1.092 0 2.4-1.1947 2.4-2.1333v-13.8667h-4.8c-1.092 0-2.4 1.19467-2.4 3.2z" fill="#67b637"/><path d="m22.8 9.28001c0 .85329-.7439 1.38669-1.7399 1.38669h-4.2601v-5.33336h3.876l.276.01067c.876.04267 1.524.50133 1.524 1.29067 0 .61866-.444 1.152-1.2479 1.28v.032c.8879.05333 1.5719.55466 1.5719 1.33333zm-3.06-3.104c-.0516-.00687-.1037-.01043-.156-.01067h-1.4399v1.344h1.5959c.3-.064.552-.30933.552-.672 0-.36266-.252-.608-.552-.66133zm.18 2.176c-.0634-.00886-.1277-.01243-.192-.01067h-1.5839v1.46134h1.5839l.192-.02134c.3-.064.552-.34133.552-.71466 0-.37334-.24-.64-.552-.71467z" fill="#fff"/></svg>