<svg fill="none" height="40" viewBox="0 0 56 40" width="56" xmlns="http://www.w3.org/2000/svg"><path d="m20.4628 13.2469-5.6763 13.5423h-3.7032l-2.79398-10.8086c-.17061-.6663-.31713-.9092-.83297-1.1902-.84301-.4576-2.23198-.8872-3.45635-1.1521l.08229-.3934h5.96131c.7587 0 1.4431.5058 1.6158 1.3809l1.4752 7.836 3.647-9.2169h3.6812zm14.5098 9.1206c.0161-3.5728-4.9416-3.7715-4.9075-5.3672.01-.4857.4737-1.0016 1.4853-1.1341.5018-.0662 1.8847-.1164 3.4543.6062l.6162-2.8723c-.843-.307-1.9268-.6001-3.2777-.6001-3.4623 0-5.899 1.8406-5.9191 4.476-.0241 1.951 1.7402 3.0368 3.0669 3.6851 1.3649.6644 1.8225 1.0899 1.8165 1.6821-.01.9092-1.0879 1.3106-2.0975 1.3247-1.7602.0281-2.7839-.4757-3.5988-.8551l-.6343 2.9686c.8169.3754 2.3283.7025 3.8959.7186 3.6812.002 6.0878-1.8165 6.0998-4.6325zm9.1447 4.4217h3.2395l-2.8281-13.5423h-2.9906c-.6724 0-1.2405.3914-1.4914.9935l-5.2567 12.5488h3.6771l.7306-2.0232h4.4941zm-3.91-4.7971 1.8446-5.0841 1.0618 5.0841zm-14.7386-8.7452-2.8964 13.5423h-3.5045l2.8984-13.5423z" fill="#fff"/></svg>