<svg fill="none" height="16" viewBox="0 0 16 16" width="16" xmlns="http://www.w3.org/2000/svg" xmlns:xlink="http://www.w3.org/1999/xlink"><clipPath id="a"><path d="m0 0h16v16h-16z"/></clipPath><g clip-path="url(#a)"><path d="m8 16c4.4183 0 8-3.5817 8-8 0-4.41828-3.5817-8-8-8-4.41828 0-8 3.58172-8 8 0 4.4183 3.58172 8 8 8z" fill="#b2fce4"/><path d="m12.5634 5.18676-1.477-.84525-1.49842-.85805c-.9904-.56777-2.22839.14514-2.22839 1.28921v.1921c0 .10673.05549.20491.14941.25614l.69584.39701c.1921.11099.43116-.02988.43116-.25186v-.45678c0-.22625.24333-.36713.4397-.25614l1.3661.78549 1.3618.78121c.1963.11099.1963.39701 0 .508l-1.3618.78122-1.3661.78548c-.19637.11099-.4397-.02988-.4397-.25613v-.22626c0-1.14407-1.23799-1.86125-2.22839-1.28922l-1.49413.86233-1.47705.84525c-.99467.57203-.99467 2.01069 0 2.58269l1.47705.8453 1.4984.858c.9904.5678 2.22839-.1451 2.22839-1.2892v-.1921c0-.1067-.0555-.2049-.14941-.2561l-.69584-.397c-.1921-.111-.43116.0298-.43116.2518v.4568c0 .2262-.24333.3671-.43971.2561l-1.36606-.7855-1.36179-.78117c-.19637-.11099-.19637-.39701 0-.508l1.36179-.78122 1.36606-.78548c.19638-.11099.43971.02988.43971.25614v.22625c0 1.14407 1.23799 1.86128 2.22839 1.28922l1.49835-.85806 1.4771-.84525c.9904-.5763.9904-2.01493-.0043-2.58697z" fill="#000"/></g></svg>