<svg fill="none" height="32" viewBox="0 0 32 32" width="32" xmlns="http://www.w3.org/2000/svg" xmlns:xlink="http://www.w3.org/1999/xlink"><clipPath id="a"><path d="m2.67603 8.64865h26.5217v14.4267h-26.5217z"/></clipPath><path d="m0 0h32v32h-32z" fill="#f0f5f7"/><g clip-path="url(#a)" clip-rule="evenodd" fill-rule="evenodd"><path d="m12.923 12.2084c.7896.3353 1.5698.6956 2.3404 1.079-2.4539 1.0721-4.8243 2.3411-7.08538 3.7944-.76542-.4315-1.54189-.8392-2.32939-1.222 2.25789-1.4143 4.62247-2.6375 7.07437-3.6514z" fill="#0067b1"/><path d="m10.0012 11.0983c-2.54864.8681-5.00105 2.0036-7.32517 3.3811.74124.2884 1.47564.5955 2.19953.924 2.25211-1.4256 4.63249-2.625 7.10904-3.5784-.655-.259-1.3174-.501-1.9834-.7267z" fill="#0067b1"/><g fill="#e31836"><path d="m18.242 12.1015c-2.0018-1.0416-4.0799-1.9187-6.2169-2.61876-.7518.23298-1.4967.48689-2.23531.76346 2.20061.7006 4.33971 1.5878 6.39991 2.6493.6771-.2794 1.3621-.5452 2.0523-.794z"/><path d="m21.5083 11.0542c-2.0481-.9613-4.1667-1.76542-6.331-2.40555-.6897.15325-1.3747.32459-2.055.51233 2.1496.67463 4.2398 1.53022 6.2559 2.54862.7049-.2346 1.4152-.4535 2.1301-.6554z"/><path d="m26.7527 12.9492c-5.1388 1.8633-9.9532 4.5171-14.3086 7.8394 1.0892.7193 2.1496 1.4827 3.1863 2.2868 4.1052-3.5026 8.6625-6.4206 13.5673-8.6373-.8001-.5219-1.6181-1.0179-2.445-1.4889z"/><path d="m23.2189 11.143c-5.3427 1.5201-10.3658 3.9726-14.89419 7.2026 1.02038.5401 2.02239 1.1163 3.00389 1.7299 4.4379-3.3047 9.3627-5.8777 14.6155-7.5747-.8958-.483-1.8047-.9376-2.7252-1.3578z"/></g></g></svg>